<svg id="Layer_1" data-name="Layer 1" xmlns="http://www.w3.org/2000/svg" viewBox="208 61 1010 694"><title>icono holder sensaciones</title><path d="M1360,917H-80V107H1360ZM700.85,825.29v0h56.62q105,0,210,.12c6.08,0,11.26-2.17,16.29-4.78a14.35,14.35,0,0,0,6-6.38,39.84,39.84,0,0,0,3.45-17.06Q993,598,993.14,398.9c0-43.38.18-86.76-.18-130.13,0-5.45-1.67-11.76-4.76-16.11-4.91-6.9-11.61-12.55-17.67-18.61-9.24-9.21-18.76-18.15-27.84-27.52-5.73-5.92-11.84-9.24-20.55-9.23q-197.61.31-395.22.13-74.25,0-148.49,0c-9.06,0-12.42,3.27-13.58,12.27s-2.77,17.7-4.16,26.55c-2.14,13.65-3.9,27.38-6.52,41-1.9,9.81-3.68,19.58-4.07,29.57a14.83,14.83,0,0,1-.68,2.53c-.74,3.37-1.67,6.73-2.12,10.14-.65,4.94-.68,10-1.47,14.9-1.82,11.41-4,22.76-5.92,34.16-2.09,12.56-4,25.15-6,37.73-1.6,10-3.63,19.86-4.76,29.87a191.29,191.29,0,0,1-3,20.65c-2.07,9.27-1.93,18.91-4.18,28.36-2.8,11.7-3.23,23.95-5,35.93-2.07,14.43-4.43,28.82-6.67,43.23-.19,1.23-.36,2.47-.59,3.7-2,10.84-4.6,21.62-6,32.55-1.17,9.24-1.58,18.46-3.74,27.69-2.69,11.44-3.14,23.4-4.84,35.1-2.26,15.55-4.76,31.06-7.24,46.58a42.26,42.26,0,0,1-1.66,5.75c-1.74,5.65-1.06,8.15,3.56,11.71,3.85,3,7.83,5.74,11.75,8.58q16.14,11.71,32.29,23.4c11.18,8.06,22.41,16.06,33.61,24.11q11.79,8.47,23.54,17c7.15,5.17,14.55,10,21.39,15.6,7.22,5.88,14.87,9.33,24.43,9.31Q568.86,825.16,700.85,825.29Z" transform="translate(80 -107)" fill="#fff"/><path d="M700.85,825.29q-132,0-264,.09c-9.56,0-17.21-3.43-24.43-9.31-6.84-5.56-14.24-10.43-21.39-15.6q-11.78-8.51-23.54-17c-11.2-8.05-22.43-16.05-33.61-24.11q-16.17-11.65-32.29-23.4c-3.92-2.84-7.9-5.63-11.75-8.58-4.62-3.56-5.3-6.06-3.56-11.71a42.26,42.26,0,0,0,1.66-5.75c2.48-15.52,5-31,7.24-46.58,1.7-11.7,2.15-23.66,4.84-35.1,2.16-9.23,2.57-18.45,3.74-27.69,1.38-10.93,3.94-21.71,6-32.55.23-1.23.4-2.47.59-3.7,2.24-14.41,4.6-28.8,6.67-43.23,1.72-12,2.15-24.23,5-35.93,2.25-9.45,2.11-19.09,4.18-28.36a191.29,191.29,0,0,0,3-20.65c1.13-10,3.16-19.91,4.76-29.87,2-12.58,3.91-25.17,6-37.73,1.89-11.4,4.1-22.75,5.92-34.16.79-4.92.82-10,1.47-14.9.45-3.41,1.38-6.77,2.12-10.14a14.83,14.83,0,0,0,.68-2.53c.39-10,2.17-19.76,4.07-29.57,2.62-13.57,4.38-27.3,6.52-41,1.39-8.85,3-17.67,4.16-26.55s4.52-12.27,13.58-12.27q74.25,0,148.49,0,197.61,0,395.22-.13c8.71,0,14.82,3.31,20.55,9.23,9.08,9.37,18.6,18.31,27.84,27.52,6.06,6.06,12.76,11.71,17.67,18.61,3.09,4.35,4.72,10.66,4.76,16.11.36,43.37.19,86.75.18,130.13q0,199.14,0,398.27a39.84,39.84,0,0,1-3.45,17.06,14.35,14.35,0,0,1-6,6.38c-5,2.61-10.21,4.8-16.29,4.78q-105-.24-210-.12H700.85ZM426.78,534.81h0q0,132.57,0,265.13c0,10.43.94,11.37,11.3,11.37l508.09,0c7.25,0,14.5,0,21.75,0,6.05,0,8-1.55,9.21-7.58a52.12,52.12,0,0,0,1-10q0-251.64-.06-503.27c0-7.37-.12-14.75-.53-22.11-.43-7.86-2.47-9.65-10.16-9.65q-265.67,0-531.33,0c-7,0-9.25,2.27-9.25,9.15ZM412,524.3h-.08q0-121.5,0-243c0-7.61.51-15.23.5-22.84a8.72,8.72,0,0,0-1.81-5.45c-3.47-3.9-7.3-7.48-11.1-11.07-5.16-4.86-10.25-9.84-15.75-14.29-1.41-1.14-4.6-1.21-6.35-.42-1.14.52-1.39,3.47-1.65,5.38-1.61,12-2.9,24-4.71,35.88-1.9,12.56-4.33,25-6.38,37.58-1.52,9.36-1.73,19.09-4.45,28.07-3.52,11.6-1.84,23.76-5.74,35.34-2.6,7.7-1.79,16.37-3.5,24.63-2,9.9-2.61,20.19-4.63,30.23-1.74,8.66-2.62,17.49-4,26.22-2.1,13-4.43,26-6.44,39.09-.73,4.67-.62,9.47-1.25,14.16-.83,6.14-2.05,12.22-3,18.35-.44,2.83-.52,5.71-.95,8.54-.9,6-1.94,12-2.87,18-.37,2.34-.46,4.73-.87,7.06-1.92,10.91-4.16,21.78-5.82,32.73-2.91,19.11-5.47,38.28-8.19,57.42-.11.74-.38,1.45-.5,2.19-.9,5.25-1.89,10.48-2.66,15.75-1.63,11.3-3.13,22.63-4.74,33.94-.15,1.1-.84,2.12-1,3.21a118.2,118.2,0,0,0-1.52,13.72,8,8,0,0,0,2.68,5.3c3.65,3.16,7.67,5.89,11.58,8.74q16.4,12,32.83,23.92,14.5,10.47,29.12,20.8c8.62,6.12,17.23,12.25,25.94,18.24,3.15,2.17,6.28.77,7-3a39.69,39.69,0,0,0,.34-6.73Q412,653.13,412,524.3Zm276.37-280H935.49c4.62,0,9.25.07,13.87-.1,4.1-.16,5.08-2.1,3-5.58a14.08,14.08,0,0,0-2.11-2.63q-8.64-8.58-17.32-17.12A15.71,15.71,0,0,0,920.45,214c-4.48.24-9,0-13.49,0l-496.47,0a39.09,39.09,0,0,0-7.11.24c-2.08.39-4,1.51-6,2.31,1,1.93,1.52,4.25,2.95,5.7,5,5.06,10.51,9.63,15.44,14.76,5.64,5.88,11.94,9,20.3,7.48,3-.55,6.23-.09,9.35-.09Z" transform="translate(80 -107)"/><path d="M426.78,534.81v-267c0-6.88,2.24-9.15,9.25-9.15q265.66,0,531.33,0c7.69,0,9.73,1.79,10.16,9.65.41,7.36.53,14.74.53,22.11q.09,251.64.06,503.27a52.12,52.12,0,0,1-1,10c-1.19,6-3.16,7.55-9.21,7.58-7.25,0-14.5,0-21.75,0l-508.09,0c-10.36,0-11.3-.94-11.3-11.37q0-132.56,0-265.13Zm501.68-3.36q0-99.77,0-199.53a125.7,125.7,0,0,0-.58-12.73,11.89,11.89,0,0,0-2-5c-4-6.14-9.81-7.83-17-7.82q-205.3.19-410.63.1c-1.87,0-3.75,0-5.62.15a15.61,15.61,0,0,0-13.92,14.45c-.12,3.12-.12,6.25-.12,9.37q0,179.08,0,358.18c0,17.25,0,34.5.11,51.75.08,8.78,6,14.89,14.7,15.52,3,.22,6,.4,9,.4q201.55,0,403.13,0c2.12,0,4.25-.23,6.37-.17,8.79.25,16.76-7.44,16.47-17.29-.49-16.61.11-33.25.12-49.87Q928.5,610.21,928.46,531.45Z" transform="translate(80 -107)" fill="#fff"/><path d="M412,524.3q0,128.82,0,257.63a39.69,39.69,0,0,1-.34,6.73c-.67,3.8-3.8,5.2-7,3-8.71-6-17.32-12.12-25.94-18.24q-14.59-10.37-29.12-20.8-16.47-11.89-32.83-23.92c-3.91-2.85-7.93-5.58-11.58-8.74a8,8,0,0,1-2.68-5.3A118.2,118.2,0,0,1,304.08,701c.15-1.09.84-2.11,1-3.21,1.61-11.31,3.11-22.64,4.74-33.94.77-5.27,1.76-10.5,2.66-15.75.12-.74.39-1.45.5-2.19,2.72-19.14,5.28-38.31,8.19-57.42,1.66-11,3.9-21.82,5.82-32.73.41-2.33.5-4.72.87-7.06.93-6,2-12,2.87-18,.43-2.83.51-5.71.95-8.54.95-6.13,2.17-12.21,3-18.35.63-4.69.52-9.49,1.25-14.16,2-13.05,4.34-26.05,6.44-39.09,1.41-8.73,2.29-17.56,4-26.22,2-10,2.59-20.33,4.63-30.23,1.71-8.26.9-16.93,3.5-24.63,3.9-11.58,2.22-23.74,5.74-35.34,2.72-9,2.93-18.71,4.45-28.07,2.05-12.54,4.48-25,6.38-37.58,1.81-11.92,3.1-23.92,4.71-35.88.26-1.91.51-4.86,1.65-5.38,1.75-.79,4.94-.72,6.35.42,5.5,4.45,10.59,9.43,15.75,14.29,3.8,3.59,7.63,7.17,11.1,11.07a8.72,8.72,0,0,1,1.81,5.45c0,7.61-.5,15.23-.5,22.84q-.07,121.51,0,243Z" transform="translate(80 -107)" fill="#fff"/><path d="M688.38,244.32h-243c-3.12,0-6.33-.46-9.35.09-8.36,1.53-14.66-1.6-20.3-7.48-4.93-5.13-10.44-9.7-15.44-14.76-1.43-1.45-2-3.77-2.95-5.7,2-.8,3.95-1.92,6-2.31a39.09,39.09,0,0,1,7.11-.24L907,214c4.5,0,9,.27,13.49,0a15.71,15.71,0,0,1,12.45,4.88q8.65,8.56,17.32,17.12a14.08,14.08,0,0,1,2.11,2.63c2.11,3.48,1.13,5.42-3,5.58-4.62.17-9.25.1-13.87.1Z" transform="translate(80 -107)" fill="#fff"/><path d="M928.46,531.45q0,78.75,0,157.52c0,16.62-.61,33.26-.12,49.87.29,9.85-7.68,17.54-16.47,17.29-2.12-.06-4.25.17-6.37.17q-201.57,0-403.13,0c-3,0-6-.18-9-.4-8.69-.63-14.62-6.74-14.7-15.52-.14-17.25-.11-34.5-.11-51.75q0-179.08,0-358.18c0-3.12,0-6.25.12-9.37a15.61,15.61,0,0,1,13.92-14.45c1.87-.15,3.75-.15,5.62-.15q205.32,0,410.63-.1c7.18,0,13,1.68,17,7.82a11.89,11.89,0,0,1,2,5,125.7,125.7,0,0,1,.58,12.73Q928.49,431.69,928.46,531.45Zm-14.64-.75V330.8c0-10-.08-10.11-10-10.11H502.62c-9,0-9.65.63-9.65,9.5q0,201.21-.05,402.42c0,7.37,1.64,9,9,9l402,0c1.25,0,2.51,0,3.75-.05,4.26-.32,5.77-1.82,6.07-6.06.11-1.5,0-3,0-4.5Q913.83,630.83,913.82,530.7Z" transform="translate(80 -107)"/><path d="M913.82,530.7q0,100.14,0,200.27c0,1.5.06,3,0,4.5-.3,4.24-1.81,5.74-6.07,6.06-1.24.1-2.5.05-3.75.05l-402,0c-7.39,0-9-1.64-9-9q0-201.21.05-402.42c0-8.87.66-9.5,9.65-9.5H903.86c9.88,0,10,.07,10,10.11Zm-394.84,4V656.53c0,15,0,30,.1,45a11.88,11.88,0,0,0,1.54,6.33c5.57,8.16,13.78,11.25,23.39,11.25H857.08c5.11,0,9.94-.41,14.94-2.4,7.67-3.06,12.31-7.65,12.74-16,.14-2.87.39-5.74.39-8.61q.08-157.48.08-315a65,65,0,0,0-.59-8.59,20.62,20.62,0,0,0-20.55-17.73l-321,0c-4.44,0-8.53.17-12.8,2.7-7.19,4.25-11.55,9-11.51,18.07C519.12,425.92,519,480.29,519,534.66Z" transform="translate(80 -107)" fill="#fff"/><path d="M519,534.66c0-54.37.14-108.74-.15-163.11,0-9.09,4.32-13.82,11.51-18.07,4.27-2.53,8.36-2.7,12.8-2.7l321,0a20.62,20.62,0,0,1,20.55,17.73,65,65,0,0,1,.59,8.59q0,157.49-.08,315c0,2.87-.25,5.74-.39,8.61-.43,8.39-5.07,13-12.74,16-5,2-9.83,2.4-14.94,2.4H544c-9.61,0-17.82-3.09-23.39-11.25a11.88,11.88,0,0,1-1.54-6.33c-.14-15-.1-30-.1-45Zm13.9.14V694.55c0,6,.64,7.13,5.9,8.9a17.64,17.64,0,0,0,5.55.48q79.13.06,158.24.05,78.93,0,157.86-.07c7,0,9.79-2.48,9.79-8.71q0-160.5-.05-321c0-5-1.74-7-6.66-7.73a24.49,24.49,0,0,0-3.74-.11H722.16l-179.23,0c-6.1,0-10.25,2-10.2,9.46C533,428.8,532.88,481.8,532.88,534.8Z" transform="translate(80 -107)"/><path d="M532.88,534.8c0-53,.14-106-.15-159-.05-7.48,4.1-9.46,10.2-9.46l179.23,0H859.77a24.49,24.49,0,0,1,3.74.11c4.92.75,6.66,2.76,6.66,7.73q0,160.5.05,321c0,6.23-2.79,8.7-9.79,8.71q-78.93,0-157.86.07-79.12,0-158.24-.05a17.64,17.64,0,0,1-5.55-.48c-5.26-1.77-5.9-2.92-5.9-8.9Zm32.68,14.81-1.08-.28a41.51,41.51,0,0,0-3.8,4.93c-1.15,2-1.61,4.49-2.85,6.47-4.34,7-1,14.33,3.5,20.25,4.74,6.22,11.77,9.37,18.27,13.18,2.75,1.61,5.66,3,8.55,4.33,3.32,1.58,7,2.59,10,4.69a148.25,148.25,0,0,1,17.65,14.08,30.92,30.92,0,0,1,9.19,21c.42,7.9-3.37,14.27-8.1,20.08-3.88,4.77-8.74,8.9-14.73,10-5.54,1.06-11.44.34-17.17.17-1.23,0-2.49-1-3.65-1.68-4.77-2.84-7.57-7.24-10.09-12.07-2-3.76-2.27-7.83.24-10.33s5.79-2.42,9.75.41a8.39,8.39,0,0,0,.92.64c2.54,1.34,7.84.93,8.78-.66,1.22-2.08.21-6.11-2-7.82-3.43-2.69-11-2.57-14.51.07A27.79,27.79,0,0,0,564,653.15c-.58,2.44.36,5.28.84,7.89a8.2,8.2,0,0,0,1.59,3.75c3,3.51,5.62,8.3,9.51,10,10.33,4.4,20.64,1.63,29.8-4a54.89,54.89,0,0,0,15.68-14.13c5.23-7.11,10.71-14,10.55-23.43-.08-4.36-.39-8.73-.25-13.09.17-5.51-2.84-9.71-5.58-13.91a39.12,39.12,0,0,0-18-14.94c-6.19-2.63-11.86-6.47-17.81-9.67-4.89-2.63-10.13-4.71-14.72-7.78-6.65-4.44-11.63-10.15-10.08-19.15A30,30,0,0,0,565.56,549.61ZM827.79,440.17c6.59,3.9,6.61,10.22,5.47,16.49A39.21,39.21,0,0,1,829,468.45a208.28,208.28,0,0,1-11.91,18.81,195.51,195.51,0,0,1-12.68,16.05c-9,10.34-18.31,20.46-27.49,30.68l-4.9,5.46a3.12,3.12,0,0,0,2.89-.37c4.63-3.94,9.39-7.77,13.78-12,8-7.63,16-15.25,23.52-23.35a299.71,299.71,0,0,0,20.56-24.47c4.78-6.42,8.3-13.76,12.54-20.58,3.58-5.78,2.63-12,2-18.16a2.73,2.73,0,0,0-1-1.51C842.68,435.88,832.09,436.38,827.79,440.17Zm-141,109.13c-.41-2.45-.4-5.06-1.3-7.31-1.88-4.7-4.2-9.23-6.4-13.79s-6.8-6.68-12.15-5.69c-4,.74-8.78,5.72-9,9.7-.15,3.3-1.16,4.67-4.82,4.25-1.75-.2-4.68,1-5.3,2.33-.71,1.53.19,4.16,1.07,6,1.55,3.2,3.72,6.09,5.42,9.23,3.28,6.08,6.39,12.25,9.61,18.36,3,5.57,5.85,11.16,9,16.59a4.7,4.7,0,0,0,3.62,2.14c1.14-.13,3-2,2.94-2.86a31,31,0,0,0-2.2-7.61c-1.13-3-3.07-5.82-3.51-8.88-.19-1.31,2.52-3,3.92-4.57C682.36,562.08,686.92,556.94,686.76,549.3Zm-26.87,29.89c-1.16-1.89-2.12-3.33-3-4.84-2.63-4.74-5.18-9.53-7.83-14.26-2.11-3.75-4.73-7.26-6.38-11.19-1.42-3.37-3.17-3.47-5.7-1.86-3,1.93-6.41,3.6-8.86,6.14-3.6,3.74-7.22,7.58-7.24,13.58,0,8.14-.44,16.35,4.51,23.33,5.65,8,11,12.11,19.62,4.38,1.16-1.05,1.05-3.5,1.53-5.31-1.39.35-3,.37-4.12,1.1a4.69,4.69,0,0,1-6.13-.31c-5.92-4.66-8.87-11.32-11.29-18-2.07-5.76-.48-11.31,4-15.77,1.86-1.84,5.38-1.89,7,.21,1.84,2.46,3.23,5.25,5,7.77,4,5.71,6.77,11.83,6.58,19a12.53,12.53,0,0,0,.45,2.73c1.73-1.25,3.93-3.57,4.58-3.2C657.13,585.26,657.87,581.22,659.89,579.19ZM792.58,421.92c-.08-.46-.16-.91-.25-1.36-1.38,0-3-.43-4.09.11-1.47.7-2.5,2.28-3.86,3.28-5.36,3.94-8.07,13.07-5.58,19.31a6.59,6.59,0,0,0,1.48,2.09c4.11,4.08,8.93,3.73,13.9,2.07,3.24-1.08,8.2.45,9.59,3,1.55,2.87.4,8-2.4,10-1.9,1.36-4.09,2.32-5.89,3.78a8,8,0,0,0-2.14,3.53c-.19.56.58,1.46.91,2.21,1-.52,2.07-1,3.08-1.58,5.4-3,9-7.51,11.93-12.92,2.47-4.59,1.64-10.52-3-15.28-2-2.11-6.16-1.95-10.43.38-4.75,2.6-13-2.13-13.21-7.57a2.3,2.3,0,0,1,.28-1.43c2.31-2.69,4.64-5.37,7.06-8A12.68,12.68,0,0,1,792.58,421.92ZM678.06,497.8c-6.28,3.27-6.84,5.58-2.85,10.68a14.77,14.77,0,0,1,1.11,1.94c2.79,5,5.66,9.89,8.37,14.9,3.51,6.48,6.77,13.09,10.42,19.48a6.05,6.05,0,0,0,4.27,2.7c.93,0,2.83-2.36,2.74-3.56a17.67,17.67,0,0,0-2.23-7.33c-4.43-7.78-8-15.82-9.67-24.67-.28-1.57-.57-3.27-2.75-2.32-2.94,1.27-3.6-.64-4.57-2.72C681.45,503.79,679.68,500.82,678.06,497.8Zm63.37-33.72-1.74-.72c-.89,1-1.85,1.87-2.66,2.89-2.12,2.68-3,6.77-7.75,6.4-.46,0-1.17,1.19-1.51,2-1.54,3.38-.74,6.52,1.08,9.58,4.59,7.72,9,15.54,13.77,23.18.83,1.34,2.74,2,4.15,3a22.45,22.45,0,0,0,2.53-4.13,4.66,4.66,0,0,0-.4-3.25c-3-6-5.82-12-9.2-17.7-2.59-4.37-2.82-10.9-.17-15.13C740.61,468.4,740.82,466.12,741.43,464.08Zm35.65,13.37a12.39,12.39,0,0,0-1.48,2.17c-.85,2.69-3,4.15-5.41,3.59s-5.19-1.87-6.35-3.75c-4.16-6.71-7.61-13.87-11.58-20.71a4.75,4.75,0,0,0-3.89-1.75c-1,.11-2.25,1.78-2.52,3a8,8,0,0,0,.44,4.73,75.37,75.37,0,0,0,4.5,8.46c3.16,5.33,6.48,10.56,9.65,15.88,2.12,3.56,6,4.46,9.45,1.87,2.16-1.65,4.07-3.62,6.19-5.33C778.71,483.44,778.36,481,777.08,477.45ZM692,507.62c5.3-5.58,9.16-5.57,12.84.15,3.94,6.14,7.73,12.38,11.26,18.76,1.25,2.25,2.86,3.65,4.91,2.51,1.26-.7,2-3.1,2.15-4.8.11-1.44-.87-3-1.57-4.46s-1.75-3-2.64-4.44c-3.21-5.25-6-10.81-9.72-15.67-5.11-6.69-5.6-6.78-12.5-2.52C692.6,499.69,688.89,503,692,507.62Zm77.8-68.7c-5.3,2.77-6.89,6-4.81,9.2,1.8,2.79,3.91,5.4,5.47,8.31a108.6,108.6,0,0,1,4.66,10.45c1.11,2.75,1.52,5.94,3.16,8.27,1,1.44,3.8,2.3,5.73,2.2a6,6,0,0,0,4.31-3.17c.67-1.52.58-4.53-.45-5.42-5.18-4.48-7.34-10.71-10.5-16.38C774.86,447.87,772.31,443.4,769.79,438.92Zm-57.67,48.66c1.57,2.35,2.86,4.1,4,6,2.9,5,5.67,10.09,8.58,15.1a101.47,101.47,0,0,0,5.65,9.05c1.76,2.4,4.41,1.59,5.74-.18.83-1.11.5-3.69-.2-5.2-1.29-2.79-3.33-5.21-4.88-7.89-3.69-6.39-7.29-12.83-10.88-19.27-.92-1.66-2-3.31-4-2C714.58,484.12,713.6,485.87,712.12,487.58ZM571,543.28c2.18.29,4,.2,5.44.8a10.68,10.68,0,0,1,4.26,3,89.87,89.87,0,0,1,5.12,7.88,54.55,54.55,0,0,0,4.61-3.89c3.31-3.6,1.59-10.34-3.09-10.65-5-.33-10,.82-15,1.38C572,541.83,571.76,542.43,571,543.28ZM712.79,473.1c-1.08-1.37-2.06-3.79-3.25-3.9-3.09-.29-4.06,2.28-4.2,5-.11,2.08.4,3.75,3,3.78C711.35,478,712.17,476.21,712.79,473.1Z" transform="translate(80 -107)" fill="#fff"/><path d="M565.56,549.61a30,30,0,0,1,0,5c-1.55,9,3.43,14.71,10.08,19.15,4.59,3.07,9.83,5.15,14.72,7.78,5.95,3.2,11.62,7,17.81,9.67a39.12,39.12,0,0,1,18,14.94c2.74,4.2,5.75,8.4,5.58,13.91-.14,4.36.17,8.73.25,13.09.16,9.47-5.32,16.32-10.55,23.43a54.89,54.89,0,0,1-15.68,14.13c-9.16,5.64-19.47,8.41-29.8,4-3.89-1.65-6.49-6.44-9.51-10a8.2,8.2,0,0,1-1.59-3.75c-.48-2.61-1.42-5.45-.84-7.89a27.79,27.79,0,0,1,10.4-16.06c3.47-2.64,11.08-2.76,14.51-.07,2.18,1.71,3.19,5.74,2,7.82-.94,1.59-6.24,2-8.78.66a8.39,8.39,0,0,1-.92-.64c-4-2.83-7.18-3-9.75-.41s-2.21,6.57-.24,10.33c2.52,4.83,5.32,9.23,10.09,12.07,1.16.69,2.42,1.65,3.65,1.68,5.73.17,11.63.89,17.17-.17,6-1.14,10.85-5.27,14.73-10,4.73-5.81,8.52-12.18,8.1-20.08a30.92,30.92,0,0,0-9.19-21,148.25,148.25,0,0,0-17.65-14.08c-3-2.1-6.66-3.11-10-4.69-2.89-1.38-5.8-2.72-8.55-4.33-6.5-3.81-13.53-7-18.27-13.18-4.51-5.92-7.84-13.29-3.5-20.25,1.24-2,1.7-4.43,2.85-6.47a41.51,41.51,0,0,1,3.8-4.93Z" transform="translate(80 -107)"/><path d="M827.79,440.17c4.3-3.79,14.89-4.29,18.59-1.14a2.73,2.73,0,0,1,1,1.51c.58,6.19,1.53,12.38-2,18.16-4.24,6.82-7.76,14.16-12.54,20.58a299.71,299.71,0,0,1-20.56,24.47c-7.5,8.1-15.53,15.72-23.52,23.35-4.39,4.21-9.15,8-13.78,12a3.12,3.12,0,0,1-2.89.37l4.9-5.46c9.18-10.22,18.46-20.34,27.49-30.68a195.51,195.51,0,0,0,12.68-16.05A208.28,208.28,0,0,0,829,468.45a39.21,39.21,0,0,0,4.25-11.79C834.4,450.39,834.38,444.07,827.79,440.17Z" transform="translate(80 -107)"/><path d="M686.76,549.3c.16,7.64-4.4,12.78-9,17.88-1.4,1.53-4.11,3.26-3.92,4.57.44,3.06,2.38,5.88,3.51,8.88a31,31,0,0,1,2.2,7.61c.1.91-1.8,2.73-2.94,2.86A4.7,4.7,0,0,1,673,589c-3.18-5.43-6.08-11-9-16.59-3.22-6.11-6.33-12.28-9.61-18.36-1.7-3.14-3.87-6-5.42-9.23-.88-1.83-1.78-4.46-1.07-6,.62-1.36,3.55-2.53,5.3-2.33,3.66.42,4.67-1,4.82-4.25.18-4,5-9,9-9.7,5.35-1,9.94,1.12,12.15,5.69s4.52,9.09,6.4,13.79C686.36,544.24,686.35,546.85,686.76,549.3ZM665.7,528.42c-1.6,1.66-3.66,3-4.45,4.83-.88,2.06-.74,4.61-.81,7a25.39,25.39,0,0,0,3.89,14.09c1.94,3.25,3.23,6.89,5.29,10.05.63.95,3,1.47,4.31,1.14,4.45-1.12,9.12-10,8.1-14.49a36.12,36.12,0,0,0-12.1-19.92A40.17,40.17,0,0,0,665.7,528.42Z" transform="translate(80 -107)"/><path d="M659.89,579.19c-2,2-2.76,6.07-7.26,3.47-.65-.37-2.85,2-4.58,3.2a12.53,12.53,0,0,1-.45-2.73c.19-7.17-2.55-13.29-6.58-19-1.78-2.52-3.17-5.31-5-7.77-1.57-2.1-5.09-2.05-7-.21-4.5,4.46-6.09,10-4,15.77,2.42,6.71,5.37,13.37,11.29,18a4.69,4.69,0,0,0,6.13.31c1.14-.73,2.73-.75,4.12-1.1-.48,1.81-.37,4.26-1.53,5.31-8.58,7.73-14,3.58-19.62-4.38-4.95-7-4.54-15.19-4.51-23.33,0-6,3.64-9.84,7.24-13.58C630.61,550.64,634,549,637,547c2.53-1.61,4.28-1.51,5.7,1.86,1.65,3.93,4.27,7.44,6.38,11.19,2.65,4.73,5.2,9.52,7.83,14.26C657.77,575.86,658.73,577.3,659.89,579.19Z" transform="translate(80 -107)"/><path d="M792.58,421.92a12.68,12.68,0,0,0-2.6,1.7c-2.42,2.59-4.75,5.27-7.06,8a2.3,2.3,0,0,0-.28,1.43c.2,5.44,8.46,10.17,13.21,7.57,4.27-2.33,8.39-2.49,10.43-.38,4.62,4.76,5.45,10.69,3,15.28-2.91,5.41-6.53,9.93-11.93,12.92-1,.56-2.05,1.06-3.08,1.58-.33-.75-1.1-1.65-.91-2.21a8,8,0,0,1,2.14-3.53c1.8-1.46,4-2.42,5.89-3.78,2.8-2,4-7.14,2.4-10-1.39-2.58-6.35-4.11-9.59-3-5,1.66-9.79,2-13.9-2.07a6.59,6.59,0,0,1-1.48-2.09c-2.49-6.24.22-15.37,5.58-19.31,1.36-1,2.39-2.58,3.86-3.28,1.13-.54,2.71-.11,4.09-.11C792.42,421,792.5,421.46,792.58,421.92Z" transform="translate(80 -107)"/><path d="M678.06,497.8c1.62,3,3.39,6,4.84,9.1,1,2.08,1.63,4,4.57,2.72,2.18-.95,2.47.75,2.75,2.32,1.62,8.85,5.24,16.89,9.67,24.67a17.67,17.67,0,0,1,2.23,7.33c.09,1.2-1.81,3.59-2.74,3.56a6.05,6.05,0,0,1-4.27-2.7c-3.65-6.39-6.91-13-10.42-19.48-2.71-5-5.58-9.93-8.37-14.9a14.77,14.77,0,0,0-1.11-1.94C671.22,503.38,671.78,501.07,678.06,497.8Z" transform="translate(80 -107)"/><path d="M741.43,464.08c-.61,2-.82,4.32-1.9,6.06-2.65,4.23-2.42,10.76.17,15.13,3.38,5.72,6.23,11.75,9.2,17.7a4.66,4.66,0,0,1,.4,3.25,22.45,22.45,0,0,1-2.53,4.13c-1.41-1-3.32-1.65-4.15-3-4.73-7.64-9.18-15.46-13.77-23.18-1.82-3.06-2.62-6.2-1.08-9.58.34-.76,1.05-2,1.51-2,4.73.37,5.63-3.72,7.75-6.4.81-1,1.77-1.93,2.66-2.89Z" transform="translate(80 -107)"/><path d="M777.08,477.45c1.28,3.53,1.63,6-1,8.12-2.12,1.71-4,3.68-6.19,5.33-3.4,2.59-7.33,1.69-9.45-1.87-3.17-5.32-6.49-10.55-9.65-15.88a75.37,75.37,0,0,1-4.5-8.46,8,8,0,0,1-.44-4.73c.27-1.18,1.54-2.85,2.52-3a4.75,4.75,0,0,1,3.89,1.75c4,6.84,7.42,14,11.58,20.71,1.16,1.88,4,3.2,6.35,3.75s4.56-.9,5.41-3.59A12.39,12.39,0,0,1,777.08,477.45Z" transform="translate(80 -107)"/><path d="M692,507.62c-3.1-4.58.61-7.93,4.73-10.47,6.9-4.26,7.39-4.17,12.5,2.52,3.71,4.86,6.51,10.42,9.72,15.67.89,1.47,1.88,2.9,2.64,4.44s1.68,3,1.57,4.46c-.14,1.7-.89,4.1-2.15,4.8-2,1.14-3.66-.26-4.91-2.51-3.53-6.38-7.32-12.62-11.26-18.76C701.15,502.05,697.29,502,692,507.62Z" transform="translate(80 -107)"/><path d="M769.79,438.92c2.52,4.48,5.07,8.95,7.57,13.46,3.16,5.67,5.32,11.9,10.5,16.38,1,.89,1.12,3.9.45,5.42a6,6,0,0,1-4.31,3.17c-1.93.1-4.71-.76-5.73-2.2-1.64-2.33-2-5.52-3.16-8.27a108.6,108.6,0,0,0-4.66-10.45c-1.56-2.91-3.67-5.52-5.47-8.31C762.9,444.9,764.49,441.69,769.79,438.92Z" transform="translate(80 -107)"/><path d="M712.12,487.58c1.48-1.71,2.46-3.46,4-4.44,2-1.29,3.08.36,4,2,3.59,6.44,7.19,12.88,10.88,19.27,1.55,2.68,3.59,5.1,4.88,7.89.7,1.51,1,4.09.2,5.2-1.33,1.77-4,2.58-5.74.18a101.47,101.47,0,0,1-5.65-9.05c-2.91-5-5.68-10.09-8.58-15.1C715,491.68,713.69,489.93,712.12,487.58Z" transform="translate(80 -107)"/><path d="M571,543.28c.74-.85,1-1.45,1.33-1.49,5-.56,10.06-1.71,15-1.38,4.68.31,6.4,7.05,3.09,10.65a54.55,54.55,0,0,1-4.61,3.89,89.87,89.87,0,0,0-5.12-7.88,10.68,10.68,0,0,0-4.26-3C575,543.48,573.2,543.57,571,543.28Z" transform="translate(80 -107)"/><path d="M712.79,473.1c-.62,3.11-1.44,4.92-4.46,4.88-2.59,0-3.1-1.7-3-3.78.14-2.72,1.11-5.29,4.2-5C710.73,469.31,711.71,471.73,712.79,473.1Z" transform="translate(80 -107)"/><path d="M665.7,528.42a40.17,40.17,0,0,1,4.23,2.66A36.12,36.12,0,0,1,682,551c1,4.54-3.65,13.37-8.1,14.49-1.31.33-3.68-.19-4.31-1.14-2.06-3.16-3.35-6.8-5.29-10.05a25.39,25.39,0,0,1-3.89-14.09c.07-2.35-.07-4.9.81-7C662,531.4,664.1,530.08,665.7,528.42Z" transform="translate(80 -107)" fill="#fff"/></svg>