<svg id="Layer_1" data-name="Layer 1" xmlns="http://www.w3.org/2000/svg" viewBox="505 63 414 731"><title>icono difusor premium</title><path d="M1360,917H-80V107H1360ZM567.12,487.74l-1.34.13a26.34,26.34,0,0,1-.84-3.88c-.31-4.74-.75-9.48-.69-14.22q1-82.49,2.23-165c.32-20.74,1-41.48,1.57-62.22.15-5.65.57-6.09,6-6.09q89.44,0,178.88,0c6.36,0,7.06.73,7.05,7.12q-.22,113.26-.43,226.51c0,38.5.3,77,.35,115.51q.11,93.38.05,186.76c0,8.12-.84,8.92-9.06,8.92H632.37c-10.11,0-10.17-.06-10.18-10.25l-.09-143.64c0-7.49-1.22-9.18-8.34-11.75a9.53,9.53,0,0,1-2.61-1.4c-4.66-3.56-10.29-2.27-15.48-3.07a2.27,2.27,0,0,0-1.83,1.09c-1.64,3.6-4.86,3.83-8.15,4.19a25.72,25.72,0,0,0-4.29,1.22c-2.92.87-5.83,2.44-8.76,2.49-13.12.25-26.28.55-39.36-.2-5.6-.33-11.08-3.13-16.56-5-.8-.27-1.41-1.39-1.89-2.24-1.1-1.95-2.42-2.21-4.65-1.67-5.24,1.29-10.46,1.86-15.54,4.5-5.52,2.87-9.11,6-9.08,12.24q.38,86.64,0,173.27c0,5.84,2.14,10,6,13.77A34.54,34.54,0,0,0,506,823.72c6.25,1.85,12.1,5.31,18.42,6.6,8.87,1.82,18,2.34,27.06,3.31,8.8,1,17.34-1.16,26-2.3,5.3-.7,10.71-.41,15.53-3.43,1.18-.74,2.9-.59,4.36-.91a12.8,12.8,0,0,0,3.54-1c4-2.28,7.86-4.63,11.68-7.11,5.92-3.85,10-8.6,9.68-16.43-.34-8.55,0-8.59,8.64-8.59q64.5,0,129,0a29.35,29.35,0,0,0,6.7-.53,6.62,6.62,0,0,0,3.44-2.43c5.31-7.16,10.3-14.55,15.74-21.59,3.9-5,7.34-10,6.39-16.86a33.77,33.77,0,0,1,0-4.5c-.06-64.87-.25-129.74-.14-194.6.11-60.51.52-121,.82-181.51.08-16.87.3-33.75.37-50.62q.24-56.62.36-113.25c0-4.74-2.53-7.12-7.23-7.12q-98.07,0-196.14.08a14.9,14.9,0,0,0-9.06,3.56c-5.8,5.21-10.86,11.24-16.42,16.74a17,17,0,0,0-5.33,13.3c.2,9.24-.19,18.5-.42,27.74-1,40.23-2.39,80.46-2.94,120.69-.63,46.25-.5,92.51-.76,138.76,0,3.63-.48,7.26-.73,10.89h-1.08c-.71-4.37-.72-9-2.29-13-3.18-8.19-3.12-16.61-3.45-25.09-.26-6.48-.75-12.95-1.39-19.41-.71-7.19-1.82-14.34-2.54-21.53-.61-6.08-.11-12.39-1.49-18.26-2.33-9.86-2.65-19.77-2.89-29.77-.11-4.35-.66-8.7-1.14-13-.87-7.8-2-15.57-2.75-23.38-.59-6-.73-12-1.27-17.93-.93-10.42-2-20.84-3.06-31.25-.48-4.59-1.09-9.16-1.71-13.73-.66-5-1.47-9.87-2.08-14.82-.26-2.1,0-4.26-.3-6.37-.33-2.76-.69-5.75-4.6-5.53-3.57.19-3.55,3.12-3.68,5.51a53.69,53.69,0,0,0,.23,9.74c1,7.79,2.51,15.51,3.31,23.32.84,8.19.15,16.63,1.8,24.62,2.19,10.65,2.55,21.28,2.91,32,.17,5.09,1.1,10.16,1.78,15.22.53,4,1.45,7.88,1.75,11.85.61,8.09,0,16.39,1.59,24.25,2.2,10.77,2.83,21.51,3.12,32.39a76.24,76.24,0,0,0,1.74,14.85,86.79,86.79,0,0,1,1.72,28.68,32.83,32.83,0,0,1-.91,4l-1.14-.06c-.34-2.16-.63-4.32-1-6.46q-2.65-15-5.36-30.05c-.09-.48-.38-.93-.49-1.41-.9-4-1.87-7.95-2.64-12-.57-2.92-.73-5.92-1.32-8.84-.86-4.23-2.06-8.38-2.89-12.61-1.85-9.36-3.55-18.76-5.33-28.14,0-.24-.2-.46-.25-.7-.91-4.24-1.69-8.5-2.74-12.7a51.65,51.65,0,0,0-3.07-9.5c-.56-1.18-2.66-1.64-4.06-2.43-.78,1.52-2.21,3-2.23,4.56a55.91,55.91,0,0,0,1,10.05c1.59,9.41,3.32,18.8,5,28.19.09.49.4.93.51,1.41.92,4,1.94,7.93,2.71,11.93,1.74,9.11,3.36,18.25,5,27.37.09.48.42.92.52,1.4.94,4.49,1.81,9,2.81,13.46a69.3,69.3,0,0,0,2.28,8.54,20.71,20.71,0,0,1-.23,15.75,10.44,10.44,0,0,1-1.47-4c-.45-2.57,0-5.74-1.42-7.6-2.58-3.5-3-7.27-3.47-11.24a21,21,0,0,0-1.09-4.32c-2.18-6.41-4.43-12.79-6.63-19.2-.16-.46-.05-1-.17-1.48q-2.49-10.06-5-20.11c-.12-.47-.53-.86-.69-1.32-.89-2.54-1.86-5.06-2.56-7.65-1.84-6.8-3.55-13.63-5.34-20.44-.12-.46-.56-.84-.73-1.3a59.36,59.36,0,0,1-2.11-5.91c-1.83-6.9-3.54-13.83-5.31-20.75-.06-.24-.25-.44-.32-.67q-1.54-4.73-3.07-9.44c-.49-1.53-.93-3.08-1.41-4.62-.8-2.59-1.65-5.16-2.41-7.77-.51-1.78-.84-3.63-1.36-5.41-.93-3.19-1.82-6.4-3-9.51a42.27,42.27,0,0,0-3.53-7.59,3.77,3.77,0,0,0-3.35-1.4,3.86,3.86,0,0,0-2.07,3.09c.63,5.27,1.54,10.52,2.56,15.74.43,2.17,1.48,4.21,2.05,6.36,1.67,6.32,3.23,12.66,4.85,19,.12.47.43.9.59,1.37,1,3.15,2.06,6.3,3.1,9.45.58,1.76,1.25,3.51,1.78,5.29,2.14,7.07,4.33,14.12,6.32,21.22,1.87,6.66,3.52,13.37,5.27,20.06,0,.12.12.22.16.34q3.36,10.16,6.7,20.3c.07.24,0,.51.1.75q2.46,10.26,5,20.51c.08.36.32.68.43,1,1.07,3.28,2,6.63,3.22,9.83,2.24,5.68,4.42,11.35,4.67,17.55,0,.35.3.68.42,1,1,3.28,2.12,6.54,3.06,9.85,1.66,5.84,3.19,11.71,4.83,17.55.2.7.82,1.27,1.08,2,.78,2.06,1.56,4.14,2.18,6.25,1,3.53,1.57,7.27,3,10.62,2.82,6.55.73,10.89-6.22,11.35-3.72.25-5,1.9-5,5.44.09,11.25,0,22.5,0,33.75,0,5.68,3.59,10.18,9.34,10.28,18,.31,36,.28,54,.16,4.16,0,7.47-3.77,7.51-7.93.1-11.5.15-23,0-34.5-.07-5.43-1.14-6.36-6.57-7.14-6-.86-7.65-4.94-4.74-10.27a109.76,109.76,0,0,0,6.25-14.51c2-5.53,3.6-11.25,5.58-16.81,2.53-7.06,5.27-14.05,7.93-21.06.22-.59.5-1.15.75-1.72,2.13-4.85,4.45-9.64,6.33-14.59,2-5.3,3.61-10.76,5.4-16.14.2-.59.54-1.12.78-1.7,2.14-5.1,4.44-10.13,6.35-15.32,2-5.42,3.58-11,5.42-16.49.27-.8,1-1.43,1.37-2.21.71-1.57,1.34-3.17,1.93-4.79,1.84-5,3.55-10,5.47-15,2.14-5.5,4.62-10.87,6.66-16.41,1.9-5.21,3.37-10.56,5.14-15.82.3-.9,1.2-1.58,1.67-2.44a21.11,21.11,0,0,0,1.52-3.36c1.76-5.25,3.43-10.54,5.2-15.78,1.62-4.79,3.46-9.51,4.86-14.35a3.87,3.87,0,0,0-1.56-3.46c-1.17-.47-3.52-.23-4.14.62a42.61,42.61,0,0,0-4.21,7.79c-.77,1.68-1.08,3.57-1.81,5.28-2,4.86-4.38,9.6-6.26,14.51-2,5.3-3.54,10.79-5.45,16.13-2.57,7.2-5.31,14.34-8,21.51-.22.58-.46,1.15-.71,1.72-2.23,5.33-4.63,10.6-6.66,16-1.94,5.15-3.47,10.45-5.26,15.65a26.17,26.17,0,0,1-1.55,2.54c-.64,1.32-1.17,2.71-1.7,4.09-.83,2.18-1.55,4.4-2.43,6.55-1.87,4.56-4,9-5.69,13.65-1.94,5.32-3.51,10.78-5.26,16.17a10.67,10.67,0,0,1-.57,1c-1.12,2.55-2.26,5.1-3.33,7.67-.39.93-.61,1.93-.91,2.9l-1.53-.19c.19-3.49-.61-7.49.83-10.34,2.09-4.14,2.3-8.31,2.91-12.59a43.52,43.52,0,0,1,1.61-5.72c.69-2.36,1.5-4.68,2.06-7.07,1.86-7.93,3.61-15.88,5.43-23.82.11-.48.49-.89.62-1.36.76-2.73,1.59-5.45,2.19-8.21,1.84-8.34,3.58-16.7,5.39-25,.1-.48.47-.89.62-1.36.78-2.61,1.67-5.19,2.28-7.83,1.87-8.21,3.61-16.44,5.43-24.65.11-.48.49-.89.62-1.36q3.21-12.19,6.38-24.39c.06-.23,0-.5,0-.74q2.81-12.68,5.64-25.33c.11-.47.5-.87.64-1.35,2-7.14,4-14.27,6-21.43.25-.94,0-2,.14-3,.52-2.81.52-5.94,1.86-8.32,2.76-4.93,2.37-10.13,2.39-15.32,0-2.71-1.73-3.62-4.36-3.12s-3.45,2.46-4,4.8c-1.12,4.93-2.41,9.82-3.6,14.74-.29,1.21-.41,2.46-.7,3.67-.93,3.83-2,7.65-2.86,11.48-1.84,7.81-3.68,15.62-5.42,23.45-.57,2.55-.73,5.19-1.29,7.75-1,4.46-1.56,9.13-3.34,13.27-2.76,6.41-3.83,13-4.51,19.84a10.34,10.34,0,0,1-.65,1.75c-.91,3.07-1.94,6.11-2.67,9.22-1.75,7.45-3.35,14.93-5,22.4-.11.48-.43.9-.58,1.38-.88,2.94-1.92,5.85-2.59,8.84-1.76,8-3.35,16-5,24-.1.48-.44.91-.57,1.39-.94,3.31-2,6.6-2.77,9.95-1.76,7.59-3.39,15.21-5.11,22.81-.13.59-.65,1.08-.83,1.66-.78,2.48-1.65,4.93-2.2,7.46-1.78,8.09-2.64,16.5-5.44,24.21A49.45,49.45,0,0,0,576.1,510c-.09,1.6-1,3.15-1.58,4.72l-1.4-.27a30,30,0,0,1-.57-4.18,100.21,100.21,0,0,1,2.74-22.51c2.31-10.11,2.84-20.65,5.33-30.84,1.68-6.86,2.74-13.88,3.76-20.88,1.82-12.43,3.34-24.9,5.09-37.33.42-2.95,1.33-5.83,1.9-8.76.36-1.82,1.14-3.91.59-5.46a6.57,6.57,0,0,0-4-3.43c-.79-.23-3,1.68-3.27,2.91-1.68,7.76-3,15.6-4.45,23.41-.29,1.59-.69,3.17-1,4.76-.95,5.11-1.94,10.21-2.8,15.34-.74,4.41-1.27,8.86-2,13.28-.6,3.67-1.44,7.31-2,11-.68,4.3-1.11,8.64-1.83,12.94-.69,4.15-1.74,8.25-2.39,12.41C567.68,480.6,567.48,484.18,567.12,487.74Z" transform="translate(80 -107)" fill="#fff"/><path d="M567.12,487.74c.36-3.56.56-7.14,1.1-10.66.65-4.16,1.7-8.26,2.39-12.41.72-4.3,1.15-8.64,1.83-12.94.59-3.67,1.43-7.31,2-11,.73-4.42,1.26-8.87,2-13.28.86-5.13,1.85-10.23,2.8-15.34.29-1.59.69-3.17,1-4.76,1.46-7.81,2.77-15.65,4.45-23.41.27-1.23,2.48-3.14,3.27-2.91a6.57,6.57,0,0,1,4,3.43c.55,1.55-.23,3.64-.59,5.46-.57,2.93-1.48,5.81-1.9,8.76-1.75,12.43-3.27,24.9-5.09,37.33-1,7-2.08,14-3.76,20.88-2.49,10.19-3,20.73-5.33,30.84a100.21,100.21,0,0,0-2.74,22.51,30,30,0,0,0,.57,4.18l1.4.27c.55-1.57,1.49-3.12,1.58-4.72a49.45,49.45,0,0,1,3.22-14.35c2.8-7.71,3.66-16.12,5.44-24.21.55-2.53,1.42-5,2.2-7.46.18-.58.7-1.07.83-1.66,1.72-7.6,3.35-15.22,5.11-22.81.78-3.35,1.83-6.64,2.77-9.95.13-.48.47-.91.57-1.39,1.68-8,3.27-16,5-24,.67-3,1.71-5.9,2.59-8.84.15-.48.47-.9.58-1.38,1.68-7.47,3.28-14.95,5-22.4.73-3.11,1.76-6.15,2.67-9.22a10.34,10.34,0,0,0,.65-1.75c.68-6.8,1.75-13.43,4.51-19.84,1.78-4.14,2.35-8.81,3.34-13.27.56-2.56.72-5.2,1.29-7.75,1.74-7.83,3.58-15.64,5.42-23.45.91-3.83,1.93-7.65,2.86-11.48.29-1.21.41-2.46.7-3.67,1.19-4.92,2.48-9.81,3.6-14.74.53-2.34,1.27-4.28,4-4.8s4.36.41,4.36,3.12c0,5.19.37,10.39-2.39,15.32-1.34,2.38-1.34,5.51-1.86,8.32-.18,1,.11,2.05-.14,3-1.94,7.16-4,14.29-6,21.43-.14.48-.53.88-.64,1.35q-2.85,12.66-5.64,25.33c-.05.24,0,.51,0,.74q-3.18,12.19-6.38,24.39c-.13.47-.51.88-.62,1.36-1.82,8.21-3.56,16.44-5.43,24.65-.61,2.64-1.5,5.22-2.28,7.83-.15.47-.52.88-.62,1.36-1.81,8.34-3.55,16.7-5.39,25-.6,2.76-1.43,5.48-2.19,8.21-.13.47-.51.88-.62,1.36-1.82,7.94-3.57,15.89-5.43,23.82-.56,2.39-1.37,4.71-2.06,7.07a43.52,43.52,0,0,0-1.61,5.72c-.61,4.28-.82,8.45-2.91,12.59-1.44,2.85-.64,6.85-.83,10.34l1.53.19c.3-1,.52-2,.91-2.9,1.07-2.57,2.21-5.12,3.33-7.67a10.67,10.67,0,0,0,.57-1c1.75-5.39,3.32-10.85,5.26-16.17,1.69-4.62,3.82-9.09,5.69-13.65.88-2.15,1.6-4.37,2.43-6.55.53-1.38,1.06-2.77,1.7-4.09a26.17,26.17,0,0,0,1.55-2.54c1.79-5.2,3.32-10.5,5.26-15.65,2-5.4,4.43-10.67,6.66-16,.25-.57.49-1.14.71-1.72,2.68-7.17,5.42-14.31,8-21.51,1.91-5.34,3.44-10.83,5.45-16.13,1.88-4.91,4.22-9.65,6.26-14.51.73-1.71,1-3.6,1.81-5.28a42.61,42.61,0,0,1,4.21-7.79c.62-.85,3-1.09,4.14-.62a3.87,3.87,0,0,1,1.56,3.46c-1.4,4.84-3.24,9.56-4.86,14.35-1.77,5.24-3.44,10.53-5.2,15.78a21.11,21.11,0,0,1-1.52,3.36c-.47.86-1.37,1.54-1.67,2.44-1.77,5.26-3.24,10.61-5.14,15.82-2,5.54-4.52,10.91-6.66,16.41-1.92,5-3.63,10-5.47,15-.59,1.62-1.22,3.22-1.93,4.79-.35.78-1.1,1.41-1.37,2.21-1.84,5.49-3.42,11.07-5.42,16.49-1.91,5.19-4.21,10.22-6.35,15.32-.24.58-.58,1.11-.78,1.7-1.79,5.38-3.39,10.84-5.4,16.14-1.88,4.95-4.2,9.74-6.33,14.59-.25.57-.53,1.13-.75,1.72-2.66,7-5.4,14-7.93,21.06-2,5.56-3.53,11.28-5.58,16.81a109.76,109.76,0,0,1-6.25,14.51c-2.91,5.33-1.27,9.41,4.74,10.27,5.43.78,6.5,1.71,6.57,7.14.13,11.49.08,23,0,34.5,0,4.16-3.35,7.9-7.51,7.93-18,.12-36,.15-54-.16-5.75-.1-9.34-4.6-9.34-10.28,0-11.25.08-22.5,0-33.75,0-3.54,1.25-5.19,5-5.44,7-.46,9-4.8,6.22-11.35-1.45-3.35-2-7.09-3-10.62-.62-2.11-1.4-4.19-2.18-6.25-.26-.69-.88-1.26-1.08-2-1.64-5.84-3.17-11.71-4.83-17.55-.94-3.31-2-6.57-3.06-9.85-.12-.36-.41-.69-.42-1-.25-6.2-2.43-11.87-4.67-17.55-1.26-3.2-2.15-6.55-3.22-9.83-.11-.35-.35-.67-.43-1q-2.5-10.26-5-20.51c-.06-.24,0-.51-.1-.75q-3.34-10.15-6.7-20.3c0-.12-.13-.22-.16-.34-1.75-6.69-3.4-13.4-5.27-20.06-2-7.1-4.18-14.15-6.32-21.22-.53-1.78-1.2-3.53-1.78-5.29-1-3.15-2.06-6.3-3.1-9.45-.16-.47-.47-.9-.59-1.37-1.62-6.33-3.18-12.67-4.85-19-.57-2.15-1.62-4.19-2.05-6.36-1-5.22-1.93-10.47-2.56-15.74a3.86,3.86,0,0,1,2.07-3.09,3.77,3.77,0,0,1,3.35,1.4,42.27,42.27,0,0,1,3.53,7.59c1.15,3.11,2,6.32,3,9.51.52,1.78.85,3.63,1.36,5.41.76,2.61,1.61,5.18,2.41,7.77.48,1.54.92,3.09,1.41,4.62q1.51,4.73,3.07,9.44c.07.23.26.43.32.67,1.77,6.92,3.48,13.85,5.31,20.75a59.36,59.36,0,0,0,2.11,5.91c.17.46.61.84.73,1.3,1.79,6.81,3.5,13.64,5.34,20.44.7,2.59,1.67,5.11,2.56,7.65.16.46.57.85.69,1.32q2.55,10,5,20.11c.12.48,0,1,.17,1.48,2.2,6.41,4.45,12.79,6.63,19.2a21,21,0,0,1,1.09,4.32c.45,4,.89,7.74,3.47,11.24,1.37,1.86,1,5,1.42,7.6a10.44,10.44,0,0,0,1.47,4,20.71,20.71,0,0,0,.23-15.75,69.3,69.3,0,0,1-2.28-8.54c-1-4.47-1.87-9-2.81-13.46-.1-.48-.43-.92-.52-1.4-1.68-9.12-3.3-18.26-5-27.37-.77-4-1.79-8-2.71-11.93-.11-.48-.42-.92-.51-1.41-1.69-9.39-3.42-18.78-5-28.19a55.91,55.91,0,0,1-1-10.05c0-1.53,1.45-3,2.23-4.56,1.4.79,3.5,1.25,4.06,2.43a51.65,51.65,0,0,1,3.07,9.5c1,4.2,1.83,8.46,2.74,12.7.05.24.21.46.25.7,1.78,9.38,3.48,18.78,5.33,28.14.83,4.23,2,8.38,2.89,12.61.59,2.92.75,5.92,1.32,8.84.77,4,1.74,8,2.64,12,.11.48.4.93.49,1.41q2.7,15,5.36,30.05c.38,2.14.67,4.3,1,6.46l1.14.06a32.83,32.83,0,0,0,.91-4,86.79,86.79,0,0,0-1.72-28.68,76.24,76.24,0,0,1-1.74-14.85c-.29-10.88-.92-21.62-3.12-32.39-1.61-7.86-1-16.16-1.59-24.25-.3-4-1.22-7.89-1.75-11.85-.68-5.06-1.61-10.13-1.78-15.22-.36-10.74-.72-21.37-2.91-32-1.65-8-1-16.43-1.8-24.62-.8-7.81-2.33-15.53-3.31-23.32a53.69,53.69,0,0,1-.23-9.74c.13-2.39.11-5.32,3.68-5.51,3.91-.22,4.27,2.77,4.6,5.53.25,2.11,0,4.27.3,6.37.61,5,1.42,9.87,2.08,14.82.62,4.57,1.23,9.14,1.71,13.73,1.07,10.41,2.13,20.83,3.06,31.25.54,6,.68,12,1.27,17.93.78,7.81,1.88,15.58,2.75,23.38.48,4.34,1,8.69,1.14,13,.24,10,.56,19.91,2.89,29.77,1.38,5.87.88,12.18,1.49,18.26.72,7.19,1.83,14.34,2.54,21.53.64,6.46,1.13,12.93,1.39,19.41.33,8.48.27,16.9,3.45,25.09,1.57,4,1.58,8.67,2.29,13h1.08c.25-3.63.71-7.26.73-10.89.26-46.25.13-92.51.76-138.76.55-40.23,2-80.46,2.94-120.69.23-9.24.62-18.5.42-27.74a17,17,0,0,1,5.33-13.3c5.56-5.5,10.62-11.53,16.42-16.74a14.9,14.9,0,0,1,9.06-3.56q98.07-.27,196.14-.08c4.7,0,7.24,2.38,7.23,7.12q-.11,56.63-.36,113.25c-.07,16.87-.29,33.75-.37,50.62-.3,60.5-.71,121-.82,181.51-.11,64.86.08,129.73.14,194.6a33.77,33.77,0,0,0,0,4.5c1,6.81-2.49,11.81-6.39,16.86-5.44,7-10.43,14.43-15.74,21.59a6.62,6.62,0,0,1-3.44,2.43,29.35,29.35,0,0,1-6.7.53q-64.5,0-129,0c-8.6,0-9,0-8.64,8.59.3,7.83-3.76,12.58-9.68,16.43-3.82,2.48-7.73,4.83-11.68,7.11a12.8,12.8,0,0,1-3.54,1c-1.46.32-3.18.17-4.36.91-4.82,3-10.23,2.73-15.53,3.43-8.64,1.14-17.18,3.25-26,2.3-9-1-18.19-1.49-27.06-3.31-6.32-1.29-12.17-4.75-18.42-6.6a34.54,34.54,0,0,1-14.42-8.83c-3.87-3.77-6-7.93-6-13.77q.3-86.64,0-173.27c0-6.22,3.56-9.37,9.08-12.24,5.08-2.64,10.3-3.21,15.54-4.5,2.23-.54,3.55-.28,4.65,1.67.48.85,1.09,2,1.89,2.24,5.48,1.84,11,4.64,16.56,5,13.08.75,26.24.45,39.36.2,2.93-.05,5.84-1.62,8.76-2.49a25.72,25.72,0,0,1,4.29-1.22c3.29-.36,6.51-.59,8.15-4.19a2.27,2.27,0,0,1,1.83-1.09c5.19.8,10.82-.49,15.48,3.07a9.53,9.53,0,0,0,2.61,1.4c7.12,2.57,8.34,4.26,8.34,11.75l.09,143.64c0,10.19.07,10.25,10.18,10.25H750.88c8.22,0,9.06-.8,9.06-8.92q0-93.37-.05-186.76c0-38.51-.38-77-.35-115.51q.09-113.25.43-226.51c0-6.39-.69-7.12-7.05-7.12q-89.43,0-178.88,0c-5.42,0-5.84.44-6,6.09-.54,20.74-1.25,41.48-1.57,62.22q-1.28,82.49-2.23,165c-.06,4.74.38,9.48.69,14.22a26.34,26.34,0,0,0,.84,3.88ZM494.27,715.28h0q0,42.56,0,85.11c0,3,.5,5.72,2.92,7.74,5.71,4.77,11.67,9.07,19.22,10.51,1.09.21,2.11.73,3.19,1,3.91,1,7.79,2.25,11.76,2.93a71.49,71.49,0,0,0,12.28,1.15c10.07,0,20.15-.32,30.21-.7,5.85-.22,11.51-1,16.85-4.1,3.63-2.11,8.44-2.21,12.08-4.3,6.21-3.57,11.1-7.88,11.06-16.55q-.42-82.68.14-165.34c0-6.32-2.79-9.12-7.5-11.17-3.36-1.46-6.93-1.93-10.16,1-1.12,1-2.86,1.39-4.36,1.93s-3.33,1-5,1.53c-3.15.91-6.29,2.52-9.46,2.57-15.86.25-31.75.57-47.58-.16-6-.28-11.78-3.3-17.66-5.09a2.48,2.48,0,0,1-.85-.72c-3.29-3.45-7.37-2.54-10.8-1s-6.47,3.8-6.42,8.94C494.42,658.79,494.27,687,494.27,715.28ZM781.76,225.09c-7.9,3.87-11.3,8.52-11.29,16.83q.35,256.16.18,512.29a62.51,62.51,0,0,0,.21,7.12c.13,1.12,1,2.15,1.6,3.39,7.18-6.52,7.82-7.66,7.84-16.2.05-16.86-.11-33.72,0-50.58.06-12.25.41-24.49.54-36.74.28-27.13.69-54.25.69-81.37,0-49.87-.36-99.74-.39-149.61,0-27,.36-54,.53-81q.36-57.57.66-115.13C782.31,231.32,782,228.54,781.76,225.09Zm-200.94-2c3.54.37,6.24.9,8.95.9,55.48.05,111,0,166.44.15,5.23,0,8.47-2.43,11.38-5.92.94-1.12,1-3,1.49-4.46a26.54,26.54,0,0,0-4.1-1.19,35.9,35.9,0,0,0-4.87-.1l-121.83,0c-14.5,0-29,0-43.49.06-1.55,0-3.52.09-4.56,1C587.26,216.09,584.67,219.11,580.82,223.11ZM552.35,567.44v0c-3.75,0-7.58-.5-11.22.13a71.76,71.76,0,0,0-12.34,3.81,3.49,3.49,0,0,0-1.55,2.72q-.15,12.17,0,24.33c0,3.49,2.18,5,5.55,5.28,3.61.24,7.2.77,10.81.94,5.46.25,10.93.55,16.39.38,5.09-.16,10.15-1.16,15.24-1.3,3.86-.11,5.42-1.75,5.41-5.43,0-7.87,0-15.74,0-23.6,0-2.65-1.32-3.73-3.87-4a41.32,41.32,0,0,1-5.72-1.45c-2.38-.61-4.74-1.55-7.15-1.74C560.11,567.23,556.22,567.44,552.35,567.44Zm19.33-50.77L570,516.6v10.65l.94,0C571.19,523.74,571.44,520.2,571.68,516.67Z" transform="translate(80 -107)"/><path d="M494.27,715.28c0-28.24.15-56.49-.13-84.73-.05-5.14,2.91-7.38,6.42-8.94s7.51-2.42,10.8,1a2.48,2.48,0,0,0,.85.72c5.88,1.79,11.71,4.81,17.66,5.09,15.83.73,31.72.41,47.58.16,3.17-.05,6.31-1.66,9.46-2.57,1.67-.48,3.36-.94,5-1.53s3.24-.91,4.36-1.93c3.23-2.93,6.8-2.46,10.16-1,4.71,2,7.54,4.85,7.5,11.17q-.57,82.66-.14,165.34c0,8.67-4.85,13-11.06,16.55-3.64,2.09-8.45,2.19-12.08,4.3-5.34,3.11-11,3.88-16.85,4.1-10.06.38-20.14.66-30.21.7a71.49,71.49,0,0,1-12.28-1.15c-4-.68-7.85-1.91-11.76-2.93-1.08-.29-2.1-.81-3.19-1-7.55-1.44-13.51-5.74-19.22-10.51-2.42-2-2.93-4.7-2.92-7.74q.09-42.55,0-85.11Z" transform="translate(80 -107)" fill="#fff"/><path d="M781.76,225.09c.21,3.45.55,6.23.54,9q-.28,57.57-.66,115.13c-.17,27-.54,54-.53,81,0,49.87.39,99.74.39,149.61,0,27.12-.41,54.24-.69,81.37-.13,12.25-.48,24.49-.54,36.74-.08,16.86.08,33.72,0,50.58,0,8.54-.66,9.68-7.84,16.2-.61-1.24-1.47-2.27-1.6-3.39a62.51,62.51,0,0,1-.21-7.12q0-256.14-.18-512.29C770.46,233.61,773.86,229,781.76,225.09Z" transform="translate(80 -107)" fill="#fff"/><path d="M580.82,223.11c3.85-4,6.44-7,9.41-9.61,1-.9,3-1,4.56-1,14.5-.08,29-.06,43.49-.06l121.83,0a35.9,35.9,0,0,1,4.87.1,26.54,26.54,0,0,1,4.1,1.19c-.47,1.5-.55,3.34-1.49,4.46-2.91,3.49-6.15,5.94-11.38,5.92-55.48-.18-111-.1-166.44-.15C587.06,224,584.36,223.48,580.82,223.11Z" transform="translate(80 -107)" fill="#fff"/><path d="M552.35,567.44c3.87,0,7.76-.21,11.61.08,2.41.19,4.77,1.13,7.15,1.74a41.32,41.32,0,0,0,5.72,1.45c2.55.29,3.89,1.37,3.87,4,0,7.86-.07,15.73,0,23.6,0,3.68-1.55,5.32-5.41,5.43-5.09.14-10.15,1.14-15.24,1.3-5.46.17-10.93-.13-16.39-.38-3.61-.17-7.2-.7-10.81-.94-3.37-.23-5.5-1.79-5.55-5.28q-.16-12.16,0-24.33a3.49,3.49,0,0,1,1.55-2.72,71.76,71.76,0,0,1,12.34-3.81c3.64-.63,7.47-.13,11.22-.13Z" transform="translate(80 -107)" fill="#fff"/><path d="M571.68,516.67c-.24,3.53-.49,7.07-.73,10.61l-.94,0V516.6Z" transform="translate(80 -107)" fill="#fff"/></svg>