<svg id="Layer_1" data-name="Layer 1" xmlns="http://www.w3.org/2000/svg" viewBox="280 100 720 720"><title>icono saphirus</title><path d="M640,107.07q358.28,0,716.56-.07c2.81,0,3.44.63,3.44,3.44q-.11,401.56,0,803.12c0,2.81-.63,3.44-3.44,3.44Q640,916.9-76.55,917c-2.81,0-3.45-.63-3.45-3.44q.12-401.56,0-803.12c0-2.81.63-3.44,3.44-3.44Q281.73,107.12,640,107.07Zm-.24,715.35c6.88,0,13.75.07,20.63,0,8-.11,15.91-.15,23.81-2,6.87-1.56,13.93-2.23,20.89-3.63,6.68-1.35,13.18-3.48,19.95-4.56a55.17,55.17,0,0,0,10.69-3c7-2.7,14.1-5.39,21.17-7.91,6.56-2.35,12.6-5.68,18.86-8.55s12.58-6.33,18.76-9.74c7.73-4.26,15-9.16,22.31-14,7.87-5.26,15.73-10.57,22.78-17,6.33-5.78,13.72-10.5,19.53-16.73,7.54-8.07,15-16.23,22.33-24.57,10.27-11.77,18.54-24.86,27-37.83,5.18-7.94,9.46-16.5,13.72-25,5.66-11.34,9.89-23.16,14.48-34.89,1.73-4.44,2.36-9.17,4.27-13.46,2.24-5,3.33-10.45,4.72-15.65,2.71-10.16,3.85-20.73,5.81-31.09,1-5.1.42-10.22.78-15.32.62-8.82,2.07-17.54,2.19-26.43.19-15.26-2.87-30.31-2.57-45.55a2.75,2.75,0,0,0-.16-1.11c-3.24-7.64-3.3-16-5.06-24-2.32-10.46-6-20.4-9-30.6-1-3.36-2.54-6.53-3.44-9.86-2.49-9.18-7-17.44-11.14-25.88-3.35-6.91-7.45-13.45-10.87-20.33A134.63,134.63,0,0,0,901,334.87c-5.14-7.13-10.38-14.21-15.82-21.14-6.17-7.85-13-15-19.86-22.21a273.37,273.37,0,0,0-29.38-27.22c-9-7-18-14.08-27.85-19.91-9.24-5.5-18.49-11-28.15-15.83-6-3-12.2-5.54-18.26-8.38-7.69-3.61-15.91-5.77-23.86-8.67A201.25,201.25,0,0,0,717.28,205c-3.59-.89-7.28-1.49-10.9-2.44-5.41-1.41-11-2.29-16.43-3.48s-11.2-.33-16.79-1.2-11.2-2.21-17-2.38A340.63,340.63,0,0,0,584,200.67c-5.15,1-10.2,2.61-15.25,3.35-9.56,1.42-18.5,4.91-27.46,7.83A195.24,195.24,0,0,0,514,222.51c-8.48,4.25-17,8.4-25.54,12.65-7.92,4-15.11,9.08-22.69,13.57-9.07,5.38-17.15,12.3-25.35,18.82-12.94,10.27-24.59,22.12-35.74,34.4A260.83,260.83,0,0,0,385,327.22c-4.92,7-9.69,14.08-14.15,21.35a209.24,209.24,0,0,0-14.25,26.57c-3.13,7.26-6.66,14.35-9.53,21.71-1.26,3.22-3,6.24-3.85,9.69-1.16,4.8-3,9.44-4.38,14.2-1.67,5.71-3.45,11.42-4.61,17.24-.61,3-1.2,6.08-1.83,9.12-1.49,7.13-2.55,14.35-3.76,21.54-1.05,6.17-.22,12.46-1.2,18.66-1.82,11.5-2.66,23.16-1.29,34.71,1.63,13.7,2.27,27.5,4.72,41.16,1.26,7.07,2.46,14.32,4.36,21.1,1.64,5.85,3.49,11.88,5.05,17.75,2.95,11.14,8,21.38,11.78,32.15,1.75,5,4.71,9.56,6.76,14.47a163.94,163.94,0,0,0,11.15,20.94c3.6,6,7.16,12.06,11.16,17.84,4.33,6.24,8.53,12.64,13.59,18.21,9.31,10.24,17.87,21.16,28.39,30.36,7.11,6.22,13.95,12.82,21.21,18.83a247.56,247.56,0,0,0,29.17,21.1c3.6,2.19,7.07,4.66,10.84,6.51,7,3.45,13.8,7.29,21,10.44,5.21,2.29,10.1,5.3,15.48,7.3,8.1,3,15.93,6.74,24.45,8.67,9.26,2.11,18,6.23,27.53,7.35a18.79,18.79,0,0,1,4.79.71c8.94,3.55,18.52,3.47,27.8,4.84C616.69,823.42,628.28,822.23,639.76,822.42Z" transform="translate(80 -107)" fill="#fefefe"/><path d="M639.76,822.42c-11.48-.19-23.07,1-34.44-.68-9.28-1.37-18.86-1.29-27.8-4.84a18.79,18.79,0,0,0-4.79-.71c-9.54-1.12-18.27-5.24-27.53-7.35-8.52-1.93-16.35-5.66-24.45-8.67-5.38-2-10.27-5-15.48-7.3-7.17-3.15-14-7-21-10.44-3.77-1.85-7.24-4.32-10.84-6.51a247.56,247.56,0,0,1-29.17-21.1c-7.26-6-14.1-12.61-21.21-18.83-10.52-9.2-19.08-20.12-28.39-30.36-5.06-5.57-9.26-12-13.59-18.21-4-5.78-7.56-11.84-11.16-17.84a163.94,163.94,0,0,1-11.15-20.94c-2.05-4.91-5-9.48-6.76-14.47-3.77-10.77-8.83-21-11.78-32.15-1.56-5.87-3.41-11.9-5.05-17.75-1.9-6.78-3.1-14-4.36-21.1-2.45-13.66-3.09-27.46-4.72-41.16-1.37-11.55-.53-23.21,1.29-34.71,1-6.2.15-12.49,1.2-18.66,1.21-7.19,2.27-14.41,3.76-21.54.63-3,1.22-6.08,1.83-9.12,1.16-5.82,2.94-11.53,4.61-17.24,1.38-4.76,3.22-9.4,4.38-14.2.84-3.45,2.59-6.47,3.85-9.69,2.87-7.36,6.4-14.45,9.53-21.71a209.24,209.24,0,0,1,14.25-26.57c4.46-7.27,9.23-14.37,14.15-21.35A260.83,260.83,0,0,1,404.68,302c11.15-12.28,22.8-24.13,35.74-34.4,8.2-6.52,16.28-13.44,25.35-18.82,7.58-4.49,14.77-9.61,22.69-13.57,8.5-4.25,17.06-8.4,25.54-12.65a195.24,195.24,0,0,1,27.24-10.66c9-2.92,17.9-6.41,27.46-7.83,5-.74,10.1-2.4,15.25-3.35a340.63,340.63,0,0,1,72.21-5.17c5.8.17,11.36,1.49,17,2.38s11.25,0,16.79,1.2,11,2.07,16.43,3.48c3.62.95,7.31,1.55,10.9,2.44a201.25,201.25,0,0,1,20.53,6.51c8,2.9,16.17,5.06,23.86,8.67,6.06,2.84,12.26,5.37,18.26,8.38,9.66,4.82,18.91,10.33,28.15,15.83,9.81,5.83,18.86,12.87,27.85,19.91a273.37,273.37,0,0,1,29.38,27.22c6.81,7.18,13.69,14.36,19.86,22.21,5.44,6.93,10.68,14,15.82,21.14a134.63,134.63,0,0,1,11.22,18.85c3.42,6.88,7.52,13.42,10.87,20.33,4.11,8.44,8.65,16.7,11.14,25.88.9,3.33,2.47,6.5,3.44,9.86,3,10.2,6.66,20.14,9,30.6,1.76,8,1.82,16.33,5.06,24a2.75,2.75,0,0,1,.16,1.11c-.3,15.24,2.76,30.29,2.57,45.55-.12,8.89-1.57,17.61-2.19,26.43-.36,5.1.18,10.22-.78,15.32-2,10.36-3.1,20.93-5.81,31.09-1.39,5.2-2.48,10.61-4.72,15.65-1.91,4.29-2.54,9-4.27,13.46-4.59,11.73-8.82,23.55-14.48,34.89-4.26,8.55-8.54,17.11-13.72,25-8.45,13-16.72,26.06-27,37.83-7.29,8.34-14.79,16.5-22.33,24.57-5.81,6.23-13.2,11-19.53,16.73-7.05,6.44-14.91,11.75-22.78,17-7.29,4.88-14.58,9.78-22.31,14-6.18,3.41-12.39,6.82-18.76,9.74s-12.3,6.2-18.86,8.55c-7.07,2.52-14.14,5.21-21.17,7.91a55.17,55.17,0,0,1-10.69,3c-6.77,1.08-13.27,3.21-19.95,4.56-7,1.4-14,2.07-20.89,3.63-7.9,1.81-15.84,1.85-23.81,2C653.51,822.49,646.64,822.42,639.76,822.42ZM405.22,580.08c-11.2.67-21.16-1.79-29.39-9.27-4.05-3.68-8.31-7.48-9.95-12.86a36.79,36.79,0,0,1,2.79-28.63c1.24-2.37,2.54-4.64,5.82-4.4,3.12.23,4.43,2.5,5.61,4.84a13.79,13.79,0,0,1,1,3.59,15,15,0,0,0,5.08,8.92c3.72,3.08,7.75,3.6,12.14,1.2,3.66-2,6.67-6.49,6.26-10.28-.79-7.33-8.21-17.42-17-17.93a133.3,133.3,0,0,0-14.15.26c-8,.39-14.6,4-20,9.59-7.51,7.68-10,17.07-9.2,27.8,1.25,15.91,13.23,28,26.31,32.37a88.4,88.4,0,0,0,38.7,4.29c14.13-1.64,27.49-4.6,39.64-12.66a59.36,59.36,0,0,0,26-37.72,69.61,69.61,0,0,0-3.24-40.52c-5.41-14.06-12.93-27.17-18.91-41a65.92,65.92,0,0,1-5.84-30.07c.28-5.31,1.93-10.35,6.33-13.83s9.48-4.12,14.89-3.57c4.85.49,7.27,3.63,6.13,8.41a28.31,28.31,0,0,0-.84,7c.12,7.45,9.34,12.33,15.12,9.91,5.61-2.34,8.44-5.9,7.95-12-.23-2.84.78-5.94-.73-8.47-4.58-7.7-11.89-11.7-20.46-12.65-12.11-1.34-24,.07-35.27,5.19-6.92,3.15-11.84,8.92-15.31,15.06-5.27,9.33-5.07,19.95-2.5,30.26A110.58,110.58,0,0,0,431,476.52c3.53,6.91,6.34,14.19,9.69,21.23a87.1,87.1,0,0,1,6.52,19.74,91.64,91.64,0,0,1,1.13,26.11c-.93,11.16-6.36,20.47-15.05,27.39C425.13,577.5,415.67,581.14,405.22,580.08Zm170.45,7.28c3.12.88,5.05,3.89,8.36,4.13,6.45.46,12.82,2,19.15,2.65,12.64,1.26,25.19,3.86,37.89,3.89,19.08.05,38.11,1.89,57.2,1.05,3-.13,6,.76,8.93.41,11.2-1.32,22.43-1.21,33.66-1.25,7.85,0,15.7,0,23.44-1.65,10.82-2.25,22-.87,32.84-4.05,5-1.46,10.31-1.5,15.5-2.74,6.06-1.45,12.48-1.82,18.62-3.49,5.62-1.53,11.62-2.11,16.88-4.42,7.14-3.13,14.83-4.6,21.83-8.07,2-1,3.84-2.21,5.8-3.23,3.69-1.9,8.5-2.52,9.93-7.52.13-.46.92-.79,1.46-1.07,7.28-3.74,9.27-14.78,5-21.71-2.28-3.7-5.82-5.82-8.63-8.28-5.65-4.93-12.47-9-20.26-10.46-3.28-.63-4,0-3.46,3.31a6.2,6.2,0,0,0,1.25,2.67c6.13,8.31,3.44,15.64-2.61,21.55-9.45,9.24-21.62,13.76-33.71,18.17a182.72,182.72,0,0,1-21.33,6.15c-5.15,1.2-10,3.64-15.52,3.22a.79.79,0,0,0-.35.11c-9.17,3.47-19,3.34-28.48,5.5-8.2,1.87-16.54,3.64-25.09,3.6-7.5,0-14.83,2.19-22.26,2.33-18.85.36-37.69,1.51-56.55,1.09-7.62-.17-15.25-.15-22.87-.26-11.84-.16-23.59-2.13-35.45-1.88-3,.07-5.91,1.25-8.92.51C583.87,586.62,579.78,587.09,575.67,587.36ZM832.3,469.87c-5.49-.61-10.55.69-15.56,2.88A24.44,24.44,0,0,0,804,485.05c-.84,1.79-2.81,3.5-2.15,5.74,1.19,4,2.27,8.11,5.36,11.38,4,4.2,9.37,6.07,14,9.13,3.73,2.45,5.25,5.35,4.49,9.3-.71,3.68-4.2,7.22-7.94,7.5s-7.24.45-10.76-.79a13.75,13.75,0,0,0-8.11-.17c-4.61,1.17-5.09.79-5-3.78,0-.62,0-1.25.08-1.87.94-10.69,3.2-21.14,5.71-31.56A49.44,49.44,0,0,0,801.45,477c-.07-2-.46-4-2.77-4.79-6.11-2-15.28.17-15.56,9.58-.34,11.4-4,22.11-7.21,32.91a17.65,17.65,0,0,1-8.4,10.42c-2.53,1.54-5,2.89-7.55,1.14-2.93-2-4-5.21-3.26-8.89.5-2.55.64-5.17,1.11-7.73,1.59-8.73,2.94-17.52,5.23-26.11.84-3.17,1.69-6.39-.63-9.26s-6-2.5-9.06-1.83c-3.38.75-6.4,1.75-9.13-1.33-.38-.43-1.4-.31-2.12-.43-3.8-.6-7.08.91-10.27,2.63-1.71.93-3.31,1.41-5.24.56a22.3,22.3,0,0,0-11.6-1.62,7.53,7.53,0,0,0-6.11,6c-1.67,11.38-3.54,22.74-5.12,34.14-.79,5.68-3,11.1-3.09,16.88-.08,4,2.61,6.73,6.64,7,6.68.42,9.76-1.76,10.72-8.52,1.23-8.63,2.56-17.24,4.61-25.72,2.13-8.79,6.05-16.34,15.14-19.88,2.26-.88,4.91-1.58,6.79-.08s.93,3.9-.05,5.9a7.09,7.09,0,0,0-.45,1.8q-2.88,16.5-5.76,33c-.73,4.15.75,7.49,3.34,10.65,5.6,6.82,21,5.86,28.21,1.71,2.87-1.66,5.2-2.77,8.26.1,3.6,3.35,10.44,2.4,13.61-1.51,1.55-1.91,2.95-1.46,3.87.1,1.46,2.49,3.88,3,6.22,3.76a33.8,33.8,0,0,0,15.46,1c8.42-1.31,16-4,21.34-11.08,3.76-5,5.49-10.54,3-16.31-2.21-5.07-6.84-8.31-11.58-11.09-1.93-1.12-3.95-2.11-5.81-3.34-3.14-2.07-5.11-7.44-4.13-10.83s5-5.78,9.37-6.19c4-.38,7.34,2.23,11.34,1.71,3-.38,5.08-1.39,5.45-4.51s-.83-5.24-4-6.31C839,469.46,835.61,470.05,832.3,469.87ZM549.24,567.54c6,0,8.89-2.21,9.81-7.53.77-4.53,1.55-9.08,2.45-13.59,1.45-7.27,2.11-7.72,9.62-8.08,7.74-.36,15.21-2.09,21.32-7a49.52,49.52,0,0,0,19.17-35.33c.52-5.43.8-10.68-1.27-15.76-1.58-3.85-3.88-7.22-8-9C594.5,468,587,469,580,473.53c-3.12,2-5.45,2-8.4-.32-6.27-4.86-15.59-.92-16.14,6.94-.78,11-3.19,21.67-5.14,32.43-2.77,15.28-6,30.48-8.89,45.73C540.11,565,542.36,567.55,549.24,567.54Zm125.34-83.77c-.14-2.44.34-5.39-1.55-8.16-3.17-4.64-7.92-5.88-12.93-6.35a31.37,31.37,0,0,0-16.44,2.58c-3.7,1.71-5.14.37-4.58-3.61.29-2.09.69-4.18,1.18-6.23,2-8.35-.79-11.62-9.29-10.75a35.63,35.63,0,0,0-4.33,1.09c-2.59.6-3.49,2.32-3.82,4.85-1,8.13-1.9,16.33-3.58,24.34-1.51,7.15-2.19,14.44-4.3,21.55-1.84,6.22-1.56,13-3.32,19.46a35.33,35.33,0,0,0-1.54,9.57,3.92,3.92,0,0,0,2.25,3.95c6.35,3.11,15.13-.73,16-7.66s2.31-13.93,3.7-20.87a74.35,74.35,0,0,1,6.46-19c2.27-4.51,6.37-6.61,11.12-7.26,4.5-.61,7,1.95,6.94,6.57-.16,8.38-2.64,16.45-3.43,24.76-.55,5.8-2.54,11.43-2.63,17.33,0,2.32.39,4.58,2.61,5.84,6,3.44,13.26.44,14.63-6.49,1.76-8.89,3.12-17.87,4.32-26.85C672.9,496.35,674.78,490.45,674.58,483.77Zm-190,33c-.57,5.63.37,10.89,4,15.23,4.94,5.87,11.51,7.49,18.87,6.13,4.3-.8,8.34-2.24,11.64-5.4,1.69-1.61,4-2.23,5.33.36,2.49,5,7,4,10.79,3.49,3.4-.42,4.79-3.67,5.49-6.85a32.37,32.37,0,0,0,.37-3.71q1.4-13,4-25.81c1.37-6.7,3-13.37,4-20.12,1-6.56-1.51-9.2-8.25-9.24a40.08,40.08,0,0,1-5.56-.53c-14.6-2.12-27.53.76-37.22,12.89C490.19,493.05,484.8,503.89,484.55,516.75Zm44.84,83.08c3,0,5.37,1.44,7.84,2.86,2.94,1.68,6.61,1.11,9.8,2.16,11.51,3.78,23.51,5.38,35.35,7.46,13.34,2.33,26.9,3.45,40.4,4.93,18.5,2,37.07,2.42,55.62,3.23a301.42,301.42,0,0,0,37.05-.38c16.24-1.27,32.53-1.15,48.8-2.87a546.62,546.62,0,0,0,61.2-9.64c4.25-.94,8.3-2.73,12.55-3.29,4.42-.59,7.57-3.53,11.6-4.75a11.92,11.92,0,0,0-7.34-.21c-7.3,2.28-14.9,2.84-22.35,4.09q-21.54,3.58-43.33,5.49c-15.14,1.33-30.29,3.11-45.46,3.36-37.44.64-74.89.92-112.27-2.53-14.39-1.33-28.73-2.87-43.05-4.72-13.69-1.77-27.34-3.81-41-5.91A7.41,7.41,0,0,0,529.39,599.83ZM693.67,471.92c-7.06.09-8.87,1.32-9.88,8.36-2.28,16-4.86,32-7.88,47.88a6.19,6.19,0,0,0,1.18,5.27c2.72,3.51,6.32,3.12,9.89,2.58,3.26-.49,4.76-3.19,5.49-6,.78-3,.87-6.16,1.4-9.22,2.35-13.62,4.84-27.21,7.08-40.85C702.06,473.24,700.61,471.83,693.67,471.92Zm.1-6.58c7.07.1,12.58-3.85,12.55-9,0-4.86-3.76-8.37-9-8.48-6.85-.14-11.12,4.4-11.15,11.87C686.14,463.36,688.73,465.27,693.77,465.34Zm177.49,22.77c5.63,0,6.55-.9,7.73-5.65.49-2-.09-3.69-.37-5.51a6.29,6.29,0,0,0-5.72-5.56c-3.88-.56-7.68-.49-10.26,3.53a8.85,8.85,0,0,0-.8,9.1C863.92,488.67,868.33,487.23,871.26,488.11Z" transform="translate(80 -107)" fill="#297eb6"/><path d="M405.22,580.08c10.45,1.06,19.91-2.58,28.09-9.09,8.69-6.92,14.12-16.23,15.05-27.39a91.64,91.64,0,0,0-1.13-26.11,87.1,87.1,0,0,0-6.52-19.74c-3.35-7-6.16-14.32-9.69-21.23A110.58,110.58,0,0,1,422.11,453c-2.57-10.31-2.77-20.93,2.5-30.26,3.47-6.14,8.39-11.91,15.31-15.06,11.25-5.12,23.16-6.53,35.27-5.19,8.57.95,15.88,4.95,20.46,12.65,1.51,2.53.5,5.63.73,8.47.49,6.06-2.34,9.62-7.95,12-5.78,2.42-15-2.46-15.12-9.91a28.31,28.31,0,0,1,.84-7c1.14-4.78-1.28-7.92-6.13-8.41-5.41-.55-10.54.12-14.89,3.57s-6.05,8.52-6.33,13.83a65.92,65.92,0,0,0,5.84,30.07c6,13.83,13.5,26.94,18.91,41a69.61,69.61,0,0,1,3.24,40.52,59.36,59.36,0,0,1-26,37.72c-12.15,8.06-25.51,11-39.64,12.66a88.4,88.4,0,0,1-38.7-4.29c-13.08-4.38-25.06-16.46-26.31-32.37-.84-10.73,1.69-20.12,9.2-27.8,5.42-5.55,12-9.2,20-9.59a133.3,133.3,0,0,1,14.15-.26c8.82.51,16.24,10.6,17,17.93.41,3.79-2.6,8.27-6.26,10.28-4.39,2.4-8.42,1.88-12.14-1.2a15,15,0,0,1-5.08-8.92,13.79,13.79,0,0,0-1-3.59c-1.18-2.34-2.49-4.61-5.61-4.84-3.28-.24-4.58,2-5.82,4.4A36.79,36.79,0,0,0,365.88,558c1.64,5.38,5.9,9.18,9.95,12.86C384.06,578.29,394,580.75,405.22,580.08Z" transform="translate(80 -107)" fill="#fefefe"/><path d="M575.67,587.36c4.11-.27,8.2-.74,12.25.26,3,.74,5.94-.44,8.92-.51,11.86-.25,23.61,1.72,35.45,1.88,7.62.11,15.25.09,22.87.26,18.86.42,37.7-.73,56.55-1.09,7.43-.14,14.76-2.36,22.26-2.33,8.55,0,16.89-1.73,25.09-3.6,9.45-2.16,19.31-2,28.48-5.5a.79.79,0,0,1,.35-.11c5.5.42,10.37-2,15.52-3.22a182.72,182.72,0,0,0,21.33-6.15c12.09-4.41,24.26-8.93,33.71-18.17,6-5.91,8.74-13.24,2.61-21.55a6.2,6.2,0,0,1-1.25-2.67c-.56-3.32.18-3.94,3.46-3.31,7.79,1.5,14.61,5.53,20.26,10.46,2.81,2.46,6.35,4.58,8.63,8.28,4.27,6.93,2.28,18-5,21.71-.54.28-1.33.61-1.46,1.07-1.43,5-6.24,5.62-9.93,7.52-2,1-3.81,2.24-5.8,3.23-7,3.47-14.69,4.94-21.83,8.07-5.26,2.31-11.26,2.89-16.88,4.42-6.14,1.67-12.56,2-18.62,3.49-5.19,1.24-10.55,1.28-15.5,2.74-10.8,3.18-22,1.8-32.84,4.05-7.74,1.6-15.59,1.63-23.44,1.65-11.23,0-22.46-.07-33.66,1.25-2.92.35-6-.54-8.93-.41-19.09.84-38.12-1-57.2-1.05-12.7,0-25.25-2.63-37.89-3.89-6.33-.63-12.7-2.19-19.15-2.65C580.72,591.25,578.79,588.24,575.67,587.36Z" transform="translate(80 -107)" fill="#fefefe"/><path d="M832.3,469.87c3.31.18,6.68-.41,10,.73,3.13,1.07,4.33,3.24,4,6.31s-2.47,4.13-5.45,4.51c-4,.52-7.35-2.09-11.34-1.71-4.34.41-8.37,2.73-9.37,6.19s1,8.76,4.13,10.83c1.86,1.23,3.88,2.22,5.81,3.34,4.74,2.78,9.37,6,11.58,11.09,2.51,5.77.78,11.35-3,16.31-5.37,7.09-12.92,9.77-21.34,11.08a33.8,33.8,0,0,1-15.46-1c-2.34-.73-4.76-1.27-6.22-3.76-.92-1.56-2.32-2-3.87-.1-3.17,3.91-10,4.86-13.61,1.51-3.06-2.87-5.39-1.76-8.26-.1-7.19,4.15-22.61,5.11-28.21-1.71-2.59-3.16-4.07-6.5-3.34-10.65q2.91-16.5,5.76-33a7.09,7.09,0,0,1,.45-1.8c1-2,1.89-4.43.05-5.9s-4.53-.8-6.79.08c-9.09,3.54-13,11.09-15.14,19.88-2,8.48-3.38,17.09-4.61,25.72-1,6.76-4,8.94-10.72,8.52-4-.26-6.72-3-6.64-7,.1-5.78,2.3-11.2,3.09-16.88,1.58-11.4,3.45-22.76,5.12-34.14a7.53,7.53,0,0,1,6.11-6,22.3,22.3,0,0,1,11.6,1.62c1.93.85,3.53.37,5.24-.56,3.19-1.72,6.47-3.23,10.27-2.63.72.12,1.74,0,2.12.43,2.73,3.08,5.75,2.08,9.13,1.33,3-.67,6.62-1.19,9.06,1.83s1.47,6.09.63,9.26c-2.29,8.59-3.64,17.38-5.23,26.11-.47,2.56-.61,5.18-1.11,7.73-.73,3.68.33,6.85,3.26,8.89,2.51,1.75,5,.4,7.55-1.14a17.65,17.65,0,0,0,8.4-10.42c3.17-10.8,6.87-21.51,7.21-32.91.28-9.41,9.45-11.6,15.56-9.58,2.31.76,2.7,2.76,2.77,4.79a49.44,49.44,0,0,1-1.73,12.93c-2.51,10.42-4.77,20.87-5.71,31.56,0,.62-.06,1.25-.08,1.87-.14,4.57.34,4.95,5,3.78a13.75,13.75,0,0,1,8.11.17c3.52,1.24,7.17,1.05,10.76.79s7.23-3.82,7.94-7.5c.76-4-.76-6.85-4.49-9.3-4.65-3.06-10.05-4.93-14-9.13-3.09-3.27-4.17-7.33-5.36-11.38-.66-2.24,1.31-4,2.15-5.74a24.44,24.44,0,0,1,12.77-12.3C821.75,470.56,826.81,469.26,832.3,469.87Z" transform="translate(80 -107)" fill="#fefefe"/><path d="M549.24,567.54c-6.88,0-9.13-2.55-7.84-9.23,2.93-15.25,6.12-30.45,8.89-45.73,2-10.76,4.36-21.45,5.14-32.43.55-7.86,9.87-11.8,16.14-6.94,2.95,2.27,5.28,2.33,8.4.32,7-4.49,14.53-5.57,22.41-2.2,4.08,1.75,6.38,5.12,8,9,2.07,5.08,1.79,10.33,1.27,15.76a49.52,49.52,0,0,1-19.17,35.33c-6.11,4.86-13.58,6.59-21.32,7-7.51.36-8.17.81-9.62,8.08-.9,4.51-1.68,9.06-2.45,13.59C558.13,565.33,555.29,567.53,549.24,567.54Zm43.93-72.74a62.3,62.3,0,0,0-.43-6.71c-.87-5.12-5.12-7.17-9.75-4.7-3.15,1.69-5.3,4.39-7.19,7.41-6.09,9.71-7.09,20.89-9.32,31.7-.63,3.07,1.06,4.57,4.16,4.79,9.93.68,14.06-3.69,18.53-12.15C592.5,508.86,593.18,501.86,593.17,494.8Z" transform="translate(80 -107)" fill="#fefefe"/><path d="M674.58,483.77c.2,6.68-1.68,12.58-2.49,18.63-1.2,9-2.56,18-4.32,26.85-1.37,6.93-8.59,9.93-14.63,6.49-2.22-1.26-2.65-3.52-2.61-5.84.09-5.9,2.08-11.53,2.63-17.33.79-8.31,3.27-16.38,3.43-24.76.08-4.62-2.44-7.18-6.94-6.57-4.75.65-8.85,2.75-11.12,7.26a74.35,74.35,0,0,0-6.46,19c-1.39,6.94-2.79,13.83-3.7,20.87s-9.69,10.77-16,7.66a3.92,3.92,0,0,1-2.25-3.95,35.33,35.33,0,0,1,1.54-9.57c1.76-6.42,1.48-13.24,3.32-19.46,2.11-7.11,2.79-14.4,4.3-21.55,1.68-8,2.54-16.21,3.58-24.34.33-2.53,1.23-4.25,3.82-4.85a35.63,35.63,0,0,1,4.33-1.09c8.5-.87,11.28,2.4,9.29,10.75-.49,2.05-.89,4.14-1.18,6.23-.56,4,.88,5.32,4.58,3.61a31.37,31.37,0,0,1,16.44-2.58c5,.47,9.76,1.71,12.93,6.35C674.92,478.38,674.44,481.33,674.58,483.77Z" transform="translate(80 -107)" fill="#fefefe"/><path d="M484.55,516.75c.25-12.86,5.64-23.7,13.51-33.56,9.69-12.13,22.62-15,37.22-12.89a40.08,40.08,0,0,0,5.56.53c6.74,0,9.29,2.68,8.25,9.24-1.08,6.75-2.66,13.42-4,20.12q-2.61,12.81-4,25.81a32.37,32.37,0,0,1-.37,3.71c-.7,3.18-2.09,6.43-5.49,6.85-3.84.48-8.3,1.48-10.79-3.49-1.28-2.59-3.64-2-5.33-.36-3.3,3.16-7.34,4.6-11.64,5.4-7.36,1.36-13.93-.26-18.87-6.13C484.92,527.64,484,522.38,484.55,516.75Zm18.69-3.88a37.5,37.5,0,0,0,0,4.86c.45,3.4,2,6.15,5.35,7.5s5.65-.14,8.08-2.25c4.66-4,6.77-9.41,8.24-15.08,1.84-7.1,3.36-14.28,5-21.41.89-3.76-.58-6.55-4.16-6.88-4.16-.39-8.11.31-11.47,3.32C505.41,491,504.19,501.88,503.24,512.87Z" transform="translate(80 -107)" fill="#fefefe"/><path d="M529.39,599.83a7.41,7.41,0,0,1,5.43-.72c13.64,2.1,27.29,4.14,41,5.91,14.32,1.85,28.66,3.39,43.05,4.72,37.38,3.45,74.83,3.17,112.27,2.53,15.17-.25,30.32-2,45.46-3.36q21.75-1.92,43.33-5.49c7.45-1.25,15.05-1.81,22.35-4.09a11.92,11.92,0,0,1,7.34.21c-4,1.22-7.18,4.16-11.6,4.75-4.25.56-8.3,2.35-12.55,3.29a546.62,546.62,0,0,1-61.2,9.64c-16.27,1.72-32.56,1.6-48.8,2.87a301.42,301.42,0,0,1-37.05.38c-18.55-.81-37.12-1.2-55.62-3.23-13.5-1.48-27.06-2.6-40.4-4.93-11.84-2.08-23.84-3.68-35.35-7.46-3.19-1.05-6.86-.48-9.8-2.16C534.76,601.27,532.42,599.88,529.39,599.83Z" transform="translate(80 -107)" fill="#fefefe"/><path d="M693.67,471.92c6.94-.09,8.39,1.32,7.28,8-2.24,13.64-4.73,27.23-7.08,40.85-.53,3.06-.62,6.23-1.4,9.22-.73,2.81-2.23,5.51-5.49,6-3.57.54-7.17.93-9.89-2.58a6.19,6.19,0,0,1-1.18-5.27c3-15.89,5.6-31.86,7.88-47.88C684.8,473.24,686.61,472,693.67,471.92Z" transform="translate(80 -107)" fill="#fefefe"/><path d="M693.77,465.34c-5-.07-7.63-2-7.62-5.61,0-7.47,4.3-12,11.15-11.87,5.26.11,9,3.62,9,8.48C706.35,461.49,700.84,465.44,693.77,465.34Z" transform="translate(80 -107)" fill="#fefefe"/><path d="M871.26,488.11c-2.93-.88-7.34.56-9.42-4.09a8.85,8.85,0,0,1,.8-9.1c2.58-4,6.38-4.09,10.26-3.53a6.29,6.29,0,0,1,5.72,5.56c.28,1.82.86,3.52.37,5.51C877.81,487.21,876.89,488.09,871.26,488.11Z" transform="translate(80 -107)" fill="#fefefe"/><path d="M593.17,494.8c0,7.06-.67,14.06-4,20.34-4.47,8.46-8.6,12.83-18.53,12.15-3.1-.22-4.79-1.72-4.16-4.79,2.23-10.81,3.23-22,9.32-31.7,1.89-3,4-5.72,7.19-7.41,4.63-2.47,8.88-.42,9.75,4.7A62.3,62.3,0,0,1,593.17,494.8Z" transform="translate(80 -107)" fill="#297eb6"/><path d="M503.24,512.87c.95-11,2.17-21.88,11.13-29.94,3.36-3,7.31-3.71,11.47-3.32,3.58.33,5,3.12,4.16,6.88-1.69,7.13-3.21,14.31-5,21.41-1.47,5.67-3.58,11-8.24,15.08-2.43,2.11-4.86,3.57-8.08,2.25s-4.9-4.1-5.35-7.5A37.5,37.5,0,0,1,503.24,512.87Z" transform="translate(80 -107)" fill="#297eb6"/></svg>