<svg id="Layer_1" data-name="Layer 1" xmlns="http://www.w3.org/2000/svg" viewBox="417 99 726 608"><title>icono sensaciones</title><path d="M-80,917V107H1360V917ZM649.83,797.85h0c53.75,0,107.5-.09,161.25.09,9.57,0,13.12-6.31,15.73-13.24.48-1.26-.06-3.32-.84-4.57-2.71-4.32-5.59-8.56-8.67-12.61-5.72-7.5-11.7-14.8-17.43-22.29-3.78-4.94-7.25-10.11-11-15.07-5.68-7.52-11.53-14.9-17.19-22.43C768,702.88,764.8,697.67,761,693c-5.18-6.37-10.7-12.46-16.17-18.58-2.07-2.32-2.1-4,.34-6.23,5.84-5.42,11.34-11.22,17.07-16.75,5.54-5.35,11.26-10.51,16.8-15.85,5.35-5.16,10.6-10.42,15.86-15.67,5.42-5.44,10.77-10.94,16.2-16.37,5.6-5.61,11.25-11.16,16.87-16.75q8.16-8.13,16.3-16.28l16-16c5.59-5.6,11.21-11.18,16.75-16.84,5.29-5.39,10.65-10.72,15.71-16.32,6.09-6.75,12-13.68,17.82-20.67a136.68,136.68,0,0,0,9.4-12.45,10.06,10.06,0,0,0-1.52-12.58c-1.65-1.69-3.37-3.31-5-5.05-11.25-12.43-22.42-24.93-33.75-37.29-5.18-5.66-10.58-11.11-16-16.53-7-7-14.22-13.78-21.21-20.78s-13.76-14.24-20.76-21.25-14.21-13.79-21.21-20.81-13.74-14.27-20.76-21.27c-10.08-10.06-20.36-19.92-30.44-30-8.6-8.58-16.93-17.42-25.54-26s-17.5-16.87-26.19-25.36c-11.65-11.38-22.91-23.18-35-34-3.45-3.09-9.3-4.89-14-4.78-4.12.09-8.52,3.17-12.14,5.83-4.37,3.22-8.08,7.36-12,11.16q-10.33,10-20.6,20c-5.85,5.72-11.7,11.44-17.5,17.22-5.54,5.51-11,11.1-16.51,16.62-5.16,5.17-10.37,10.31-15.55,15.46q-8.31,8.24-16.61,16.49c-5.43,5.43-10.82,10.89-16.24,16.33Q513,340,504.62,348.43q-8,8-16,16c-5.43,5.42-10.89,10.82-16.31,16.26s-10.77,10.95-16.2,16.39-11,10.77-16.39,16.22-10.82,10.92-16.18,16.45-10.9,11.17-16.17,16.93q-11.58,12.66-22.9,25.58c-2.78,3.16-7.42,5.75-5.86,10.89a34.92,34.92,0,0,0,5.6,11.59c6.45,8.07,13.46,15.71,20.39,23.38,5.14,5.7,10.46,11.25,15.8,16.75,5.61,5.77,11.35,11.41,17,17.12,5.4,5.45,10.77,10.94,16.18,16.38s10.86,10.86,16.3,16.28,10.74,10.63,16.07,16,10.77,10.94,16.17,16.39c5.67,5.72,11.36,11.4,17,17.1Q527,642.05,534.89,650c5.59,5.61,11,11.43,16.88,16.74,3.42,3.09,4.31,4.92.75,8.95-5,5.6-8.61,12.34-13.07,18.41-3.82,5.21-8,10.17-12,15.23-4.17,5.25-8.3,10.54-12.53,15.74-3.13,3.85-6.6,7.45-9.57,11.41-6,8-11.69,16.06-17.5,24.11-4.58,6.35-9.25,12.64-13.6,19.14-1,1.47-1.63,4-1,5.56,2.7,6.92,6.35,12.72,15.75,12.69C542.58,797.76,596.21,797.85,649.83,797.85Z" transform="translate(80 -107)" fill="#fff"/><path d="M649.83,797.85c-53.62,0-107.25-.09-160.87.08-9.4,0-13-5.77-15.75-12.69-.59-1.52.05-4.09,1-5.56,4.35-6.5,9-12.79,13.6-19.14,5.81-8,11.54-16.16,17.5-24.11,3-4,6.44-7.56,9.57-11.41,4.23-5.2,8.36-10.49,12.53-15.74,4-5.06,8.18-10,12-15.23,4.46-6.07,8.11-12.81,13.07-18.41,3.56-4,2.67-5.86-.75-8.95-5.88-5.31-11.29-11.13-16.88-16.74q-7.89-7.89-15.75-15.79c-5.68-5.7-11.37-11.38-17-17.1-5.4-5.45-10.75-10.95-16.17-16.39s-10.72-10.65-16.07-16-10.88-10.83-16.3-16.28S442.78,557.48,437.38,552c-5.66-5.71-11.4-11.35-17-17.12-5.34-5.5-10.66-11-15.8-16.75-6.93-7.67-13.94-15.31-20.39-23.38a34.92,34.92,0,0,1-5.6-11.59c-1.56-5.14,3.08-7.73,5.86-10.89q11.35-12.89,22.9-25.58c5.27-5.76,10.74-11.33,16.17-16.93s10.75-11,16.18-16.45,10.95-10.79,16.39-16.22,10.78-10.95,16.2-16.39,10.88-10.84,16.31-16.26,10.69-10.69,16-16Q513,340,521.4,331.6c5.42-5.44,10.81-10.9,16.24-16.33s11.07-11,16.61-16.49c5.18-5.15,10.39-10.29,15.55-15.46,5.52-5.52,11-11.11,16.51-16.62,5.8-5.78,11.65-11.5,17.5-17.22q10.28-10,20.6-20c4-3.8,7.66-7.94,12-11.16,3.62-2.66,8-5.74,12.14-5.83,4.7-.11,10.55,1.69,14,4.78,12.12,10.85,23.38,22.65,35,34,8.69,8.49,17.57,16.8,26.19,25.36s16.94,17.39,25.54,26c10.08,10.06,20.36,19.92,30.44,30,7,7,13.77,14.26,20.76,21.27s14.22,13.8,21.21,20.81,13.77,14.24,20.76,21.25,14.2,13.79,21.21,20.78c5.43,5.42,10.83,10.87,16,16.53,11.33,12.36,22.5,24.86,33.75,37.29,1.59,1.74,3.31,3.36,5,5.05A10.06,10.06,0,0,1,920,488.18a136.68,136.68,0,0,1-9.4,12.45c-5.82,7-11.73,13.92-17.82,20.67-5.06,5.6-10.42,10.93-15.71,16.32-5.54,5.66-11.16,11.24-16.75,16.84l-16,16q-8.16,8.13-16.3,16.28c-5.62,5.59-11.27,11.14-16.87,16.75-5.43,5.43-10.78,10.93-16.2,16.37-5.26,5.25-10.51,10.51-15.86,15.67-5.54,5.34-11.26,10.5-16.8,15.85-5.73,5.53-11.23,11.33-17.07,16.75-2.44,2.26-2.41,3.91-.34,6.23,5.47,6.12,11,12.21,16.17,18.58,3.83,4.72,7.06,9.93,10.72,14.79,5.66,7.53,11.51,14.91,17.19,22.43,3.74,5,7.21,10.13,11,15.07,5.73,7.49,11.71,14.79,17.43,22.29,3.08,4.05,6,8.29,8.67,12.61.78,1.25,1.32,3.31.84,4.57-2.61,6.93-6.16,13.27-15.73,13.24-53.75-.18-107.5-.09-161.25-.09Zm-255-314c1,1.11,1.79,2.05,2.65,2.92,6.31,6.4,12.68,12.74,18.95,19.18,13.05,13.38,26,26.84,39.08,40.22,6.85,7,13.85,13.89,20.72,20.89S490,581.33,497,588.34s14.25,13.76,21.26,20.75S532,623.29,539,630.32c7.59,7.65,15.18,15.29,23,22.74a13.45,13.45,0,0,0,6.17,3.14c.61.14,1.85-2.56,2.85-3.93a18.14,18.14,0,0,1,1.48-1.68c3.9-4.14,7.79-8.3,11.71-12.42,2.92-3.06,6.38-5.13,10.71-5.34q55.27-2.61,110.55.07a13.32,13.32,0,0,1,4.54,1.31c6.51,2.86,10.26,8.8,14.91,13.71,2.58,2.73,4.73,5.87,7.12,8.86,1.83-1.06,4-1.81,5.43-3.23,6.55-6.26,12.95-12.68,19.33-19.11,7-7,13.82-14.21,20.84-21.21s14.28-13.74,21.27-20.76c8.56-8.6,16.94-17.38,25.43-26.05Q841.64,548.69,859,531q15.86-16.15,31.73-32.28c4.8-4.88,9.58-9.77,14.45-14.75-.8-.91-1.34-1.59-1.94-2.21q-19.8-20.37-39.62-40.72c-6.87-7-13.9-13.84-20.82-20.79q-7.48-7.51-14.89-15.11c-5.46-5.57-10.88-11.19-16.37-16.74s-11.08-11-16.6-16.58c-6.92-6.95-13.77-14-20.75-20.85s-14.09-13.62-21.08-20.48-14.08-14-21.17-21c-10.38-10.21-20.86-20.32-31.22-30.56-15.64-15.45-31.19-31-46.8-46.46-2.42-2.39-5.26-2.51-7.6-.21q-25.87,25.47-51.67,51c-8.88,8.76-17.81,17.47-26.69,26.21-7,6.89-13.94,13.83-21,20.69-5.58,5.47-11.27,10.83-16.85,16.3-5.22,5.12-10.36,10.31-15.51,15.5-5.49,5.54-10.92,11.14-16.43,16.66-5.34,5.35-10.8,10.57-16.12,16-7,7-13.82,14.24-20.79,21.3-8.47,8.57-17.05,17-25.51,25.6-7.34,7.44-14.61,15-21.88,22.47C407.6,470.51,401.32,477.08,394.84,483.82ZM649.52,778.21h0q70.29,0,140.56,0a26,26,0,0,0,5.22-.36c3.51-.74,4.12-2.92,1.73-5.54a29.12,29.12,0,0,1-2.09-2.61c-5.47-7.53-10.77-15.17-16.41-22.56-5-6.5-10.41-12.65-15.49-19.08-7.53-9.55-14.91-19.23-22.39-28.83-4-5.19-8.14-10.34-12.23-15.5s-8.19-10.3-12.32-15.42c-3.19-3.95-6.89-7.57-9.54-11.85-2.84-4.61-6.37-6.4-11.69-6.37-28.61.15-57.22.2-85.83,0-7-.06-13.32.26-16.49,7.82-.18.43-.72.69-1,1.08-4,4.88-8.12,9.71-12,14.67-3.55,4.48-6.81,9.19-10.39,13.64-7.23,9-14.68,17.82-21.85,26.85-3.79,4.77-7.08,9.93-10.8,14.75-5.52,7.17-11.31,14.14-16.85,21.31-5.75,7.46-11.3,15.07-17,22.56-1.74,2.29-1.28,4.38,1.55,5a29.71,29.71,0,0,0,6.33.45Q580,778.24,649.52,778.21Z" transform="translate(80 -107)"/><path d="M394.84,483.82c6.48-6.74,12.76-13.31,19.08-19.85,7.27-7.51,14.54-15,21.88-22.47,8.46-8.57,17-17,25.51-25.6,7-7.06,13.81-14.25,20.79-21.3,5.32-5.38,10.78-10.6,16.12-16,5.51-5.52,10.94-11.12,16.43-16.66,5.15-5.19,10.29-10.38,15.51-15.5,5.58-5.47,11.27-10.83,16.85-16.3,7-6.86,14-13.8,21-20.69,8.88-8.74,17.81-17.45,26.69-26.21q25.85-25.5,51.67-51c2.34-2.3,5.18-2.18,7.6.21,15.61,15.47,31.16,31,46.8,46.46,10.36,10.24,20.84,20.35,31.22,30.56,7.09,7,14.08,14,21.17,21S767.23,344.1,774.2,351,788,364.88,795,371.83c5.52,5.54,11.1,11,16.6,16.58s10.91,11.17,16.37,16.74q7.43,7.58,14.89,15.11c6.92,6.95,14,13.78,20.82,20.79q19.88,20.29,39.62,40.72c.6.62,1.14,1.3,1.94,2.21-4.87,5-9.65,9.87-14.45,14.75Q874.89,514.87,859,531q-17.37,17.68-34.7,35.41c-8.49,8.67-16.87,17.45-25.43,26.05-7,7-14.25,13.77-21.27,20.76s-13.86,14.18-20.84,21.21c-6.38,6.43-12.78,12.85-19.33,19.11-1.48,1.42-3.6,2.17-5.43,3.23-2.39-3-4.54-6.13-7.12-8.86-4.65-4.91-8.4-10.85-14.91-13.71a13.32,13.32,0,0,0-4.54-1.31q-55.28-2.7-110.55-.07c-4.33.21-7.79,2.28-10.71,5.34-3.92,4.12-7.81,8.28-11.71,12.42a18.14,18.14,0,0,0-1.48,1.68c-1,1.37-2.24,4.07-2.85,3.93a13.45,13.45,0,0,1-6.17-3.14c-7.78-7.45-15.37-15.09-23-22.74-7-7-13.79-14.23-20.8-21.23S503.94,595.35,497,588.34,483.17,574.1,476.24,567s-13.87-13.87-20.72-20.89c-13.06-13.38-26-26.84-39.08-40.22-6.27-6.44-12.64-12.78-18.95-19.18C396.63,485.87,395.84,484.93,394.84,483.82Zm255.08-56.57v-.2c-4.62,0-9.25.06-13.87,0q-58.68-.75-117.35-1.47a9.91,9.91,0,0,0-4.79,1.58c-4.15,2.43-8,5.51-12.29,7.56-7.26,3.46-12,9.37-15.12,16.18a45.55,45.55,0,0,0-3.68,16.7c-.52,12.2-1,24.53.21,36.64.75,7.58,1.44,16,7.69,22,3.92,3.79,7.64,7.81,11.76,11.37,5.26,4.53,11.85,4.75,18.4,4.88,38.6.77,77.21,1.94,115.82,2.22,26.73.19,53.47-.88,80.2-1.34,21.12-.35,42.24-.61,63.36-1,7.88-.13,14.94-2.42,20.47-8.34,2-2.15,4.3-4.21,5.74-6.72,3.17-5.57,7.1-11.07,7.21-17.74.28-17,.15-34,.2-51,0-5.62-3.75-9.65-6.36-14-1.92-3.21-5.11-5.72-8-8.31-6-5.5-13.07-9.08-21.4-9.1Q714,427.17,649.92,427.25Z" transform="translate(80 -107)" fill="#fff"/><path d="M649.52,778.21q-69.53,0-139.06,0a29.71,29.71,0,0,1-6.33-.45c-2.83-.64-3.29-2.73-1.55-5,5.7-7.49,11.25-15.1,17-22.56,5.54-7.17,11.33-14.14,16.85-21.31,3.72-4.82,7-10,10.8-14.75,7.17-9,14.62-17.85,21.85-26.85,3.58-4.45,6.84-9.16,10.39-13.64,3.93-5,8-9.79,12-14.67.31-.39.85-.65,1-1.08C595.72,650.3,602,650,609,650c28.61.22,57.22.17,85.83,0,5.32,0,8.85,1.76,11.69,6.37,2.65,4.28,6.35,7.9,9.54,11.85q6.2,7.68,12.32,15.42c4.09,5.16,8.18,10.31,12.23,15.5,7.48,9.6,14.86,19.28,22.39,28.83,5.08,6.43,10.51,12.58,15.49,19.08,5.64,7.39,10.94,15,16.41,22.56a29.12,29.12,0,0,0,2.09,2.61c2.39,2.62,1.78,4.8-1.73,5.54a26,26,0,0,1-5.22.36q-70.27,0-140.56,0Z" transform="translate(80 -107)" fill="#fff"/><path d="M649.92,427.25q64.13,0,128.24,0c8.33,0,15.35,3.6,21.4,9.1,2.85,2.59,6,5.1,8,8.31,2.61,4.37,6.37,8.4,6.36,14,0,17,.08,34-.2,51-.11,6.67-4,12.17-7.21,17.74-1.44,2.51-3.73,4.57-5.74,6.72-5.53,5.92-12.59,8.21-20.47,8.34-21.12.35-42.24.61-63.36,1-26.73.46-53.47,1.53-80.2,1.34-38.61-.28-77.22-1.45-115.82-2.22-6.55-.13-13.14-.35-18.4-4.88-4.12-3.56-7.84-7.58-11.76-11.37-6.25-6-6.94-14.47-7.69-22-1.2-12.11-.73-24.44-.21-36.64a45.55,45.55,0,0,1,3.68-16.7c3.12-6.81,7.86-12.72,15.12-16.18,4.32-2.05,8.14-5.13,12.29-7.56a9.91,9.91,0,0,1,4.79-1.58q58.68.63,117.35,1.47c4.62.06,9.25,0,13.87,0Zm-.43,100.38q62.06,0,124.09,0c6.68,0,11.72-3.36,16.55-7.29,1.52-1.24,3.68-2.67,4-4.29,1.24-7.23,5.35-13.61,5.25-21.32-.16-11.58.55-23-3.6-34.32-3.44-9.41-10.58-16.09-20.6-16.1q-125.4-.06-250.8-.27c-6.61,0-12.08,1.65-16.72,5.82-4,3.64-7.58,7.64-7.4,14,.35,12,.36,24,0,36-.28,8.52.29,16.28,8.77,20.95.11.05.16.2.26.27,4.48,3.43,9.2,6.53,15.08,6.53Q586.89,527.7,649.49,527.63Z" transform="translate(80 -107)"/><path d="M649.49,527.64q-62.6,0-125.2,0c-5.88,0-10.6-3.1-15.08-6.53-.1-.07-.15-.22-.26-.27-8.48-4.67-9.05-12.43-8.77-20.95.4-12,.39-24,0-36-.18-6.34,3.36-10.34,7.4-14,4.64-4.17,10.11-5.84,16.72-5.82q125.4.4,250.8.27c10,0,17.16,6.69,20.6,16.1,4.15,11.34,3.44,22.74,3.6,34.32.1,7.71-4,14.09-5.25,21.32-.28,1.62-2.44,3-4,4.29-4.83,3.93-9.87,7.3-16.55,7.29Q711.54,527.57,649.49,527.64Z" transform="translate(80 -107)" fill="#fff"/></svg>