<svg id="Layer_1" data-name="Layer 1" xmlns="http://www.w3.org/2000/svg" viewBox="457 -40 593 853"><title>icono aparato</title><path d="M-80,917V107H1360V917ZM500,505.63h-.08V575q0,100.86,0,201.73c0,2.6-.35,5.8,1,7.67a114.7,114.7,0,0,0,12.18,14.51c4,4.13,8.4,7.78,14.2,9.9s10.5,6.33,16.78,7.22a9.89,9.89,0,0,1,2.11.76c5.64,2.21,11.26,4.47,16.94,6.58a19.21,19.21,0,0,0,4.06.61c2.22.31,4.46.54,6.67,1,10.25,1.95,20.42,4.95,30.75,5.71,16,1.17,32.2,1.26,48.29.92,7.76-.16,15.5-2.24,23.21-3.63,8.67-1.57,17.31-3.34,25.95-5.06a12.1,12.1,0,0,0,1.74-.69c5.57-2.05,11-4.51,16.76-6.05,10.51-2.83,20.4-6.84,29-13.66,3.68-2.94,8.56-4.59,10.13-9.92.89-3,2.88-5.71,4.12-8.65,1-2.43,2.37-5,2.38-7.52q.33-57.93.3-115.86-.06-205.11-.24-410.23c0-8.5,1.5-17.25-3.28-25.21-2.28-3.78-3.7-8.16-6.4-11.56-5.32-6.7-13-10.61-20.75-13.34a78.55,78.55,0,0,0-26.33-4.68c-51.5.18-103-.05-154.49.22a122.44,122.44,0,0,0-27.48,3c-10.9,2.59-20.78,8-24.61,19.64a54.27,54.27,0,0,0-2.75,16.51Q499.85,370.26,500,505.63Z" transform="translate(80 -107)" fill="#fff"/><path d="M500,505.63q0-135.36.11-270.73a54.27,54.27,0,0,1,2.75-16.51c3.83-11.68,13.71-17,24.61-19.64a122.44,122.44,0,0,1,27.48-3c51.49-.27,103,0,154.49-.22a78.55,78.55,0,0,1,26.33,4.68c7.78,2.73,15.43,6.64,20.75,13.34,2.7,3.4,4.12,7.78,6.4,11.56,4.78,8,3.28,16.71,3.28,25.21q.2,205.11.24,410.23,0,57.93-.3,115.86c0,2.52-1.36,5.09-2.38,7.52-1.24,2.94-3.23,5.62-4.12,8.65-1.57,5.33-6.45,7-10.13,9.92-8.55,6.82-18.44,10.83-29,13.66-5.72,1.54-11.19,4-16.76,6.05a12.1,12.1,0,0,1-1.74.69c-8.64,1.72-17.28,3.49-25.95,5.06-7.71,1.39-15.45,3.47-23.21,3.63-16.09.34-32.25.25-48.29-.92-10.33-.76-20.5-3.76-30.75-5.71-2.21-.42-4.45-.65-6.67-1a19.21,19.21,0,0,1-4.06-.61c-5.68-2.11-11.3-4.37-16.94-6.58a9.89,9.89,0,0,0-2.11-.76c-6.28-.89-11.11-5.15-16.78-7.22s-10.15-5.77-14.2-9.9a114.7,114.7,0,0,1-12.18-14.51c-1.31-1.87-1-5.07-1-7.67q-.06-100.86,0-201.73V505.63Zm249.53,1.88q0-117.36,0-234.74,0-17.06-.54-34.11a23.31,23.31,0,0,0-7.65-16.46,16.8,16.8,0,0,0-5.52-3.75c-5-1.83-9.26-5.62-15.12-5.61-55.49.09-111-.14-166.49.25-9.16.06-18.67,1.7-26.49,7.46-6,4.41-10.2,10.19-10.41,18q-.4,15.36-.4,30.74,0,251.24-.16,502.47c0,7,2.58,11.54,8.18,15,2.65,1.62,5.23,3.37,8,4.81,7.08,3.69,14,7.92,21.44,10.66,7.05,2.6,14.69,3.58,22.07,5.28a8.5,8.5,0,0,1,2.51.73c4.6,2.84,9.73,2.86,14.87,3,2.36.09,4.92-.09,7,.75,8.49,3.4,17.4,2.77,26.22,3.52,19,1.62,37.4-3.32,56.08-5.11a11.72,11.72,0,0,0,1.81-.46c8.59-2.37,17.23-4.59,25.76-7.15,5.33-1.59,10.78-3.18,15.67-5.73,5.69-3,10.88-6.89,16.18-10.55,4.68-3.22,7.19-7.14,7.18-13.52Q749.32,640.26,749.51,507.51Z" transform="translate(80 -107)"/><path d="M749.51,507.51q0,132.74.17,265.48c0,6.38-2.5,10.3-7.18,13.52-5.3,3.66-10.49,7.59-16.18,10.55-4.89,2.55-10.34,4.14-15.67,5.73-8.53,2.56-17.17,4.78-25.76,7.15a11.72,11.72,0,0,1-1.81.46c-18.68,1.79-37,6.73-56.08,5.11-8.82-.75-17.73-.12-26.22-3.52-2.11-.84-4.67-.66-7-.75-5.14-.19-10.27-.21-14.87-3a8.5,8.5,0,0,0-2.51-.73c-7.38-1.7-15-2.68-22.07-5.28-7.45-2.74-14.36-7-21.44-10.66-2.74-1.44-5.32-3.19-8-4.81-5.6-3.42-8.19-7.92-8.18-15q.28-251.23.16-502.47,0-15.37.4-30.74c.21-7.8,4.42-13.58,10.41-18,7.82-5.76,17.33-7.4,26.49-7.46,55.5-.39,111-.16,166.49-.25,5.86,0,10.08,3.78,15.12,5.61a16.8,16.8,0,0,1,5.52,3.75A23.31,23.31,0,0,1,749,238.66q.52,17.06.54,34.11Q749.57,390.15,749.51,507.51ZM729,327h-.23c0-16.62-.33-33.25.17-49.85.2-6.77-2.06-12.88-4.93-18.1-5.08-9.24-11.91-17.61-24-18.34-1.45-.09-2.85-.85-4.3-1.22-3.23-.82-6.44-1.78-9.72-2.35-4.66-.82-9.37-1.29-14.05-2-4.17-.63-8.31-1.89-12.49-2-12.49-.3-25-.2-37.49-.2-10.85,0-21.77-.61-32.28,3.12a16.61,16.61,0,0,1-4.07.61c-7.39.64-15-.23-21.82,3.9-4,2.42-8.89,3.68-12.16,6.76-8.5,8-13.86,18.08-14.06,29.92-.53,31.11-.63,62.22-.74,93.34a40.06,40.06,0,0,0,1.5,11.81c1.86,6.1,4.68,11.9,6.78,17.93,2,5.84,3.67,11.82,5.5,17.72a12.44,12.44,0,0,0,.75,1.72c2.07,4.33,4.11,8.69,6.24,13,1.41,2.88,2.92,5.71,4.43,8.53,2.33,4.33,4.3,8.93,7.16,12.87,4.68,6.45,9.9,12.5,15,18.61a31.1,31.1,0,0,0,6,5.92c5.53,3.76,11.26,7.23,17,10.67,5,3,9.76,6.36,16.14,6.07,7.23-.34,14.48,0,21.73-.15a11.54,11.54,0,0,0,5.4-1.16c7.79-4.56,15.45-9.33,23.12-14.1a27.85,27.85,0,0,0,5.62-4.14c3.32-3.5,6.31-7.31,9.51-10.94,8.09-9.2,13.74-20,19.6-30.6,2.09-3.79,3.69-7.86,5.42-11.84,2.27-5.19,4.72-10.33,6.6-15.66,2-5.56,5.34-10.7,5.34-16.89a1.67,1.67,0,0,1,.43-1c3-3.27,2.84-7.35,2.84-11.33Q729.06,352.32,729,327Z" transform="translate(80 -107)" fill="#fff"/><path d="M729,327q0,25.31,0,50.62c0,4,.15,8.06-2.84,11.33a1.67,1.67,0,0,0-.43,1c0,6.19-3.37,11.33-5.34,16.89-1.88,5.33-4.33,10.47-6.6,15.66-1.73,4-3.33,8.05-5.42,11.84-5.86,10.62-11.51,21.4-19.6,30.6-3.2,3.63-6.19,7.44-9.51,10.94a27.85,27.85,0,0,1-5.62,4.14c-7.67,4.77-15.33,9.54-23.12,14.1a11.54,11.54,0,0,1-5.4,1.16c-7.25.13-14.5-.19-21.73.15-6.38.29-11.16-3.08-16.14-6.07-5.74-3.44-11.47-6.91-17-10.67a31.1,31.1,0,0,1-6-5.92c-5.12-6.11-10.34-12.16-15-18.61-2.86-3.94-4.83-8.54-7.16-12.87-1.51-2.82-3-5.65-4.43-8.53-2.13-4.31-4.17-8.67-6.24-13a12.44,12.44,0,0,1-.75-1.72c-1.83-5.9-3.47-11.88-5.5-17.72-2.1-6-4.92-11.83-6.78-17.93a40.06,40.06,0,0,1-1.5-11.81c.11-31.12.21-62.23.74-93.34.2-11.84,5.56-21.92,14.06-29.92,3.27-3.08,8.18-4.34,12.16-6.76,6.82-4.13,14.43-3.26,21.82-3.9a16.61,16.61,0,0,0,4.07-.61c10.51-3.73,21.43-3.13,32.28-3.12,12.5,0,25-.1,37.49.2,4.18.1,8.32,1.36,12.49,2,4.68.71,9.39,1.18,14.05,2,3.28.57,6.49,1.53,9.72,2.35,1.45.37,2.85,1.13,4.3,1.22,12.12.73,19,9.1,24,18.34,2.87,5.22,5.13,11.33,4.93,18.1-.5,16.6-.17,33.23-.17,49.85ZM628.25,251.27c-1.69-.58-2.83-1.32-3.93-1.28-8.82.39-17.66.74-26.46,1.5-5.18.44-10.3,2.22-15.45,2.29-6.44.08-12.07,2.48-17.4,5.23-3.29,1.7-7.19,4.33-7,9.34,0,.69-.52,1.39-.7,2.12-1,4.3-2.89,8.6-2.93,12.92-.26,29.37-.2,58.74-.07,88.12,0,3.16,1,6.35,1.77,9.48.6,2.53,1.54,5,2.3,7.46,1.82,5.92,3.51,11.89,5.49,17.75a98.59,98.59,0,0,0,4.3,10.3c2.13,4.49,4.27,9,6.74,13.3,4.37,7.62,8.34,15.62,13.69,22.52,6.29,8.11,13.75,15.3,22.93,20.48,5.88,3.32,11.45,7,18.69,5.68,1.82-.32,3.75,0,5.62-.09,5.46-.32,10.48-.3,15.84-3.62A92.44,92.44,0,0,0,674.21,455c5.61-6.76,10.58-14.08,15.61-21.31,4.23-6.09,6.94-13,9.58-19.88,2.08-5.43,3.84-11,5.78-16.45,3.11-8.8,6.74-17.52,6.76-27,0-30.12.09-60.24-.36-90.36-.08-5.16-2-10.57-4.24-15.31-1.33-2.84-4.68-5-7.54-6.8-5.71-3.59-12.28-3.65-18.81-4-5.57-.33-11.06-1.76-16.62-2.3-7.56-.75-15.15-1.18-22.73-1.56-1.21-.06-2.47.87-4.14,1.51,12.3,8.84,14.06,16.6,1.77,30,2.38.48,4.35,1.19,6.33,1.22,12.49.18,25,.16,37.49.29a12.67,12.67,0,0,1,12.44,12.37q.08,24.75,0,49.5c0,5.57-2.36,9.05-7.81,9.76A276.42,276.42,0,0,1,660.17,357c-27,.79-53.95,1.82-80.75-2.63-7.45-1.23-8.59-2.33-8.6-9.89q0-24,0-48c0-8.18,5.34-13.47,13.59-13.5,12,0,24,0,36-.17,2.09,0,4.18-.77,6.72-1.27C615.6,269.14,615.43,262.7,628.25,251.27Zm4.8,94c15,0,30,0,45,0,3.46,0,5-1.18,5-4.77-.09-13.36,0-26.72-.06-40.09,0-4.29-.74-4.92-5.13-4.93q-44.6,0-89.18,0c-4.71,0-5.39.66-5.41,5.48q-.07,19.31,0,38.6c0,5.16.62,5.68,6,5.68Q611.13,345.3,633.05,345.28Z" transform="translate(80 -107)"/><path d="M628.25,251.27c-12.82,11.43-12.65,17.87-1.12,30.3-2.54.5-4.63,1.24-6.72,1.27-12,.15-24,.13-36,.17-8.25,0-13.58,5.32-13.59,13.5q0,24,0,48c0,7.56,1.15,8.66,8.6,9.89,26.8,4.45,53.79,3.42,80.75,2.63a276.42,276.42,0,0,0,27.55-2.37c5.45-.71,7.8-4.19,7.81-9.76q.06-24.75,0-49.5A12.67,12.67,0,0,0,683.09,283c-12.5-.13-25-.11-37.49-.29-2,0-4-.74-6.33-1.22,12.29-13.45,10.53-21.21-1.77-30,1.67-.64,2.93-1.57,4.14-1.51,7.58.38,15.17.81,22.73,1.56,5.56.54,11,2,16.62,2.3,6.53.38,13.1.44,18.81,4,2.86,1.79,6.21,4,7.54,6.8,2.23,4.74,4.16,10.15,4.24,15.31.45,30.12.4,60.24.36,90.36,0,9.5-3.65,18.22-6.76,27-1.94,5.48-3.7,11-5.78,16.45-2.64,6.88-5.35,13.79-9.58,19.88-5,7.23-10,14.55-15.61,21.31a92.44,92.44,0,0,1-22.54,19.79c-5.36,3.32-10.38,3.3-15.84,3.62-1.87.12-3.8-.23-5.62.09-7.24,1.29-12.81-2.36-18.69-5.68-9.18-5.18-16.64-12.37-22.93-20.48-5.35-6.9-9.32-14.9-13.69-22.52-2.47-4.31-4.61-8.81-6.74-13.3a98.59,98.59,0,0,1-4.3-10.3c-2-5.86-3.67-11.83-5.49-17.75-.76-2.49-1.7-4.93-2.3-7.46-.76-3.13-1.76-6.32-1.77-9.48-.13-29.38-.19-58.75.07-88.12,0-4.32,1.89-8.62,2.93-12.92.18-.73.72-1.43.7-2.12-.18-5,3.72-7.64,7-9.34,5.33-2.75,11-5.15,17.4-5.23,5.15-.07,10.27-1.85,15.45-2.29,8.8-.76,17.64-1.11,26.46-1.5C625.42,250,626.56,250.69,628.25,251.27Zm46.68,158.3h-.17c0-5.87,0-11.74,0-17.61,0-3.55-3.33-8-6.68-8.92-3.71-1-7.43-2.4-11.23-2.77-18.49-1.83-37-3.27-55.19,2.32-6.4,2-10.07,6.42-10.17,13.06-.14,9.36-.73,18.8.22,28.06.58,5.72,3.32,11.33,5.75,16.69,1.39,3.08,3.88,5.78,6.29,8.23a70.45,70.45,0,0,0,9.31,7.95c2.8,2,5.83,4.27,9.06,4.93,9.6,2,19.31,2.82,28-3.43,3.51-2.53,7-5.1,10.39-7.79,9-7.14,14.66-16.05,14.46-28C674.87,418.06,674.93,413.81,674.93,409.57Z" transform="translate(80 -107)" fill="#fff"/><path d="M633.05,345.28q-21.93,0-43.84,0c-5.35,0-6-.52-6-5.68q-.06-19.31,0-38.6c0-4.82.7-5.47,5.41-5.48q44.6,0,89.18,0c4.39,0,5.11.64,5.13,4.93.06,13.37,0,26.73.06,40.09,0,3.59-1.56,4.8-5,4.77C663,345.23,648,345.28,633.05,345.28Z" transform="translate(80 -107)" fill="#fff"/><path d="M674.93,409.57c0,4.24-.06,8.49,0,12.74.2,11.93-5.45,20.84-14.46,28-3.39,2.69-6.88,5.26-10.39,7.79-8.67,6.25-18.38,5.41-28,3.43-3.23-.66-6.26-2.93-9.06-4.93a70.45,70.45,0,0,1-9.31-7.95c-2.41-2.45-4.9-5.15-6.29-8.23-2.43-5.36-5.17-11-5.75-16.69-1-9.26-.36-18.7-.22-28.06.1-6.64,3.77-11.1,10.17-13.06,18.2-5.59,36.7-4.15,55.19-2.32,3.8.37,7.52,1.74,11.23,2.77,3.35.94,6.65,5.37,6.68,8.92,0,5.87,0,11.74,0,17.61Zm-40.68-17.64v-.13c-7.37,0-14.74-.09-22.1,0-3.92.07-7.49,2.85-8.21,6-2.16,9.47.09,18.87.63,28.29a3.36,3.36,0,0,0,.73,1.69c3.68,4.94,7.32,9.91,11.13,14.74,3.22,4.09,7,7.35,12.75,7.06,4.47-.22,9-.23,13.41-.56a5.15,5.15,0,0,0,2.73-1.69c3.44-3.38,6.75-6.9,10.19-10.28,4.24-4.16,7.21-8.77,6.87-15.07-.14-2.71.58-5.47.57-8.2,0-5.6-.14-11.2-.53-16.78-.23-3.25-2.13-5.15-5.7-5.12C649.23,392,641.74,391.93,634.25,391.93Z" transform="translate(80 -107)"/><path d="M634.25,391.93c7.49,0,15,.05,22.47,0,3.57,0,5.47,1.87,5.7,5.12.39,5.58.5,11.18.53,16.78,0,2.73-.71,5.49-.57,8.2.34,6.3-2.63,10.91-6.87,15.07-3.44,3.38-6.75,6.9-10.19,10.28a5.15,5.15,0,0,1-2.73,1.69c-4.46.33-8.94.34-13.41.56-5.75.29-9.53-3-12.75-7.06-3.81-4.83-7.45-9.8-11.13-14.74a3.36,3.36,0,0,1-.73-1.69c-.54-9.42-2.79-18.82-.63-28.29.72-3.13,4.29-5.91,8.21-6,7.36-.13,14.73,0,22.1,0Z" transform="translate(80 -107)" fill="#fff"/></svg>