<svg id="Layer_1" data-name="Layer 1" xmlns="http://www.w3.org/2000/svg" viewBox="407 -50 613 896"><title>icono textil</title><path d="M1360,917H-80V107H1360ZM667.11,828.54v-.06c26,0,52-.13,78,.06,11.36.08,20.56-3.78,27.39-13,4.55-6.12,7.63-12.37,7.61-20.63q-.39-158.84-.1-317.67c0-7.66.36-15.31-4.87-21.55a83.77,83.77,0,0,0-11.27-11.17,59.37,59.37,0,0,0-10.83-6.43c-5.26-2.65-10-6.18-16.13-7.37-3.06-.59-7.32-3.53-8-6.19-2.39-9.24-5.23-18.5-4.84-28.32.14-3.53-.88-7.13-1.51-10.68-.75-4.28-1.67-8.53-2.46-12.81-.31-1.71.12-3.92-.8-5.1-5.07-6.48-4.22-12.6.41-18.75.08-.09.07-.24.13-.35,2.13-4.2,4.1-8.49,6.44-12.57,3.57-6.22,7.26-12.37,11.15-18.38A134.65,134.65,0,0,1,747.17,304c7.37-8.77,15.23-17.12,22.53-25.94,2-2.47,4-6,3.91-9s-2.31-6.25-4.48-8.57a101,101,0,0,0-12.26-10.82,176.4,176.4,0,0,0-14.67-10.16c-5.68-3.53-11.58-6.71-17.43-10-4.3-2.38-8.61-4.75-13-6.91s-8.77-3.86-13.1-5.9c-4.8-2.26-9.38-5-14.32-6.92-5.65-2.12-11.58-3.48-17.39-5.19-.71-.21-1.38-.59-2.1-.78-8.93-2.4-17.79-5.18-26.83-7-6.08-1.23-12.43-1.07-18.65-1.58-11.05-.92-22.09-2-33.15-2.72-2.76-.17-5.62.83-8.38,1.49-3,.72-5.92,2-9,2.44-7.8,1.21-10.51,3.71-11.28,11.5-.34,3.44-1.72,5.15-5.42,5.08-6.12-.11-12.25.12-18.37.22-6.46.09-9.31,2-9.57,8.42-.49,12.46-.36,25-.08,37.45.11,4.56,2.42,6.27,7.07,6.53,3.36.19,6.74,0,10.12.09,6.83.13,8.75,3.55,5.84,9.73-1.19,2.52-1.65,5.39-2.35,8.13-1.86,7.29-3.66,14.59-5.53,21.88-.14.57-.76,1-1,1.57-.66,1.59-1.32,3.18-1.82,4.82-1.93,6.25-3.79,12.51-5.7,18.76-.15.46-.59.82-.78,1.27-.8,1.92-1.6,3.85-2.33,5.8-.44,1.15-.62,2.42-1.17,3.51-2.15,4.3-4.39,8.55-6.64,12.8-3.46,6.55-6.59,13.31-10.54,19.55-4.49,7.1-9.9,13.6-14.48,20.64-1,1.45-.77,4.57.19,6.13,1.83,3,10.33,5.18,13.51,3.33a175.3,175.3,0,0,0,19.51-12.87c5.35-4.2,9.69-9.65,14.85-14.11,9.49-8.21,19.17-16.18,28.91-24.08,6.65-5.4,13.42-10.67,20.35-15.69,5.41-3.92,11.12-7.44,16.77-11,4.89-3.09,9.86-6.06,14.86-9a11.09,11.09,0,0,1,3.92-1.23c3.35-.5,4.75,1.28,4.1,4.58-.72,3.65-1.09,7.37-1.62,11.07-.58,4.06-1.08,8.14-1.8,12.18a89.39,89.39,0,0,1-2.59,11.61c-.79,2.44-2,5.57-4,6.61-3.52,1.87-4.83,4.28-5.07,7.92-.1,1.46-.83,2.87-1.15,4.33-.87,4-1.91,7.95-2.46,12-.68,4.94-.73,10-1.41,14.9-.87,6.26-2.26,12.46-3.12,18.73-.47,3.44-1.45,6.32-4.74,7.93-6.23,3.05-12.86,5.49-18.6,9.27a158.53,158.53,0,0,0-21.66,16.94,20.19,20.19,0,0,0-5.88,12c-1.51,20.43-3,40.93-3,61.4,0,55.74.6,111.48,1.14,167.23q.52,53.43,1.64,106.86a18.44,18.44,0,0,0,3.23,9.59c3,4.32,6.36,8.86,10.65,11.67s8.8,6.28,15.1,6.19C613.36,828.32,640.24,828.54,667.11,828.54Z" transform="translate(80 -107)" fill="#fff"/><path d="M667.11,828.54c-26.87,0-53.75-.22-80.62.17-6.3.09-10.68-3.3-15.1-6.19s-7.65-7.35-10.65-11.67a18.44,18.44,0,0,1-3.23-9.59q-1.08-53.43-1.64-106.86c-.54-55.75-1.17-111.49-1.14-167.23,0-20.47,1.51-41,3-61.4a20.19,20.19,0,0,1,5.88-12,158.53,158.53,0,0,1,21.66-16.94c5.74-3.78,12.37-6.22,18.6-9.27,3.29-1.61,4.27-4.49,4.74-7.93.86-6.27,2.25-12.47,3.12-18.73.68-4.94.73-10,1.41-14.9.55-4,1.59-8,2.46-12,.32-1.46,1-2.87,1.15-4.33.24-3.64,1.55-6.05,5.07-7.92,2-1,3.18-4.17,4-6.61a89.39,89.39,0,0,0,2.59-11.61c.72-4,1.22-8.12,1.8-12.18.53-3.7.9-7.42,1.62-11.07.65-3.3-.75-5.08-4.1-4.58a11.09,11.09,0,0,0-3.92,1.23c-5,2.9-10,5.87-14.86,9-5.65,3.58-11.36,7.1-16.77,11-6.93,5-13.7,10.29-20.35,15.69-9.74,7.9-19.42,15.87-28.91,24.08-5.16,4.46-9.5,9.91-14.85,14.11a175.3,175.3,0,0,1-19.51,12.87c-3.18,1.85-11.68-.33-13.51-3.33-1-1.56-1.14-4.68-.19-6.13,4.58-7,10-13.54,14.48-20.64,3.95-6.24,7.08-13,10.54-19.55,2.25-4.25,4.49-8.5,6.64-12.8.55-1.09.73-2.36,1.17-3.51.73-1.95,1.53-3.88,2.33-5.8.19-.45.63-.81.78-1.27,1.91-6.25,3.77-12.51,5.7-18.76.5-1.64,1.16-3.23,1.82-4.82.23-.57.85-1,1-1.57,1.87-7.29,3.67-14.59,5.53-21.88.7-2.74,1.16-5.61,2.35-8.13,2.91-6.18,1-9.6-5.84-9.73-3.38-.06-6.76.1-10.12-.09-4.65-.26-7-2-7.07-6.53-.28-12.48-.41-25,.08-37.45.26-6.45,3.11-8.33,9.57-8.42,6.12-.1,12.25-.33,18.37-.22,3.7.07,5.08-1.64,5.42-5.08.77-7.79,3.48-10.29,11.28-11.5,3-.47,6-1.72,9-2.44,2.76-.66,5.62-1.66,8.38-1.49,11.06.69,22.1,1.8,33.15,2.72,6.22.51,12.57.35,18.65,1.58,9,1.84,17.9,4.62,26.83,7,.72.19,1.39.57,2.1.78,5.81,1.71,11.74,3.07,17.39,5.19,4.94,1.87,9.52,4.66,14.32,6.92,4.33,2,8.8,3.8,13.1,5.9s8.72,4.53,13,6.91c5.85,3.25,11.75,6.43,17.43,10a176.4,176.4,0,0,1,14.67,10.16,101,101,0,0,1,12.26,10.82c2.17,2.32,4.39,5.64,4.48,8.57s-1.86,6.52-3.91,9c-7.3,8.82-15.16,17.17-22.53,25.94a134.65,134.65,0,0,0-9.74,13.66c-3.89,6-7.58,12.16-11.15,18.38-2.34,4.08-4.31,8.37-6.44,12.57-.06.11-.05.26-.13.35-4.63,6.15-5.48,12.27-.41,18.75.92,1.18.49,3.39.8,5.1.79,4.28,1.71,8.53,2.46,12.81.63,3.55,1.65,7.15,1.51,10.68-.39,9.82,2.45,19.08,4.84,28.32.69,2.66,5,5.6,8,6.19,6.12,1.19,10.87,4.72,16.13,7.37a59.37,59.37,0,0,1,10.83,6.43,83.77,83.77,0,0,1,11.27,11.17c5.23,6.24,4.88,13.89,4.87,21.55q-.15,158.84.1,317.67c0,8.26-3.06,14.51-7.61,20.63-6.83,9.18-16,13-27.39,13-26-.19-52-.06-78-.06ZM569.35,636.91h.6c0,3.75,0,7.5,0,11.25q.16,53.82.34,107.64.09,22.13.38,44.25c.07,5.68,3.58,9.07,8.08,12,5.16,3.33,10.81,3.55,16.58,3.55q66.95,0,133.88-.06a131,131,0,0,0,21.62-1.41c3.87-.67,8.77-2.78,10.67-5.82a31.68,31.68,0,0,0,5.07-17.76c-.16-4.86.13-9.74.14-14.62q.07-149.83.14-299.67a6.47,6.47,0,0,0,0-1.87c-.68-2.06-.93-4.61-2.31-6-4.92-5.08-9.91-10.22-15.52-14.49a71.55,71.55,0,0,0-15.72-8.92c-5.9-2.46-12.27-3.78-18.43-5.61-.6-.18-1.16-.5-1.76-.64-4.18-1-8.36-2.79-12.56-2.85q-30.56-.45-61.12-.05c-8,.1-16.34-1.08-23.74,3.58-.69.43-1.73.25-2.56.51-5.52,1.73-11,3.5-16.54,5.27a3,3,0,0,0-.65.37c-4.1,2.55-8.48,4.75-12.25,7.73-7.39,5.84-14.33,12.13-14.32,22.78Q569.39,556.45,569.35,636.91Zm190.43-367c-1.53-2-2.32-3.74-3.66-4.71-4.62-3.32-9.39-6.43-14.16-9.53-6.71-4.36-13.44-8.71-20.23-12.94-2.92-1.82-6-3.4-9.06-5-6.89-3.61-13.64-7.54-20.75-10.64-5.48-2.39-11.43-3.69-17.16-5.5-.59-.19-1.08-.64-1.66-.85-2.53-.92-5.05-1.88-7.63-2.64-1.54-.46-3.22-.44-4.77-.87-8.09-2.26-16.06-5.06-24.27-6.77-8.58-1.8-17.38-2.12-26.1-3.81a68.9,68.9,0,0,0-36.28,2.4c-2.52.91-3.48,2.27-3.65,4.89-.28,4.22-.89,8.42-1.5,12.61-.78,5.29-1.68,10.56-2.55,15.83q-2.48,15-5,30.08c-.06.36-.28.7-.37,1.06-1.15,4.54-2.27,9.09-3.44,13.62-.49,1.92-1.08,3.82-1.62,5.73-.78,2.73-1.6,5.46-2.34,8.21-1.81,6.66-3.58,13.33-5.38,20a10.41,10.41,0,0,1-.52,1c-1,2.53-1.92,5.07-2.9,7.6-.48,1.26-1,2.53-1.51,3.77q-3.42,7.77-6.86,15.54c-.93,2.11-1.84,4.24-2.86,6.3-1.68,3.43-3.56,6.76-5.12,10.24a4.91,4.91,0,0,0-.1,3.63c.29.64,2.31,1.28,2.84.9a70.86,70.86,0,0,0,5.51-4.93c5.68-5,11.27-10.18,17.12-15,8.26-6.79,16.57-13.51,25.14-19.9,7.11-5.3,14.53-10.23,22-15,4.79-3.07,10.08-5.35,14.88-8.4,5.31-3.38,10.48-6.9,16.74-8.32.58-.14,1.06-.66,1.64-.87,6.24-2.31,12.36-5.93,18.77-6.59,11.25-1.14,22.7-.74,34-.44,7.38.2,10.71,4.62,11.67,11.95,1.46,11.07,3.58,22.05,5.42,33.07,0,.24.07.57.23.7,1.1.84,2.18,2.16,3.38,2.28,1,.1,2.48-1,3.06-2,1.93-3.3,3.48-6.83,5.29-10.2a85.38,85.38,0,0,1,5.33-9.25c4.93-7,9.91-13.91,15.24-20.57,5.2-6.5,10.84-12.64,16.3-18.92C755.08,275.14,757.23,272.74,759.78,269.86ZM668.1,376v0c-11,0-22,.13-33-.07-4.22-.07-6.63,1.82-7.78,5.55a46,46,0,0,0-1.08,6.24q-1.39,8.64-2.77,17.28c-.28,1.73-.65,3.44-.78,5.18-.9,11.75.54,13.17,12.2,12.42,12-.78,24.07-1.64,36.12-2.2a116.07,116.07,0,0,1,13.43.53c7.83.53,15.63,1.27,23.46,1.77,2.5.17,4.14-1.24,4-3.85-.53-9.09-1-18.18-1.92-27.23-.36-3.4-2.24-6.62-2.9-10-1-5.07-1.14-5.52-6.44-5.56C689.82,376,679,376,668.1,376Zm.36-13.49h0c2.62,0,5.25,0,7.87,0s5.52.08,8.25-.19c6.71-.66,10.35-4.6,9.54-11.12-.78-6.26-3.14-12.38-3.48-18.63a99.76,99.76,0,0,0-5.1-25.51,6.07,6.07,0,0,0-2.85-3.45,16.8,16.8,0,0,0-7.19-1.66c-7.08.34-14.19.87-21.2,1.91a7.93,7.93,0,0,0-6.83,6.61c-1.82,9.63-5.31,19-4.84,29,.08,1.85-1.35,3.73-1.76,5.67a64.53,64.53,0,0,0-1.68,10.64c-.05,1.29,1.47,3.52,2.66,3.84a98.49,98.49,0,0,0,14.62,2.81C660.42,362.87,664.46,362.52,668.46,362.52Zm-132-123.35v6.37c0,7.29,1.54,8.72,8.91,8.29,5.11-.29,7.39-2.53,7.76-7.63.28-4,.66-8,.81-11.94.09-2.51,3.46-5.36.06-7.4-2.27-1.37-5.29-1.59-8-2.05a20.4,20.4,0,0,0-4.47.17c-3.52.19-5.15,2.06-5.07,5.57C536.48,233.42,536.42,236.29,536.43,239.17Z" transform="translate(80 -107)"/><path d="M569.35,636.91q0-80.45,0-160.9c0-10.65,6.93-16.94,14.32-22.78,3.77-3,8.15-5.18,12.25-7.73a3,3,0,0,1,.65-.37c5.51-1.77,11-3.54,16.54-5.27.83-.26,1.87-.08,2.56-.51,7.4-4.66,15.72-3.48,23.74-3.58q30.55-.36,61.12.05c4.2.06,8.38,1.84,12.56,2.85.6.14,1.16.46,1.76.64,6.16,1.83,12.53,3.15,18.43,5.61A71.55,71.55,0,0,1,749,453.84c5.61,4.27,10.6,9.41,15.52,14.49,1.38,1.43,1.63,4,2.31,6a6.47,6.47,0,0,1,0,1.87q-.08,149.84-.14,299.67c0,4.88-.3,9.76-.14,14.62a31.68,31.68,0,0,1-5.07,17.76c-1.9,3-6.8,5.15-10.67,5.82a131,131,0,0,1-21.62,1.41q-66.93.16-133.88.06c-5.77,0-11.42-.22-16.58-3.55-4.5-2.91-8-6.3-8.08-12q-.3-22.12-.38-44.25Q570.08,702,570,648.16c0-3.75,0-7.5,0-11.25Zm31-34.74q0,42.38,0,84.76c0,7,2.23,9.21,9.23,9.27,11.87.09,23.75.1,35.62.1,27.38,0,54.75-.1,82.12,0,3.58,0,6.4-1,7.14-4.59,1.09-5.34,2.35-10.78,2.37-16.17q.27-71.44.06-142.89a56.64,56.64,0,0,0-1.07-10.79c-2.53-12.75-3.45-13.52-16.48-13.55q-48-.12-96-.06a140.94,140.94,0,0,0-15,.69c-7.38.8-8,1.71-8,9.27Q600.32,560.17,600.35,602.17Z" transform="translate(80 -107)" fill="#fff"/><path d="M759.78,269.86c-2.55,2.88-4.7,5.28-6.82,7.72-5.46,6.28-11.1,12.42-16.3,18.92-5.33,6.66-10.31,13.61-15.24,20.57a85.38,85.38,0,0,0-5.33,9.25c-1.81,3.37-3.36,6.9-5.29,10.2-.58,1-2.09,2.12-3.06,2-1.2-.12-2.28-1.44-3.38-2.28-.16-.13-.19-.46-.23-.7-1.84-11-4-22-5.42-33.07-1-7.33-4.29-11.75-11.67-11.95-11.34-.3-22.79-.7-34,.44-6.41.66-12.53,4.28-18.77,6.59-.58.21-1.06.73-1.64.87-6.26,1.42-11.43,4.94-16.74,8.32-4.8,3.05-10.09,5.33-14.88,8.4-7.48,4.78-14.9,9.71-22,15-8.57,6.39-16.88,13.11-25.14,19.9-5.85,4.82-11.44,10-17.12,15a70.86,70.86,0,0,1-5.51,4.93c-.53.38-2.55-.26-2.84-.9a4.91,4.91,0,0,1,.1-3.63c1.56-3.48,3.44-6.81,5.12-10.24,1-2.06,1.93-4.19,2.86-6.3q3.44-7.77,6.86-15.54c.54-1.24,1-2.51,1.51-3.77,1-2.53,1.93-5.07,2.9-7.6a10.41,10.41,0,0,0,.52-1c1.8-6.67,3.57-13.34,5.38-20,.74-2.75,1.56-5.48,2.34-8.21.54-1.91,1.13-3.81,1.62-5.73,1.17-4.53,2.29-9.08,3.44-13.62.09-.36.31-.7.37-1.06q2.5-15,5-30.08c.87-5.27,1.77-10.54,2.55-15.83.61-4.19,1.22-8.39,1.5-12.61.17-2.62,1.13-4,3.65-4.89a68.9,68.9,0,0,1,36.28-2.4c8.72,1.69,17.52,2,26.1,3.81,8.21,1.71,16.18,4.51,24.27,6.77,1.55.43,3.23.41,4.77.87,2.58.76,5.1,1.72,7.63,2.64.58.21,1.07.66,1.66.85,5.73,1.81,11.68,3.11,17.16,5.5,7.11,3.1,13.86,7,20.75,10.64,3.05,1.6,6.14,3.18,9.06,5,6.79,4.23,13.52,8.58,20.23,12.94,4.77,3.1,9.54,6.21,14.16,9.53C757.46,266.12,758.25,267.84,759.78,269.86Z" transform="translate(80 -107)" fill="#fff"/><path d="M668.1,376c10.86,0,21.72-.05,32.58,0,5.3,0,5.44.49,6.44,5.56.66,3.4,2.54,6.62,2.9,10,.93,9.05,1.39,18.14,1.92,27.23.15,2.61-1.49,4-4,3.85-7.83-.5-15.63-1.24-23.46-1.77a116.07,116.07,0,0,0-13.43-.53c-12,.56-24.08,1.42-36.12,2.2-11.66.75-13.1-.67-12.2-12.42.13-1.74.5-3.45.78-5.18q1.38-8.64,2.77-17.28a46,46,0,0,1,1.08-6.24c1.15-3.73,3.56-5.62,7.78-5.55,11,.2,22,.07,33,.07Z" transform="translate(80 -107)" fill="#fff"/><path d="M668.46,362.52c-4,0-8,.35-12-.09a98.49,98.49,0,0,1-14.62-2.81c-1.19-.32-2.71-2.55-2.66-3.84a64.53,64.53,0,0,1,1.68-10.64c.41-1.94,1.84-3.82,1.76-5.67-.47-10.05,3-19.38,4.84-29a7.93,7.93,0,0,1,6.83-6.61c7-1,14.12-1.57,21.2-1.91a16.8,16.8,0,0,1,7.19,1.66,6.07,6.07,0,0,1,2.85,3.45,99.76,99.76,0,0,1,5.1,25.51c.34,6.25,2.7,12.37,3.48,18.63.81,6.52-2.83,10.46-9.54,11.12-2.73.27-5.5.16-8.25.19s-5.25,0-7.87,0Z" transform="translate(80 -107)" fill="#fff"/><path d="M536.43,239.17c0-2.88.05-5.75,0-8.62-.08-3.51,1.55-5.38,5.07-5.57a20.4,20.4,0,0,1,4.47-.17c2.73.46,5.75.68,8,2.05,3.4,2,0,4.89-.06,7.4-.15,4-.53,8-.81,11.94-.37,5.1-2.65,7.34-7.76,7.63-7.37.43-8.91-1-8.91-8.29Z" transform="translate(80 -107)" fill="#fff"/><path d="M600.34,602.17q0-42,0-84c0-7.56.66-8.47,8-9.27a140.94,140.94,0,0,1,15-.69q48,0,96,.06c13,0,13.95.8,16.48,13.55a56.64,56.64,0,0,1,1.07,10.79q.11,71.45-.06,142.89c0,5.39-1.28,10.83-2.37,16.17-.74,3.6-3.56,4.6-7.14,4.59-27.37-.06-54.74,0-82.12,0-11.87,0-23.75,0-35.62-.1-7-.06-9.22-2.27-9.23-9.27Q600.3,644.55,600.34,602.17Zm13.12,4h.35c0,23.87,0,47.74-.06,71.62,0,3.54,1.26,5,4.8,4.91,7.37-.17,14.74-.19,22.12-.18,24.87,0,49.73.13,74.6.14,5.51,0,6.36-.91,6.37-6.3,0-20.25.17-40.5,0-60.75q-.4-42.72-1.29-85.44c-.2-9-.61-9.09-9.68-9.1q-42.75-.08-85.49,0a43.81,43.81,0,0,0-4.86.24c-3,.33-5.15,1.68-5.44,5.08-.41,4.85-1.31,9.69-1.34,14.54C613.37,562.71,613.46,584.46,613.46,606.21Z" transform="translate(80 -107)"/><path d="M613.46,606.21c0-21.75-.09-43.5.06-65.24,0-4.85.93-9.69,1.34-14.54.29-3.4,2.39-4.75,5.44-5.08a43.81,43.81,0,0,1,4.86-.24q42.75,0,85.49,0c9.07,0,9.48.1,9.68,9.1q.93,42.72,1.29,85.44c.19,20.25,0,40.5,0,60.75,0,5.39-.86,6.3-6.37,6.3-24.87,0-49.73-.11-74.6-.14-7.38,0-14.75,0-22.12.18-3.54.08-4.81-1.37-4.8-4.91.1-23.88.06-47.75.06-71.62Z" transform="translate(80 -107)" fill="#fff"/></svg>