<svg id="Layer_1" data-name="Layer 1" xmlns="http://www.w3.org/2000/svg" viewBox="333 -149 622 1012"><title>icono home</title><path d="M-80,917V107H1360V917ZM610.57,299c-1.31,3-3.14,5.41-3.22,7.82q-.76,24.72-.79,49.45a13.54,13.54,0,0,0,3,7.69c1.76,2.21,1.82,3.37-.52,4.62-3.35,1.77-6.84,3.31-10.14,5.18-3.63,2.05-7.21,4.22-10.64,6.59-5.17,3.57-10.39,7.13-15.24,11.11-9.41,7.72-16.54,17.43-22.91,27.69a75.63,75.63,0,0,0-5,9.89,94.58,94.58,0,0,0-3.13,9,18.41,18.41,0,0,0-1,4.71c-1.19,34.21-2.58,68.42-3.35,102.64-.4,17.6.39,35.23.51,52.85.32,50.09-2.2,100.22,2.56,150.25.62,6.56,4.19,11.57,6.07,17.41,1.4,4.34,4.49,8.13,6.77,12.19a72.18,72.18,0,0,0,19.6,22.12,153.33,153.33,0,0,0,15.27,9.84c5.42,3.2,10.59,7.08,17.3,7.29a17.82,17.82,0,0,1,3.24.9c4.32,1,8.6,2.27,13,2.7,5.33.52,10.75.06,16.11.43,6.59.44,13.22,2.21,19.73,1.81,15.92-1,32-.13,47.56-5.63,6.78-2.41,13.39-4.81,19.65-8.41a84.9,84.9,0,0,0,31.13-30.85c4.19-7.09,9.41-14.18,9.63-23.14,0-1.17.87-2.31,1.24-3.49.78-2.45,2-4.9,2.16-7.39.57-13,1.17-26,1.16-39,0-48.61-.33-97.23-.54-145.84q-.22-53.81-.54-107.61c0-2.71,0-5.71-1.16-8.08-2.88-6.21-2.32-13.43-6.57-19.32-3.81-5.29-5.85-11.91-9.88-17-8.34-10.49-17.68-20.12-29.6-26.78-1.82-1-3.2-2.89-5.08-3.7-5.52-2.37-11-4.64-15.89-8.36-2.23-1.7-2.71-3.25-2-5.68,1-3.58,2.67-7.19,2.64-10.78-.1-13.35-.61-26.71-1.34-40-.2-3.52-.91-7.49-2.78-10.34-4.53-6.89-3.33-13.87-1.28-20.8,1.53-5.15,4-10.05,6.35-14.92,2.06-4.31,4.45-8.46,6.81-12.61a43.1,43.1,0,0,1,3.41-4.88c3.32-4.33,6.89-8.48,10-13,2.53-3.68,1.53-10.63-1.35-14-8.47-10-20.45-14.26-31.91-18.94a67.82,67.82,0,0,0-22.29-4.5c-29.19-1.28-58.41-1.81-87.61-2.79-7.6-.26-15.43-.17-22.7-2-7.07-1.8-13.85-3.19-21.13-2.38-5,.56-10,.42-15,.73-8.35.52-12.11,3.94-13.55,12.26a32.21,32.21,0,0,0-.72,6.68c.29,7.21,1.2,14.41,1.12,21.6-.07,6.51,4.08,10.41,7.71,14.64a18.45,18.45,0,0,0,6.61,4.74c4.08,1.72,8.42,2.81,12.66,4.12,6.24,1.93,7,2.33,6.09,8.78-1.3,9.59-3.21,19.1-5.09,28.59-.91,4.61-2.3,9.11-3.53,13.65a32.88,32.88,0,0,1-1.18,3.13c-2.15,5.49-4.15,11-6.5,16.46-1.8,4.16-4,8.13-6.09,12.17-1.74,3.41-3.59,6.77-5.17,10.25-.31.69.18,1.93.62,2.75,4.08,7.64,11.55,7,17.75,2a101.61,101.61,0,0,0,15.64-16.39A287.22,287.22,0,0,0,565,311.49c3.61-5.83,6.08-12.38,8.88-18.68,1-2.24,2.37-3.4,4.82-3.35,1.74,0,3.5,0,5.24-.1,3.24-.2,5.93.33,8.32,3.07,3.85,4.43,8.82,6.77,15,6A9.74,9.74,0,0,1,610.57,299Z" transform="translate(80 -107)" fill="#fff"/><path d="M610.57,299a9.74,9.74,0,0,0-3.3-.59c-6.15.81-11.12-1.53-15-6-2.39-2.74-5.08-3.27-8.32-3.07-1.74.1-3.5.13-5.24.1-2.45,0-3.82,1.11-4.82,3.35-2.8,6.3-5.27,12.85-8.88,18.68a287.22,287.22,0,0,1-17.89,25.63,101.61,101.61,0,0,1-15.64,16.39c-6.2,5.05-13.67,5.67-17.75-2-.44-.82-.93-2.06-.62-2.75,1.58-3.48,3.43-6.84,5.17-10.25,2.06-4,4.29-8,6.09-12.17,2.35-5.41,4.35-11,6.5-16.46a32.88,32.88,0,0,0,1.18-3.13c1.23-4.54,2.62-9,3.53-13.65,1.88-9.49,3.79-19,5.09-28.59.87-6.45.15-6.85-6.09-8.78-4.24-1.31-8.58-2.4-12.66-4.12a18.45,18.45,0,0,1-6.61-4.74c-3.63-4.23-7.78-8.13-7.71-14.64.08-7.19-.83-14.39-1.12-21.6a32.21,32.21,0,0,1,.72-6.68c1.44-8.32,5.2-11.74,13.55-12.26,5-.31,10-.17,15-.73,7.28-.81,14.06.58,21.13,2.38,7.27,1.85,15.1,1.76,22.7,2,29.2,1,58.42,1.51,87.61,2.79a67.82,67.82,0,0,1,22.29,4.5c11.46,4.68,23.44,9,31.91,18.94,2.88,3.38,3.88,10.33,1.35,14-3.08,4.49-6.65,8.64-10,13a43.1,43.1,0,0,0-3.41,4.88c-2.36,4.15-4.75,8.3-6.81,12.61-2.33,4.87-4.82,9.77-6.35,14.92-2.05,6.93-3.25,13.91,1.28,20.8,1.87,2.85,2.58,6.82,2.78,10.34.73,13.33,1.24,26.69,1.34,40,0,3.59-1.65,7.2-2.64,10.78-.67,2.43-.19,4,2,5.68,4.87,3.72,10.37,6,15.89,8.36,1.88.81,3.26,2.68,5.08,3.7,11.92,6.66,21.26,16.29,29.6,26.78,4,5.07,6.07,11.69,9.88,17,4.25,5.89,3.69,13.11,6.57,19.32,1.11,2.37,1.14,5.37,1.16,8.08q.35,53.81.54,107.61c.21,48.61.49,97.23.54,145.84,0,13-.59,26-1.16,39-.11,2.49-1.38,4.94-2.16,7.39-.37,1.18-1.21,2.32-1.24,3.49-.22,9-5.44,16.05-9.63,23.14a84.9,84.9,0,0,1-31.13,30.85c-6.26,3.6-12.87,6-19.65,8.41-15.51,5.5-31.64,4.66-47.56,5.63-6.51.4-13.14-1.37-19.73-1.81-5.36-.37-10.78.09-16.11-.43-4.37-.43-8.65-1.75-13-2.7a17.82,17.82,0,0,0-3.24-.9c-6.71-.21-11.88-4.09-17.3-7.29a153.33,153.33,0,0,1-15.27-9.84,72.18,72.18,0,0,1-19.6-22.12c-2.28-4.06-5.37-7.85-6.77-12.19-1.88-5.84-5.45-10.85-6.07-17.41-4.76-50-2.24-100.16-2.56-150.25-.12-17.62-.91-35.25-.51-52.85.77-34.22,2.16-68.43,3.35-102.64a18.41,18.41,0,0,1,1-4.71,94.58,94.58,0,0,1,3.13-9,75.63,75.63,0,0,1,5-9.89c6.37-10.26,13.5-20,22.91-27.69,4.85-4,10.07-7.54,15.24-11.11,3.43-2.37,7-4.54,10.64-6.59,3.3-1.87,6.79-3.41,10.14-5.18,2.34-1.25,2.28-2.41.52-4.62a13.54,13.54,0,0,1-3-7.69q0-24.74.79-49.45C607.43,304.39,609.26,302,610.57,299Zm95.62,300.38H707q0-60.55,0-121.1c0-2-.09-4-.11-6,0-2.84-1.42-4.23-4.26-3.75-3.57.59-7.08,1.72-10.66,2-10.7.72-21.42,1.62-32.13,1.56-32.86-.19-65.72-.78-98.58-1.24-7.28-.1-7.73.28-7.73,7.46q.06,99.36.11,198.71,0,22.5,0,45c0,7.09.4,7.33,7.33,7.64,3,.13,5.92.75,8.88,1.17,6.28.91,12.53,2.43,18.83,2.64,15.74.53,31.49.44,47.23.69,4.49.07,9,.76,13.45.68,9.24-.16,18.47-.67,27.7-1,6.74-.25,13.5-.22,20.22-.73s8.93-3.39,8.93-10Zm50.1,1.95h.42q0-68.79,0-137.6c0-5.12.24-10.23-2.93-14.8-.86-1.23-.73-3.12-1.21-4.67-1.67-5.41-2.8-11.11-5.29-16.12-2.94-5.89-6-11.88-11.15-16.45-7.11-6.35-13.9-13.06-21.15-19.25-2.56-2.19-5.94-3.56-9.13-4.86-6-2.44-12.06-5-18.33-6.63-3.44-.89-5.23-1.85-5.58-5.56-.47-5.12-1.63-6.29-6.51-6.34-14-.14-28,0-42,0-3.23,0-4.64,1.49-5.18,4.61-1.18,6.81-1.38,6.24-8.33,7.42a68.85,68.85,0,0,0-16.07,5.36c-3.79,1.68-7.21,4.28-10.59,6.76-5,3.65-10.32,7-14.49,11.48a149.08,149.08,0,0,0-15,19.42c-2.7,4.06-4.14,9-6,13.54-1,2.38-1.47,5-2.65,7.26-3.35,6.43-1.31,10.43,5.79,10.44q52.29,0,104.6-.12c16.12,0,32.23-.22,48.35-.21,5,0,5.7.89,5.69,5.74q-.09,120.54-.32,241.09c0,11-.93,22-1.95,32.9-.61,6.43-5.44,10.84-11.83,11.33-14.43,1.09-28.88,2.19-43.33,2.75-25.13,1-50.2-.49-75.24-2.4-6.34-.49-12.66-1.17-19-1.63-2.6-.18-5.39-.55-7.8.16-1.74.5-4.5,3.14-4.22,4,1.91,5.84,4,11.77,7,17.07a98.65,98.65,0,0,0,11.79,16,60.68,60.68,0,0,0,12.07,10.37c5.24,3.4,11.11,5.83,16.64,8.81,7,3.74,14.44,6.56,22.23,6.8,25.82.77,51.71,1.85,77.21-4a11.36,11.36,0,0,0,3.14-1.09q9-5.2,17.84-10.57a25.42,25.42,0,0,0,4.07-3.17c3.52-3.32,7.38-6.39,10.32-10.17a121.54,121.54,0,0,0,10-15.52c2.18-3.94,3-8.74,5.49-12.39,2.28-3.32,2.66-6.57,2.66-10.19ZM547.06,312.92a17.7,17.7,0,0,0,1.47-1.39c6.36-7.73,8.64-17.45,12.57-26.34,2.28-5.17,4.82-7.68,10.59-8.36,3.29-.38,6.88-.62,9.69-2.12,6.39-3.42,13.15-2.79,17.74,2.88a10,10,0,0,0,8.37,4.14,23.9,23.9,0,0,1,12.15,2.64c5.06,2.56,8.57,5.76,8.77,11.7.1,3,.13,6,.3,9,.23,4.15-1.47,7-5.44,8.36a4.72,4.72,0,0,0-3.62,5q.09,14.43,0,28.86c0,3,1.33,4.3,4.3,4.36,3.49.08,7,.45,10.46.58,8.34.32,16.68.62,25,.83.95,0,2.33-.22,2.76-.85a5.52,5.52,0,0,0,.92-3.62c-.38-2.37-1.69-4.65-1.81-7-.31-5.74,0-11.5-.23-17.24-.17-5.21,1-9.32,6-12.16,4-2.25,7.72-2.66,11.42.08,1.93,1.44,3.91,2.81,6,4.26,1.48-2.59,1.61-4.57-.37-6.75a8.54,8.54,0,0,1-1.92-4.67c-.49-4.84-.6-9.72-.91-14.58-.58-8.92,2.17-17.18,5.45-25.21a97.79,97.79,0,0,1,7.15-13.44c3.32-5.48,6.52-11.16,10.63-16,5-5.94,4.37-10-3.07-12.84-4.48-1.73-9-3.45-13.29-5.6a59,59,0,0,0-22.37-5.86c-19.16-1.3-38.44-.79-57.67-1.08-5-.08-10-.2-15-.75-6.19-.68-12.31-2.23-18.51-2.66a242.2,242.2,0,0,0-25.84-.55,214.7,214.7,0,0,0-23,2.58c-1.16.16-2.66,2-3,3.27-.76,3.1-.56,6.44-1.37,9.51-1.13,4.27-.4,8.07,1.35,12s4.5,6,9,5.93c1.65,0,3.34.79,5,1.35,2.33.8,4.55,2.16,6.93,2.5,6.61.94,12.94,8.24,11.07,15.39-1.13,4.28-.79,8.93-1.34,13.38-.39,3.2-1.14,6.36-1.8,9.52-.72,3.53-1.46,7-2.3,10.55s-1.59,7-2.73,10.35S544.67,309.41,547.06,312.92Zm124.2,24.86c4.36-3.62,4.27-8.71,0-11.65Z" transform="translate(80 -107)"/><path d="M706.19,599.36V723.08c0,6.58-2.35,9.47-8.93,10s-13.48.48-20.22.73c-9.23.33-18.46.84-27.7,1-4.47.08-9-.61-13.45-.68-15.74-.25-31.49-.16-47.23-.69-6.3-.21-12.55-1.73-18.83-2.64-3-.42-5.91-1-8.88-1.17-6.93-.31-7.31-.55-7.33-7.64q-.06-22.49,0-45-.06-99.36-.11-198.71c0-7.18.45-7.56,7.73-7.46,32.86.46,65.72,1.05,98.58,1.24,10.71.06,21.43-.84,32.13-1.56,3.58-.24,7.09-1.37,10.66-2,2.84-.48,4.22.91,4.26,3.75,0,2,.11,4,.11,6q0,60.56,0,121.1Z" transform="translate(80 -107)" fill="#fff"/><path d="M756.29,601.31V740.8c0,3.62-.38,6.87-2.66,10.19-2.51,3.65-3.31,8.45-5.49,12.39a121.54,121.54,0,0,1-10,15.52c-2.94,3.78-6.8,6.85-10.32,10.17a25.42,25.42,0,0,1-4.07,3.17q-8.87,5.38-17.84,10.57a11.36,11.36,0,0,1-3.14,1.09c-25.5,5.89-51.39,4.81-77.21,4-7.79-.24-15.26-3.06-22.23-6.8-5.53-3-11.4-5.41-16.64-8.81A60.68,60.68,0,0,1,574.6,782a98.65,98.65,0,0,1-11.79-16c-3-5.3-5.09-11.23-7-17.07-.28-.84,2.48-3.48,4.22-4,2.41-.71,5.2-.34,7.8-.16,6.34.46,12.66,1.14,19,1.63,25,1.91,50.11,3.37,75.24,2.4,14.45-.56,28.9-1.66,43.33-2.75,6.39-.49,11.22-4.9,11.83-11.33,1-10.93,1.92-21.93,1.95-32.9q.36-120.54.32-241.09c0-4.85-.74-5.73-5.69-5.74-16.12,0-32.23.17-48.35.21q-52.31.1-104.6.12c-7.1,0-9.14-4-5.79-10.44,1.18-2.26,1.66-4.88,2.65-7.26,1.89-4.57,3.33-9.48,6-13.54a149.08,149.08,0,0,1,15-19.42c4.17-4.45,9.52-7.83,14.49-11.48,3.38-2.48,6.8-5.08,10.59-6.76A68.85,68.85,0,0,1,619.93,381c7-1.18,7.15-.61,8.33-7.42.54-3.12,2-4.62,5.18-4.61,14,0,28-.1,42,0,4.88.05,6,1.22,6.51,6.34.35,3.71,2.14,4.67,5.58,5.56,6.27,1.63,12.3,4.19,18.33,6.63,3.19,1.3,6.57,2.67,9.13,4.86,7.25,6.19,14,12.9,21.15,19.25,5.12,4.57,8.21,10.56,11.15,16.45,2.49,5,3.62,10.71,5.29,16.12.48,1.55.35,3.44,1.21,4.67,3.17,4.57,2.93,9.68,2.93,14.8q0,68.81,0,137.6Z" transform="translate(80 -107)" fill="#fff"/><path d="M547.06,312.92c-2.39-3.51-1.58-6.72-.44-10.11s1.91-6.88,2.73-10.35,1.58-7,2.3-10.55c.66-3.16,1.41-6.32,1.8-9.52.55-4.45.21-9.1,1.34-13.38,1.87-7.15-4.46-14.45-11.07-15.39-2.38-.34-4.6-1.7-6.93-2.5-1.63-.56-3.32-1.37-5-1.35-4.45,0-7.17-2-9-5.93s-2.48-7.7-1.35-12c.81-3.07.61-6.41,1.37-9.51.31-1.3,1.81-3.11,3-3.27a214.7,214.7,0,0,1,23-2.58,242.2,242.2,0,0,1,25.84.55c6.2.43,12.32,2,18.51,2.66,4.95.55,10,.67,15,.75,19.23.29,38.51-.22,57.67,1.08a59,59,0,0,1,22.37,5.86c4.29,2.15,8.81,3.87,13.29,5.6,7.44,2.88,8.1,6.9,3.07,12.84-4.11,4.86-7.31,10.54-10.63,16a97.79,97.79,0,0,0-7.15,13.44c-3.28,8-6,16.29-5.45,25.21.31,4.86.42,9.74.91,14.58a8.54,8.54,0,0,0,1.92,4.67c2,2.18,1.85,4.16.37,6.75-2-1.45-4-2.82-6-4.26-3.7-2.74-7.44-2.33-11.42-.08-5,2.84-6.21,6.95-6,12.16.19,5.74-.08,11.5.23,17.24.12,2.35,1.43,4.63,1.81,7a5.52,5.52,0,0,1-.92,3.62c-.43.63-1.81.88-2.76.85-8.34-.21-16.68-.51-25-.83-3.49-.13-7-.5-10.46-.58-3-.06-4.31-1.39-4.3-4.36q0-14.43,0-28.86a4.72,4.72,0,0,1,3.62-5c4-1.35,5.67-4.21,5.44-8.36-.17-3-.2-6-.3-9-.2-5.94-3.71-9.14-8.77-11.7a23.9,23.9,0,0,0-12.15-2.64,10,10,0,0,1-8.37-4.14c-4.59-5.67-11.35-6.3-17.74-2.88-2.81,1.5-6.4,1.74-9.69,2.12-5.77.68-8.31,3.19-10.59,8.36-3.93,8.89-6.21,18.61-12.57,26.34A17.7,17.7,0,0,1,547.06,312.92Zm30.94-44c4.94.06,9.8-4.67,10-9.71s-4.93-9.35-11.27-9.25c-4.36.06-8,4.37-8.07,9.55C568.55,265.83,571.51,268.8,578,268.88Z" transform="translate(80 -107)" fill="#fff"/><path d="M671.26,337.78V326.13C675.53,329.07,675.62,334.16,671.26,337.78Z" transform="translate(80 -107)" fill="#fff"/><path d="M578,268.88c-6.49-.08-9.45-3.05-9.37-9.41.07-5.18,3.71-9.49,8.07-9.55,6.34-.1,11.45,4.1,11.27,9.25S582.94,268.94,578,268.88Z" transform="translate(80 -107)"/></svg>