<svg id="Layer_1" data-name="Layer 1" xmlns="http://www.w3.org/2000/svg" viewBox="466 -127 488 962"><title>icono difusor</title><path d="M1360,917H-80V107H1360ZM611.86,462.67l-1.62-.06c-.36-3.11-.71-6.22-1.07-9.33s-.52-6.18-1.13-9.21c-.75-3.72-2.08-7.33-2.8-11.05-.66-3.41-.67-6.93-1.28-10.35-.86-4.88-2-9.69-3-14.55-.31-1.58,0-3.46-.68-4.77-2.89-5.24-3.3-10.92-3.72-16.67a27.17,27.17,0,0,0-1.06-4.34c-.91-3.59-2.34-7.16-2.56-10.8A21.92,21.92,0,0,0,589,359.7c-1.71-2.43-3.77-2.67-6.2-2.2S580.1,360,580,362.12c-.58,12.14,5.22,23.27,5.53,35.26,0,.24.19.46.24.7.89,4.12,1.8,8.22,2.63,12.35.41,2.07.12,4.46,1.06,6.22,4.15,7.73,3,16.06,3.17,24.25,0,1-.94,2-1.45,3-.79-1-2-1.82-2.28-2.93-.46-1.64-.14-3.49-.47-5.2a27.06,27.06,0,0,0-1.54-4.46,52.56,52.56,0,0,1-2.35-6.13c-1.66-6.9-3.12-13.86-4.72-20.77-.16-.68-.88-1.21-1.18-1.88a50.53,50.53,0,0,1-2.23-5.39c-1-3.14-1.84-6.34-2.73-9.52-.43-1.55-.87-3.11-1.25-4.68-1.8-7.46-3.57-14.92-5.36-22.38-.09-.36-.31-.69-.41-1.05-1-3.57-2-7.15-2.94-10.72-.32-1.21-.48-2.45-.85-3.64q-3.37-10.61-6.81-21.2c-1.56-4.82-3.06-9.66-4.73-14.44-1-2.93-3.55-3.55-6.14-2.72-2.4.77-4,2.42-3.2,5.43,1.49,5.47.65,11.52,4.27,16.48.6.82.45,2.17.7,3.27q2.47,10.49,5,21c.09.35.33.67.45,1,2.31,7,4.77,14.05,6.86,21.16,1.89,6.39,3.35,12.92,5.06,19.37.22.83.82,1.55,1.11,2.36.74,2.11,1.53,4.2,2.08,6.36,1.79,6.95,3.45,13.94,5.22,20.91a28.54,28.54,0,0,0,1.25,2.71,52,52,0,0,1,1.75,5.29c1.79,7.09,3.5,14.19,5.27,21.29.17.71.64,1.35.87,2.06,2.12,6.72,4.35,13.41,6.3,20.19s3.61,13.9,5.54,20.82c.69,2.49,2,4.8,2.71,7.3,1.93,7.29,3.64,14.63,5.48,21.94,1.06,4.2,2.2,8.37,3.36,12.54a20.41,20.41,0,0,0,1.61,4.52c1.78,3.15,1.63,3.66-1.89,4.37-6.55,1.31-10.3,5.16-11.13,11.84a118.84,118.84,0,0,0-1,13.45,67.68,67.68,0,0,0,3.61,24c.94,2.59,2.36,4.46,5.23,4.66,11.33.83,22.65,2.05,34,2.22,8.84.13,17.69-1.07,26.54-1.69,6.16-.43,9.12-3.26,9.23-9.45.21-12.12.23-24.25.27-36.37,0-5.23-1.56-7.08-6.74-8.32-6.17-1.47-7.68-5.31-4.33-10.83a24.12,24.12,0,0,0,2.12-4.33c1.87-5.26,3.55-10.59,5.46-15.83,1.44-4,3.11-7.83,4.7-11.73,2.06-5,4.19-10.06,6.2-15.12,2.47-6.19,4.85-12.43,7.29-18.64,1.63-4.16,3.41-8.26,4.9-12.46,1.92-5.36,3.53-10.84,5.43-16.21,1.45-4.08,3.09-8.09,4.72-12.1,2.18-5.38,4.58-10.67,6.62-16.11,2-5.21,3.47-10.58,5.33-15.82,1.43-4.07,3-8.07,4.66-12.07,2.05-5,4.33-10,6.23-15.09,2-5.43,3.68-11,5.54-16.49q4-11.78,8.07-23.53c.32-.94,1-1.78,1.2-2.73a65.65,65.65,0,0,0,2.13-10.09c.12-1.56-1.31-3.24-2-4.87-1.77,1-4.27,1.59-5.17,3.11A82.39,82.39,0,0,0,728.92,328c-1.93,4.84-3.63,9.76-5.55,14.61-1.4,3.53-3,7-4.5,10.49-2.25,5.22-4.55,10.42-6.7,15.69-2,4.79-3.79,9.64-5.64,14.47-2.22,5.77-4.5,11.51-6.58,17.33-1.88,5.28-3.51,10.65-5.29,16-.2.57-.75,1-1,1.58-.73,1.81-1.41,3.63-2.06,5.47-.33.92-.26,2.35-.88,2.74-3.14,2-3.34,5-3.39,8.19a11,11,0,0,1-1,3.56c-.94,2.47-1.85,4.95-3,7.32a11.6,11.6,0,0,1-2.25,2.48c-.55-.88-1.56-1.74-1.57-2.62,0-4.68-.76-9.51,2.89-13.53.87-1,.78-2.8,1.09-4.24q2.75-12.67,5.5-25.37c.1-.48.49-.88.63-1.36.72-2.48,1.52-4.94,2.07-7.46,1.85-8.46,3.59-16.95,5.39-25.42.11-.47.49-.89.61-1.37,2.19-8.62,4.48-17.22,6.5-25.89,1.94-8.3,3.61-16.67,5.41-25,.08-.36.34-.68.44-1,.8-2.85,1.72-5.67,2.36-8.55,1.78-8,3.44-16,5.17-23.95.1-.48.44-.9.58-1.38.88-2.94,1.84-5.87,2.57-8.86,1.8-7.45,3.49-14.93,5.23-22.39.09-.36.34-.68.44-1,.85-3.07,1.89-6.11,2.45-9.24.38-2.17.55-4.79-2.44-5.51s-5.77-.45-7.11,2.58a66.87,66.87,0,0,0-2.92,9.16c-.72,2.63-1.17,5.33-1.85,8s-1.65,5.46-2.31,8.22c-1.77,7.46-3.42,15-5.19,22.41-1,4.43-1.76,9-3.47,13.2a74.87,74.87,0,0,0-4.7,18.68c-.08.59-.59,1.11-.75,1.7-2.16,7.71-4.47,15.37-6.38,23.14-2,8.15-3.61,16.4-5.41,24.61-.11.47-.49.88-.62,1.36q-3.24,11.58-6.42,23.17c-.13.47,0,1-.08,1.49q-2.72,12.31-5.46,24.62c-.08.36-.36.67-.46,1-.72,2.37-1.59,4.71-2.1,7.13-1.81,8.62-3.51,17.27-5.25,25.91,0,.24-.17.47-.22.71-1.08,4.7-2.13,9.4-3.26,14.08a32.67,32.67,0,0,1-1.4,3.63c-.81-.7-1.31-.91-1.33-1.18-.78-7.8-3.32-15.78,2.15-23a4.13,4.13,0,0,0,.89-2.41c-.3-8.57,1.81-16.7,3.52-25s2.3-17.18,4.16-25.76c1.81-8.31,1.1-17.17,4.4-25.32a4.06,4.06,0,0,0,.21-1.48c0-2.92-3.13-6.76-5.78-7.08s-5.52,2.25-6.16,5.48c-.34,1.7-.23,3.49-.53,5.21-.54,3.18-1.21,6.35-1.86,9.51s-1.51,6.27-2,9.44c-1.89,11.65-3.66,23.31-5.5,35-.09.6-.48,1.16-.6,1.77-.74,3.76-2.35,7.63-2,11.29.86,8.21-3.12,14.64-6.83,21.47a10.54,10.54,0,0,1-.39-4.74c2.79-14.19,2.82-28.54,2.91-42.93q.47-76.14,1.34-152.27c.1-9.12.9-18.24.75-27.35a219,219,0,0,0-1.88-23.44c-.56-4.44-1.78-4.55-5.55-2-2.42,1.6-3.06,3.65-3.13,6.33-1.19,44.11-2.85,88.21-3.57,132.32-.82,50.5-.81,101-1.2,151.51a25,25,0,0,1-.67,4l-1.07,0c-.2-1-.42-2-.59-3.06-.62-3.66-1.18-7.33-1.84-11-.79-4.42-2-8.79-2.42-13.24-1.15-13.54-1.31-27.09-3.61-40.63-2.53-14.82-.87-30.21-4.7-45a5.91,5.91,0,0,1-.08-1.12c-.76-13.57-1.61-27.08-3.58-40.61-2.2-15.13-2-30.58-4.45-45.81-1.55-9.68-.78-19.71-1.74-29.52-.44-4.49-2.31-8.9-4-13.18-1.27-3.3-5.71-4.53-6.68-2.13a26.47,26.47,0,0,0-2.22,9.69c0,6.09.71,12.2,1.27,18.29q.71,7.81,1.73,15.61c.52,4.08,1.53,8.11,1.86,12.2.66,8.46.07,17.14,1.73,25.38,2.19,10.9,2.71,21.78,3,32.78.11,4.09,1,8.16,1.65,12.23s1.51,7.86,1.84,11.83c.76,9.08.27,18.38,2.08,27.22,2.69,13.17,2.6,26.32,2.4,39.56A28.81,28.81,0,0,1,611.86,462.67ZM559.54,704h.09c0,15.5-.12,31,0,46.49.17,16.74.55,33.47.92,50.21.12,5.62,2.61,10.19,6.3,14.4,6.12,7,14.47,10.06,22.76,12.7,8,2.53,16.48,3.48,24.75,5.11a101.66,101.66,0,0,0,10.3,1.87c5.19.45,10.87,1.89,15.55.4,11.13-3.55,22.93-1.71,34.11-6,9.07-3.53,17.6-7.24,24.86-13.66,5.2-4.6,7.59-10.11,7.56-17.4-.25-53.87,0-107.73-.2-161.59,0-8.2-1.05-16.41-1.83-24.6-.18-1.89-.76-4.58-2.07-5.36a74.59,74.59,0,0,0-12.09-5.33,43.64,43.64,0,0,0-8.64-2.13,10.48,10.48,0,0,0-5.66.53c-2.72,1.28-4.91,3.89-7.7,4.81-5,1.66-10.3,3.21-15.55,3.49-11.82.64-23.76,1.37-35.51.36-9.22-.8-19.11-1.52-26.41-9.14-1.13-1.19-4.36-1.7-5.86-1-5.86,2.86-12.69,2.87-18.16,7.13-4.22,3.29-7.83,5.6-7.73,12.13C559.79,646.26,559.54,675.13,559.54,704Z" transform="translate(80 -107)" fill="#fff"/><path d="M611.86,462.67a28.81,28.81,0,0,0,1.17-5.54c.2-13.24.29-26.39-2.4-39.56-1.81-8.84-1.32-18.14-2.08-27.22-.33-4-1.25-7.88-1.84-11.83s-1.54-8.14-1.65-12.23c-.3-11-.82-21.88-3-32.78-1.66-8.24-1.07-16.92-1.73-25.38C600,304,599,300,598.46,295.93q-1-7.79-1.73-15.61c-.56-6.09-1.27-12.2-1.27-18.29a26.47,26.47,0,0,1,2.22-9.69c1-2.4,5.41-1.17,6.68,2.13,1.65,4.28,3.52,8.69,4,13.18,1,9.81.19,19.84,1.74,29.52,2.42,15.23,2.25,30.68,4.45,45.81,2,13.53,2.82,27,3.58,40.61a5.91,5.91,0,0,0,.08,1.12c3.83,14.79,2.17,30.18,4.7,45,2.3,13.54,2.46,27.09,3.61,40.63.38,4.45,1.63,8.82,2.42,13.24.66,3.66,1.22,7.33,1.84,11,.17,1,.39,2,.59,3.06l1.07,0a25,25,0,0,0,.67-4c.39-50.5.38-101,1.2-151.51.72-44.11,2.38-88.21,3.57-132.32.07-2.68.71-4.73,3.13-6.33,3.77-2.5,5-2.39,5.55,2A219,219,0,0,1,648.4,229c.15,9.11-.65,18.23-.75,27.35q-.76,76.14-1.34,152.27c-.09,14.39-.12,28.74-2.91,42.93a10.54,10.54,0,0,0,.39,4.74c3.71-6.83,7.69-13.26,6.83-21.47-.38-3.66,1.23-7.53,2-11.29.12-.61.51-1.17.6-1.77,1.84-11.65,3.61-23.31,5.5-35,.51-3.17,1.36-6.29,2-9.44s1.32-6.33,1.86-9.51c.3-1.72.19-3.51.53-5.21.64-3.23,3.63-5.79,6.16-5.48s5.79,4.16,5.78,7.08a4.06,4.06,0,0,1-.21,1.48c-3.3,8.15-2.59,17-4.4,25.32-1.86,8.58-2.42,17.3-4.16,25.76s-3.82,16.46-3.52,25a4.13,4.13,0,0,1-.89,2.41c-5.47,7.24-2.93,15.22-2.15,23,0,.27.52.48,1.33,1.18a32.67,32.67,0,0,0,1.4-3.63c1.13-4.68,2.18-9.38,3.26-14.08,0-.24.17-.47.22-.71,1.74-8.64,3.44-17.29,5.25-25.91.51-2.42,1.38-4.76,2.1-7.13.1-.35.38-.66.46-1q2.74-12.3,5.46-24.62c.1-.48-.05-1,.08-1.49q3.18-11.6,6.42-23.17c.13-.48.51-.89.62-1.36,1.8-8.21,3.41-16.46,5.41-24.61,1.91-7.77,4.22-15.43,6.38-23.14.16-.59.67-1.11.75-1.7a74.87,74.87,0,0,1,4.7-18.68C705.26,293,706,288.43,707,284c1.77-7.46,3.42-14.95,5.19-22.41.66-2.76,1.6-5.46,2.31-8.22s1.13-5.34,1.85-8a66.87,66.87,0,0,1,2.92-9.16c1.34-3,4.27-3.26,7.11-2.58s2.82,3.34,2.44,5.51c-.56,3.13-1.6,6.17-2.45,9.24-.1.36-.35.68-.44,1-1.74,7.46-3.43,14.94-5.23,22.39-.73,3-1.69,5.92-2.57,8.86-.14.48-.48.9-.58,1.38-1.73,8-3.39,16-5.17,23.95-.64,2.88-1.56,5.7-2.36,8.55-.1.35-.36.67-.44,1-1.8,8.34-3.47,16.71-5.41,25-2,8.67-4.31,17.27-6.5,25.89-.12.48-.5.9-.61,1.37-1.8,8.47-3.54,17-5.39,25.42-.55,2.52-1.35,5-2.07,7.46-.14.48-.53.88-.63,1.36q-2.78,12.67-5.5,25.37c-.31,1.44-.22,3.29-1.09,4.24-3.65,4-2.9,8.85-2.89,13.53,0,.88,1,1.74,1.57,2.62a11.6,11.6,0,0,0,2.25-2.48c1.14-2.37,2-4.85,3-7.32a11,11,0,0,0,1-3.56c0-3.21.25-6.2,3.39-8.19.62-.39.55-1.82.88-2.74.65-1.84,1.33-3.66,2.06-5.47.23-.57.78-1,1-1.58,1.78-5.32,3.41-10.69,5.29-16,2.08-5.82,4.36-11.56,6.58-17.33,1.85-4.83,3.67-9.68,5.64-14.47,2.15-5.27,4.45-10.47,6.7-15.69,1.5-3.5,3.1-7,4.5-10.49,1.92-4.85,3.62-9.77,5.55-14.61A82.39,82.39,0,0,1,734,316.51c.9-1.52,3.4-2.1,5.17-3.11.73,1.63,2.16,3.31,2,4.87a65.65,65.65,0,0,1-2.13,10.09c-.23.95-.88,1.79-1.2,2.73q-4.07,11.75-8.07,23.53c-1.86,5.49-3.52,11.06-5.54,16.49-1.9,5.1-4.18,10.05-6.23,15.09-1.62,4-3.23,8-4.66,12.07-1.86,5.24-3.38,10.61-5.33,15.82-2,5.44-4.44,10.73-6.62,16.11-1.63,4-3.27,8-4.72,12.1-1.9,5.37-3.51,10.85-5.43,16.21-1.49,4.2-3.27,8.3-4.9,12.46-2.44,6.21-4.82,12.45-7.29,18.64-2,5.06-4.14,10.08-6.2,15.12-1.59,3.9-3.26,7.77-4.7,11.73-1.91,5.24-3.59,10.57-5.46,15.83a24.12,24.12,0,0,1-2.12,4.33c-3.35,5.52-1.84,9.36,4.33,10.83,5.18,1.24,6.75,3.09,6.74,8.32,0,12.12-.06,24.25-.27,36.37-.11,6.19-3.07,9-9.23,9.45-8.85.62-17.7,1.82-26.54,1.69-11.35-.17-22.67-1.39-34-2.22-2.87-.2-4.29-2.07-5.23-4.66a67.68,67.68,0,0,1-3.61-24,118.84,118.84,0,0,1,1-13.45c.83-6.68,4.58-10.53,11.13-11.84,3.52-.71,3.67-1.22,1.89-4.37a20.41,20.41,0,0,1-1.61-4.52c-1.16-4.17-2.3-8.34-3.36-12.54-1.84-7.31-3.55-14.65-5.48-21.94-.66-2.5-2-4.81-2.71-7.3-1.93-6.92-3.56-13.92-5.54-20.82s-4.18-13.47-6.3-20.19c-.23-.71-.7-1.35-.87-2.06-1.77-7.1-3.48-14.2-5.27-21.29a52,52,0,0,0-1.75-5.29,28.54,28.54,0,0,1-1.25-2.71c-1.77-7-3.43-14-5.22-20.91-.55-2.16-1.34-4.25-2.08-6.36-.29-.81-.89-1.53-1.11-2.36-1.71-6.45-3.17-13-5.06-19.37C557.15,368,554.69,361,552.38,354c-.12-.36-.36-.68-.45-1q-2.5-10.49-5-21c-.25-1.1-.1-2.45-.7-3.27-3.62-5-2.78-11-4.27-16.48-.82-3,.8-4.66,3.2-5.43,2.59-.83,5.11-.21,6.14,2.72,1.67,4.78,3.17,9.62,4.73,14.44q3.42,10.6,6.81,21.2c.37,1.19.53,2.43.85,3.64,1,3.57,1.95,7.15,2.94,10.72.1.36.32.69.41,1.05,1.79,7.46,3.56,14.92,5.36,22.38.38,1.57.82,3.13,1.25,4.68.89,3.18,1.72,6.38,2.73,9.52a50.53,50.53,0,0,0,2.23,5.39c.3.67,1,1.2,1.18,1.88,1.6,6.91,3.06,13.87,4.72,20.77a52.56,52.56,0,0,0,2.35,6.13,27.06,27.06,0,0,1,1.54,4.46c.33,1.71,0,3.56.47,5.2.31,1.11,1.49,2,2.28,2.93.51-1,1.47-2,1.45-3-.15-8.19,1-16.52-3.17-24.25-.94-1.76-.65-4.15-1.06-6.22-.83-4.13-1.74-8.23-2.63-12.35,0-.24-.24-.46-.24-.7-.31-12-6.11-23.12-5.53-35.26.11-2.14.31-4.13,2.82-4.62s4.49-.23,6.2,2.2a21.92,21.92,0,0,1,3.92,11.84c.22,3.64,1.65,7.21,2.56,10.8a27.17,27.17,0,0,1,1.06,4.34c.42,5.75.83,11.43,3.72,16.67.72,1.31.37,3.19.68,4.77,1,4.86,2.15,9.67,3,14.55.61,3.42.62,6.94,1.28,10.35.72,3.72,2,7.33,2.8,11.05.61,3,.77,6.14,1.13,9.21s.71,6.22,1.07,9.33Zm20.22,94v-.28c-6.74,0-13.49-.12-20.23,0-5,.12-6.51,1.51-6.57,6.16-.09,7.36.08,14.73.29,22.09.07,2.88,4.73,7.59,7.57,7.6,14,0,28,0,41.94-.16,4.33-.06,5.13-1.16,5.17-5.57q.09-12,0-24c0-4.67-.68-5.65-5.35-5.83C647.31,556.45,639.69,556.66,632.08,556.66Zm-37.35-99.17c2.07-2.27,2.82-9.71,1-11.73a2.6,2.6,0,0,0-2.52,0C591.71,447.67,592.88,455.55,594.73,457.49Zm82.15,2.34c3-3.05,3-6.71,0-9.35A8.15,8.15,0,0,0,676.88,459.83Z" transform="translate(80 -107)"/><path d="M559.54,704c0-28.87.25-57.74-.18-86.6-.1-6.53,3.51-8.84,7.73-12.13,5.47-4.26,12.3-4.27,18.16-7.13,1.5-.73,4.73-.22,5.86,1,7.3,7.62,17.19,8.34,26.41,9.14,11.75,1,23.69.28,35.51-.36,5.25-.28,10.52-1.83,15.55-3.49,2.79-.92,5-3.53,7.7-4.81a10.48,10.48,0,0,1,5.66-.53,43.64,43.64,0,0,1,8.64,2.13,74.59,74.59,0,0,1,12.09,5.33c1.31.78,1.89,3.47,2.07,5.36.78,8.19,1.8,16.4,1.83,24.6.15,53.86-.05,107.72.2,161.59,0,7.29-2.36,12.8-7.56,17.4-7.26,6.42-15.79,10.13-24.86,13.66-11.18,4.34-23,2.5-34.11,6-4.68,1.49-10.36.05-15.55-.4a101.66,101.66,0,0,1-10.3-1.87c-8.27-1.63-16.77-2.58-24.75-5.11-8.29-2.64-16.64-5.72-22.76-12.7-3.69-4.21-6.18-8.78-6.3-14.4-.37-16.74-.75-33.47-.92-50.21-.15-15.5,0-31,0-46.49ZM572,709.64V731c0,22.37,0,44.73,0,67.1,0,4.53,1.24,7.93,5.55,10.11,3.31,1.68,6.14,4.33,9.5,5.86,4.72,2.16,9.62,4.72,14.64,5.26,12.4,1.34,24.89,1.9,37.37,2.22,5.81.15,11.65-1.11,17.49-1.47,5.1-.32,10.3.15,14.62-3.45a4.39,4.39,0,0,1,2.11-.72c7-.93,12.25-5.14,17.31-9.43a13.41,13.41,0,0,0,4.87-11c-.22-58.36-.14-116.72-.14-175.07a13.21,13.21,0,0,0-.16-3.73c-.28-.93-1.13-2.24-1.92-2.39A50.42,50.42,0,0,0,682.83,613c-5,.07-9.47,2.51-14.16,4a81.86,81.86,0,0,1-22.7,4A219.87,219.87,0,0,1,612,619.54c-9.48-1.21-18.69-4.5-28.07-6.66-8.17-1.88-12,1.2-12,9.41v87.35Z" transform="translate(80 -107)"/><path d="M632.08,556.66c7.61,0,15.23-.21,22.83.08,4.67.18,5.32,1.16,5.35,5.83q.09,12,0,24c0,4.41-.84,5.51-5.17,5.57-14,.19-28,.19-41.94.16-2.84,0-7.5-4.72-7.57-7.6-.21-7.36-.38-14.73-.29-22.09.06-4.65,1.59-6,6.57-6.16,6.74-.16,13.49,0,20.23,0Z" transform="translate(80 -107)" fill="#fff"/><path d="M594.73,457.49c-1.85-1.94-3-9.82-1.54-11.77a2.6,2.6,0,0,1,2.52,0C597.55,447.78,596.8,455.22,594.73,457.49Z" transform="translate(80 -107)" fill="#fff"/><path d="M676.88,459.83a8.15,8.15,0,0,1,0-9.35C679.84,453.12,679.92,456.78,676.88,459.83Z" transform="translate(80 -107)" fill="#fff"/><path d="M572,709.64V622.29c0-8.21,3.83-11.29,12-9.41,9.38,2.16,18.59,5.45,28.07,6.66A219.87,219.87,0,0,0,646,621a81.86,81.86,0,0,0,22.7-4c4.69-1.52,9.14-4,14.16-4a50.42,50.42,0,0,1,10.33,1.28c.79.15,1.64,1.46,1.92,2.39a13.21,13.21,0,0,1,.16,3.73c0,58.35-.08,116.71.14,175.07a13.41,13.41,0,0,1-4.87,11c-5.06,4.29-10.34,8.5-17.31,9.43a4.39,4.39,0,0,0-2.11.72c-4.32,3.6-9.52,3.13-14.62,3.45-5.84.36-11.68,1.62-17.49,1.47-12.48-.32-25-.88-37.37-2.22-5-.54-9.92-3.1-14.64-5.26-3.36-1.53-6.19-4.18-9.5-5.86-4.31-2.18-5.56-5.58-5.55-10.11.09-22.37,0-44.73,0-67.1Z" transform="translate(80 -107)" fill="#fff"/></svg>